<?xml version="1.0" encoding="UTF-8"?>
<svg width="482px" height="245px" viewBox="0 0 482 245" version="1.1" xmlns="http://www.w3.org/2000/svg" xmlns:xlink="http://www.w3.org/1999/xlink">
    <!-- Generator: Sketch 54 (76480) - https://sketchapp.com -->
    <title>Stadslab_logo_definitief-02</title>
    <desc>Created with Sketch.</desc>
    <g id="Page-1" stroke="none" stroke-width="1" fill="none" fill-rule="evenodd">
        <g id="Home" transform="translate(-442.000000, -779.000000)">
            <g id="Stadslab_logo_definitief-02" transform="translate(442.000000, 779.000000)">
                <path d="M83.028,244.874 L0.511,162.361 L0.511,83.093 L83.028,0.578 L161.951,79.503 L158.429,83.025 L155.287,83.025 L86.633,14.365 L86.633,83.022 L83.028,83.022 L83.034,3.636 L3.635,83.025 L83.034,162.412 L158.361,87.085 L158.361,162.361 L161.951,165.951 L83.028,244.874 M120.816,127.819 L86.633,162.005 L86.633,231.087 L155.355,162.361 L120.816,127.819 M45.239,127.819 L10.697,162.361 L79.428,231.087 L79.428,162.005 L45.239,127.819 M158.336,90.296 L125.906,122.726 L158.336,155.157 L158.336,90.296 M7.716,90.296 L7.716,155.157 L40.146,122.726 L7.716,90.296" id="Fill-18" fill="#D3BC9E"></path>
                <path d="M240.88,244.874 L161.951,165.951 L165.541,162.361 L165.541,83.093 L165.481,83.033 L168.607,83.033 L168.547,83.093 L203.092,117.633 L237.278,83.447 L237.278,83.037 L240.871,83.037 L240.871,90.04 L208.182,122.726 L240.871,155.411 L240.871,161.308 L316.012,86.169 L316.012,90.476 L283.759,122.726 L316.012,154.978 L316.012,162.361 L319.703,166.052 L240.88,244.874 M278.663,127.819 L244.48,162.005 L244.48,231.087 L313.207,162.361 L278.663,127.819 M203.092,127.819 L168.547,162.361 L237.278,231.087 L237.278,162.005 L203.092,127.819 M165.566,90.296 L165.566,155.157 L197.996,122.726 L165.566,90.296 M323.218,155.157 L323.218,90.296 L323.393,90.472 L323.393,154.982 L323.218,155.157 M164.039,81.591 L161.951,79.503 L240.88,0.578 L319.703,79.402 L317.61,81.495 L240.871,4.757 L164.039,81.591" id="Fill-19" fill="#D0A79C"></path>
                <polyline id="Fill-20" fill="#C39482" points="161.951 165.951 158.361 162.361 158.361 87.085 162.421 83.025 158.429 83.025 161.951 79.503 164.039 81.591 162.597 83.033 165.481 83.033 165.541 83.093 165.541 162.361 161.951 165.951"></polyline>
                <path d="M398.531,244.874 L319.703,166.052 L323.393,162.361 L323.393,154.982 L355.647,122.726 L323.393,90.472 L323.393,83.093 L319.703,79.402 L398.531,0.578 L481.039,83.093 L481.039,162.361 L398.531,244.874 M436.317,127.819 L402.131,162.005 L402.131,231.087 L470.852,162.361 L436.317,127.819 M360.737,127.819 L326.198,162.361 L394.929,231.087 L394.929,162.005 L360.737,127.819 M398.531,155.42 L398.531,161.245 L476.676,83.099 L398.531,4.807 L398.531,90.031 L365.833,122.726 L398.531,155.42 M473.837,90.296 L441.404,122.726 L473.837,155.157 L473.837,90.296 M394.929,14.365 L326.198,83.093 L360.737,117.633 L394.929,83.447 L394.929,14.365 M316.191,155.157 L316.012,154.978 L316.012,90.476 L316.191,90.296 L316.191,155.157" id="Fill-21" fill="#EDA09F"></path>
                <polyline id="Fill-22" fill="#D36E6B" points="319.703 166.052 316.012 162.361 316.012 154.978 316.191 155.157 316.191 90.296 316.012 90.476 316.012 86.169 319.147 83.033 317.61 81.495 319.703 79.402 323.393 83.093 323.393 90.472 323.218 90.296 323.218 155.157 323.393 154.982 323.393 162.361 319.703 166.052"></polyline>
                <path d="M83.028,155.42 L50.332,122.726 L83.028,90.031 L115.72,122.726 L83.028,155.42 M120.816,117.633 L86.633,83.447 L86.633,83.022 L155.287,83.025 L155.355,83.093 L120.816,117.633 M45.239,117.633 L10.697,83.093 L79.428,14.365 L79.428,83.447 L45.239,117.633" id="Fill-23" fill="#C59C71"></path>
                <path d="M83.034,162.412 L3.635,83.025 L83.034,3.636 L83.028,83.022 L86.633,83.022 L86.633,83.447 L120.816,117.633 L155.355,83.093 L155.287,83.025 L158.429,83.025 L158.361,83.093 L158.361,87.085 L83.034,162.412 M83.028,90.031 L50.332,122.726 L83.028,155.42 L115.72,122.726 L83.028,90.031 M79.428,14.365 L10.697,83.093 L45.239,117.633 L79.428,83.447 L79.428,14.365" id="Fill-24" fill="#BB8D5D"></path>
                <polyline id="Fill-25" fill="#B88356" points="158.361 87.085 158.361 83.093 158.429 83.025 162.421 83.025 158.361 87.085"></polyline>
                <path d="M240.88,155.42 L240.871,155.411 L240.871,90.04 L240.88,90.031 L273.572,122.726 L240.88,155.42 M278.663,117.633 L244.48,83.447 L244.48,14.365 L313.207,83.093 L278.663,117.633 M237.278,83.037 L168.607,83.033 L237.278,14.365 L237.278,83.037" id="Fill-26" fill="#9A4F53"></path>
                <path d="M240.871,161.308 L240.871,155.411 L240.88,155.42 L273.572,122.726 L240.88,90.031 L240.871,90.04 L240.871,83.037 L237.278,83.037 L237.278,14.365 L168.607,83.033 L165.481,83.033 L164.039,81.591 L240.871,4.757 L317.61,81.495 L316.012,83.093 L316.012,86.169 L240.871,161.308 M244.48,14.365 L244.48,83.447 L278.663,117.633 L313.207,83.093 L244.48,14.365" id="Fill-27" fill="#8E3A3E"></path>
                <polyline id="Fill-28" fill="#8B3638" points="165.481 83.033 162.597 83.033 164.039 81.591 165.481 83.033"></polyline>
                <polyline id="Fill-29" fill="#8F2F34" points="316.012 86.169 316.012 83.093 317.61 81.495 319.147 83.033 316.012 86.169"></polyline>
                <path d="M398.531,155.42 L398.531,90.031 L431.218,122.726 L398.531,155.42 M436.317,117.633 L402.131,83.447 L402.131,14.365 L470.852,83.093 L436.317,117.633" id="Fill-30" fill="#DF5356"></path>
                <path d="M398.531,161.245 L398.531,155.42 L431.218,122.726 L398.531,90.031 L398.531,4.807 L476.676,83.099 L398.531,161.245 M402.131,14.365 L402.131,83.447 L436.317,117.633 L470.852,83.093 L402.131,14.365" id="Fill-31" fill="#DD3D43"></path>
            </g>
        </g>
    </g>
</svg>