
<svg width="506px" height="148px" viewBox="0 0 506 148" version="1.1" xmlns="http://www.w3.org/2000/svg" xmlns:xlink="http://www.w3.org/1999/xlink">
    <defs>
        <polygon id="path-1" points="0.0005 0.2927 72.6525 0.2927 72.6525 82 0.0005 82"></polygon>
    </defs>
    <g id="Second_Draft" stroke="none" stroke-width="1" fill="none" fill-rule="evenodd">
        <g id="Home" transform="translate(-464.000000, -872.000000)">
            <g id="Group-42" transform="translate(464.000000, 871.000000)">
                <g id="Group-18" transform="translate(0.000000, 0.361000)">
                    <path d="M144.2194,91.0383 L144.2194,124.0413 L144.2194,124.0433 C144.2194,125.0603 143.6744,126.0023 142.7934,126.5113 L114.2054,143.0193 L114.2054,143.0173 L114.2114,108.3623 L144.2194,91.0363 L144.2194,91.0383 Z M112.1024,104.7153 L82.0934,87.3903 L85.8644,85.2133 L110.6784,70.8833 C111.1214,70.6323 111.6134,70.5063 112.1044,70.5063 C112.5954,70.5063 113.0864,70.6323 113.5304,70.8833 L142.1154,87.3913 L142.1154,87.3913 L142.1174,87.3923 L112.1024,104.7153 Z M109.9944,143.0153 L81.4154,126.5113 C80.5344,126.0023 79.9894,125.0603 79.9894,124.0433 L79.9894,92.8643 L79.9894,91.0303 L109.9984,108.3623 L109.9984,110.7933 L109.9994,110.7933 L109.9984,114.2263 L109.9994,143.0143 L109.9944,143.0113 L109.9944,143.0153 Z M144.9024,84.1343 L115.6334,67.2343 C113.4584,65.9763 110.7504,65.9763 108.5754,67.2343 L79.3064,84.1343 C77.1324,85.3923 75.7784,87.7343 75.7784,90.2503 L75.7784,124.0433 C75.7784,126.5593 77.1324,128.9013 79.3064,130.1593 L108.5754,147.0593 C109.6604,147.6873 110.8824,147.9993 112.1044,147.9993 C113.3264,147.9993 114.5484,147.6873 115.6334,147.0593 L144.9024,130.1593 C147.0764,128.9013 148.4304,126.5593 148.4304,124.0433 L148.4304,90.2503 C148.4304,87.7343 147.0764,85.3923 144.9024,84.1343 L144.9024,84.1343 Z" id="Fill-1" fill="#813CFF"></path>
                    <path d="M76.2692,77.3664 L76.2692,45.1394 L76.3222,45.1704 L76.3222,42.7094 L78.4032,41.5084 L78.3802,41.4954 L106.2812,25.3864 L106.2812,25.4124 L106.3312,25.3834 L106.3312,58.3874 C106.3312,59.4054 105.7862,60.3454 104.9052,60.8554 L76.3172,77.3644 L76.3172,77.3394 L76.2692,77.3664 Z M74.1672,39.0594 L44.1572,21.7374 L72.7402,5.2304 C73.1842,4.9794 73.6752,4.8534 74.1662,4.8534 C74.1742,4.8534 74.1812,4.8564 74.1892,4.8564 C74.6892,4.8524 75.1902,4.9764 75.6382,5.2354 L104.2282,21.7384 L74.2142,39.0614 L74.1882,39.0474 L74.1672,39.0594 Z M72.0582,77.3634 L43.4772,60.8584 C42.5962,60.3494 42.0512,59.4094 42.0512,58.3904 L42.0512,25.3874 L42.1012,25.4154 L42.1012,25.3774 L72.1102,42.7094 L72.1112,77.3604 L72.0582,77.3304 L72.0582,77.3634 Z M106.9642,64.5074 C109.1382,63.2494 110.4922,60.9064 110.4922,58.3904 L110.4922,24.5974 C110.4922,22.0824 109.1382,19.7404 106.9642,18.4814 L77.6942,1.5834 C75.5192,0.3244 72.8122,0.3244 70.6372,1.5834 L41.3682,18.4814 C39.1932,19.7404 37.8392,22.0824 37.8392,24.5974 L37.8392,58.3904 C37.8392,60.9064 39.1932,63.2494 41.3682,64.5074 L70.6372,81.4064 C71.7222,82.0354 72.9442,82.3464 74.1662,82.3464 C75.3882,82.3464 76.6102,82.0354 77.6942,81.4064 L106.9642,64.5074 Z" id="Fill-3" fill="#00EEFF"></path>
                    <g id="Group-7" transform="translate(0.000000, 66.000000)">
                        <mask id="mask-2" fill="white">
                            <use xlink:href="#path-1"></use>
                        </mask>
                        <g id="Clip-6"></g>
                        <path d="M68.4415,58.0412 L68.4415,58.0412 L68.4415,58.0442 C68.4415,59.0622 67.8965,60.0032 67.0155,60.5122 L38.4345,77.0182 L38.4345,77.0142 L38.4275,77.0182 L38.4335,42.3622 L68.4415,25.0362 L68.4415,58.0412 Z M36.3245,38.7152 L6.3155,21.3902 L18.6375,14.2762 L34.9005,4.8842 C35.0535,4.7972 35.2185,4.7452 35.3815,4.6882 C35.4535,4.6632 35.5215,4.6212 35.5955,4.6022 C35.6045,4.5992 35.6145,4.6002 35.6245,4.5982 C35.8545,4.5392 36.0895,4.5072 36.3255,4.5072 L36.3265,4.5072 C36.8175,4.5072 37.3085,4.6332 37.7525,4.8842 L62.8225,19.3622 L66.3395,21.3922 L36.3245,38.7152 Z M34.2215,77.0142 L34.2175,77.0122 L34.2175,77.0172 L5.6365,60.5122 C4.7565,60.0032 4.2115,59.0622 4.2115,58.0442 L4.2115,26.2762 L4.2115,25.0302 L34.2205,42.3622 L34.2205,42.3642 L34.2225,42.3652 L34.2205,54.4932 L34.2215,77.0142 Z M69.1245,18.1352 L39.8545,1.2362 C37.6805,-0.0218 34.9725,-0.0218 32.7975,1.2362 L3.5285,18.1352 C1.3535,19.3942 0.0005,21.7352 0.0005,24.2522 L0.0005,58.0442 C0.0005,60.5602 1.3535,62.9022 3.5285,64.1602 L32.7975,81.0602 C33.8825,81.6882 35.1045,82.0002 36.3265,82.0002 C37.5485,82.0002 38.7705,81.6882 39.8545,81.0602 L69.1245,64.1602 C71.2985,62.9022 72.6525,60.5602 72.6525,58.0442 L72.6525,24.2522 C72.6525,21.7352 71.2985,19.3942 69.1245,18.1352 L69.1245,18.1352 Z" id="Fill-5" fill="#CF0245" mask="url(#mask-2)"></path>
                    </g>
                    <path d="M35.3815,70.6887 C35.4535,70.6637 35.5215,70.6207 35.5955,70.6017 C35.5215,70.6217 35.4535,70.6637 35.3815,70.6887" id="Fill-8" fill="#2A1536"></path>
                    <path d="M35.6241,70.5978 C35.8541,70.5388 36.0891,70.5068 36.3251,70.5068 C36.0891,70.5068 35.8541,70.5388 35.6241,70.5978" id="Fill-10" fill="#2A1536"></path>
                    <polygon id="Fill-12" fill="#2A1536" points="34.2208 108.3644 34.2208 108.3624 4.2108 91.0304 4.2118 92.2764 4.2118 91.0404"></polygon>
                    <polygon id="Fill-14" fill="#2A1536" points="34.2218 143.0139 34.2208 120.4929 34.2178 143.0119"></polygon>
                    <path d="M185.7755,100.0471 C185.7755,101.0661 185.2305,102.0121 184.3495,102.5221 L156.1825,118.7791 C156.1465,118.8041 156.0445,118.8631 155.9065,118.7791 C155.7695,118.7011 155.7695,118.5881 155.7695,118.5401 L155.7695,86.0181 C155.7695,85.4921 155.6965,84.9791 155.5845,84.4771 L185.7755,67.0471 L185.7755,100.0471 Z M153.6575,80.7231 L151.5515,79.5071 L139.0195,72.2711 L124.0675,63.6371 C124.0315,63.6131 123.9295,63.5591 123.9295,63.3981 C123.9295,63.2351 124.0315,63.1761 124.0675,63.1581 L152.2345,46.8941 C153.1155,46.3851 154.2055,46.3851 155.0865,46.8941 L183.6725,63.3961 L155.7695,79.5041 L153.6575,80.7231 Z M186.4525,60.1391 L157.1945,43.2451 C155.0145,41.9871 152.3065,41.9871 150.1265,43.2451 L121.9645,59.5101 C120.5565,60.3181 119.7185,61.7741 119.7185,63.3981 C119.7185,65.0211 120.5565,66.4771 121.9645,67.2851 L150.1265,83.5491 C151.0065,84.0531 151.5575,85.0051 151.5575,86.0181 L151.5575,118.5401 C151.5575,120.1631 152.3965,121.6191 153.7975,122.4281 C154.5045,122.8351 155.2715,123.0391 156.0445,123.0391 C156.8175,123.0391 157.5845,122.8351 158.2915,122.4281 L186.4525,106.1701 C188.6325,104.9111 189.9865,102.5641 189.9865,100.0471 L189.9865,66.2611 C189.9865,63.7451 188.6325,61.3971 186.4525,60.1391 L186.4525,60.1391 Z" id="Fill-16" fill="#FFCE00"></path>
                </g>
                <text id="Stadslab" font-family="WorkSans-SemiBold, Work Sans SemiBold" font-size="58" font-weight="500" fill="#2A1536">
                    <tspan x="220.061" y="58.7197443">S</tspan>
                    <tspan x="257.355" y="58.7197443" letter-spacing="0.29">t</tspan>
                    <tspan x="282.817" y="58.7197443" letter-spacing="-0.1218">a</tspan>
                    <tspan x="315.8712" y="58.7197443">ds</tspan>
                    <tspan x="383.1512" y="58.7197443" letter-spacing="0.058">l</tspan>
                    <tspan x="401.7692" y="58.7197443">ab</tspan>
                </text>
                <g id="Group-41" transform="translate(34.000000, 41.361000)" fill="#2A1536">
                    <text id="Rotterdam" font-family="WorkSans-Regular, Work Sans" font-size="58" font-weight="normal" letter-spacing="-0.986">
                        <tspan x="185.061" y="72.8372443">R</tspan>
                        <tspan x="221.659" y="72.8372443" letter-spacing="-0.522">o</tspan>
                        <tspan x="255.879" y="72.8372443" letter-spacing="-3.712">t</tspan>
                        <tspan x="272.757" y="72.8372443">te</tspan>
                        <tspan x="330.757" y="72.8372443" letter-spacing="-0.928">r</tspan>
                        <tspan x="352.565" y="72.8372443">dam</tspan>
                    </text>
                    <path d="M16.9532,11.4641 L12.5262,14.0221 C11.5202,14.6031 11.1722,15.8911 11.7532,16.8971 C12.1432,17.5741 12.8492,17.9511 13.5802,17.9511 C13.9402,17.9511 14.2992,17.8611 14.6292,17.6701 L19.0622,15.1111 C20.0682,14.5301 20.4162,13.2421 19.8342,12.2361 C19.2472,11.2301 17.9592,10.8831 16.9532,11.4641" id="Fill-20"></path>
                    <path d="M28.5616,4.7648 L23.0806,7.9278 C22.0736,8.5088 21.7266,9.7968 22.3076,10.8038 C22.6966,11.4808 23.4036,11.8578 24.1346,11.8578 C24.4946,11.8578 24.8536,11.7678 25.1836,11.5768 L30.6646,8.4128 C31.6706,7.8318 32.0186,6.5438 31.4366,5.5318 C30.8556,4.5258 29.5676,4.1838 28.5616,4.7648" id="Fill-21"></path>
                    <path d="M67.8087,14.0217 L63.3817,11.4637 C62.3747,10.8827 61.0867,11.2297 60.4997,12.2367 C59.9187,13.2427 60.2667,14.5307 61.2727,15.1117 L65.7057,17.6697 C66.0357,17.8617 66.3947,17.9517 66.7537,17.9517 C67.4787,17.9517 68.1917,17.5747 68.5807,16.8967 C69.1627,15.8907 68.8147,14.6027 67.8087,14.0217" id="Fill-22"></path>
                    <path d="M57.2545,7.9279 L51.7735,4.7649 C50.7665,4.1839 49.4785,4.5259 48.8975,5.5319 C48.3165,6.5439 48.6645,7.8319 49.6705,8.4129 L55.1515,11.5759 C55.4815,11.7679 55.8405,11.8579 56.2005,11.8579 C56.9245,11.8579 57.6375,11.4809 58.0265,10.8039 C58.6085,9.7969 58.2605,8.5089 57.2545,7.9279" id="Fill-23"></path>
                    <path d="M78.1017,42.6672 C79.2637,42.6672 80.2107,41.7272 80.2107,40.5592 L80.2107,35.4482 C80.2107,34.2802 79.2637,33.3402 78.1017,33.3402 C76.9397,33.3402 75.9937,34.2802 75.9937,35.4482 L75.9937,40.5592 C75.9937,41.7272 76.9397,42.6672 78.1017,42.6672" id="Fill-24"></path>
                    <path d="M78.1017,56.0666 C79.2637,56.0666 80.2107,55.1266 80.2107,53.9586 L80.2107,47.6316 C80.2107,46.4696 79.2637,45.5296 78.1017,45.5296 C76.9397,45.5296 75.9937,46.4696 75.9937,47.6316 L75.9937,53.9586 C75.9937,55.1266 76.9397,56.0666 78.1017,56.0666" id="Fill-25"></path>
                    <path d="M54.8878,77.1174 L50.4608,79.6764 C49.4538,80.2574 49.1068,81.5454 49.6878,82.5514 C50.0768,83.2274 50.7838,83.6054 51.5148,83.6054 C51.8738,83.6054 52.2338,83.5154 52.5628,83.3234 L56.9958,80.7654 C58.0028,80.1844 58.3498,78.8964 57.7688,77.8904 C57.1818,76.8844 55.8938,76.5364 54.8878,77.1174" id="Fill-26"></path>
                    <path d="M66.4957,70.4191 L61.0147,73.5821 C60.0087,74.1631 59.6607,75.4511 60.2417,76.4571 C60.6307,77.1341 61.3437,77.5121 62.0687,77.5121 C62.4287,77.5121 62.7877,77.4221 63.1177,77.2311 L68.5987,74.0671 C69.6047,73.4861 69.9527,72.1981 69.3707,71.1861 C68.7897,70.1801 67.5017,69.8381 66.4957,70.4191" id="Fill-27"></path>
                    <path d="M80.2106,62.4973 L80.2106,61.0353 C80.2106,59.8673 79.2636,58.9273 78.1016,58.9273 C76.9396,58.9273 75.9936,59.8673 75.9936,61.0353 L75.9936,62.4923 L78.1026,63.7153 L80.2106,62.4973 Z" id="Fill-28"></path>
                    <path d="M73.8917,66.1467 L72.6207,66.8817 C71.6137,67.4627 71.2667,68.7507 71.8477,69.7567 C72.2367,70.4337 72.9437,70.8117 73.6747,70.8117 C74.0337,70.8117 74.3927,70.7217 74.7227,70.5297 L75.9987,69.7927 L75.9987,67.3627 L73.8917,66.1467 Z" id="Fill-29"></path>
                    <path d="M44.5948,5.1584 C45.3198,5.1584 46.0318,4.7804 46.4218,4.1034 C47.0028,3.0964 46.6558,1.8094 45.6488,1.2284 L44.4028,0.5084 L42.3228,1.7094 L42.3228,4.1704 L43.5468,4.8764 C43.8758,5.0684 44.2358,5.1584 44.5948,5.1584" id="Fill-30"></path>
                    <path d="M38.11,1.7092 L35.955,0.4952 L34.686,1.2292 C33.679,1.8102 33.332,3.0972 33.913,4.1042 C34.302,4.7802 35.009,5.1582 35.74,5.1582 C36.1,5.1582 36.459,5.0682 36.788,4.8762 L38.058,4.1442 L38.11,1.7092 Z" id="Fill-31"></path>
                    <path d="M2.3278,42.6662 C3.4898,42.6662 4.4358,41.7262 4.4358,40.5582 L4.4358,35.4472 C4.4358,34.2792 3.4898,33.3392 2.3278,33.3392 C1.1648,33.3392 0.2188,34.2792 0.2188,35.4472 L0.2188,40.5582 C0.2188,41.7262 1.1648,42.6662 2.3278,42.6662" id="Fill-32"></path>
                    <path d="M2.3278,56.0666 C3.4898,56.0666 4.4358,55.1266 4.4358,53.9586 L4.4358,47.6316 C4.4358,46.4696 3.4898,45.5296 2.3278,45.5296 C1.1648,45.5296 0.2188,46.4696 0.2188,47.6316 L0.2188,53.9586 C0.2188,55.1266 1.1648,56.0666 2.3278,56.0666" id="Fill-33"></path>
                    <path d="M29.9689,79.675 L25.5419,77.117 C24.5349,76.536 23.2479,76.883 22.6599,77.89 C22.0789,78.897 22.4269,80.184 23.4329,80.765 L27.8659,83.323 C28.1959,83.515 28.5549,83.605 28.9149,83.605 C29.6389,83.605 30.3519,83.228 30.7419,82.55 C31.3229,81.544 30.9749,80.256 29.9689,79.675" id="Fill-34"></path>
                    <path d="M19.4142,73.5822 L13.9332,70.4192 C12.9262,69.8382 11.6392,70.1802 11.0582,71.1862 C10.4762,72.1982 10.8242,73.4862 11.8302,74.0672 L17.3112,77.2302 C17.6412,77.4222 18.0002,77.5122 18.3602,77.5122 C19.0842,77.5122 19.7972,77.1342 20.1872,76.4572 C20.7682,75.4512 20.4202,74.1632 19.4142,73.5822" id="Fill-35"></path>
                    <path d="M4.4347,69.7961 L5.7067,70.5291 C6.0367,70.7221 6.3957,70.8121 6.7547,70.8121 C7.4797,70.8121 8.1927,70.4341 8.5817,69.7571 C9.1637,68.7511 8.8157,67.4631 7.8097,66.8821 L6.5397,66.1491 L4.4337,67.3621 L4.4347,69.7961 Z" id="Fill-36"></path>
                    <path d="M4.4362,62.4953 L4.4362,61.0353 C4.4362,59.8663 3.4902,58.9263 2.3282,58.9263 C1.1652,58.9263 0.2192,59.8663 0.2192,61.0353 L0.2192,62.4953 L2.3242,63.7153 L4.4362,62.4953 Z" id="Fill-37"></path>
                    <path d="M119.6603,18.674 C120.8223,18.674 121.7693,17.734 121.7693,16.565 L121.7693,11.455 C121.7693,10.287 120.8223,9.347 119.6603,9.347 C118.4983,9.347 117.5523,10.287 117.5523,11.455 L117.5523,16.565 C117.5523,17.734 118.4983,18.674 119.6603,18.674" id="Fill-38"></path>
                    <path d="M119.6603,32.0734 C120.8223,32.0734 121.7693,31.1334 121.7693,29.9654 L121.7693,23.6384 C121.7693,22.4764 120.8223,21.5364 119.6603,21.5364 C118.4983,21.5364 117.5523,22.4764 117.5523,23.6384 L117.5523,29.9654 C117.5523,31.1334 118.4983,32.0734 119.6603,32.0734" id="Fill-39"></path>
                    <path d="M121.7692,37.0422 C121.7692,35.8742 120.8222,34.9342 119.6602,34.9342 C118.4982,34.9342 117.5522,35.8742 117.5522,37.0422 L117.5522,38.5072 L119.6572,39.7232 L121.7692,38.5042 L121.7692,37.0422 Z" id="Fill-40"></path>
                </g>
            </g>
        </g>
    </g>
</svg>