<?xml version="1.0" encoding="UTF-8"?>
<svg width="497px" height="246px" viewBox="0 0 497 246" version="1.1" xmlns="http://www.w3.org/2000/svg" xmlns:xlink="http://www.w3.org/1999/xlink">
    <!-- Generator: Sketch 54.1 (76490) - https://sketchapp.com -->
    <title>Group 65</title>
    <desc>Created with Sketch.</desc>
    <defs>
        <polygon id="path-1" points="0.652384 0.515136 37.281344 0.515136 37.281344 37 0.652384 37"></polygon>
        <polygon id="path-3" points="0.623727273 0.420331651 95.0007727 0.420331651 95.0007727 108.645521 0.623727273 108.645521"></polygon>
    </defs>
    <g id="Second_Draft" stroke="none" stroke-width="1" fill="none" fill-rule="evenodd">
        <g id="Home" transform="translate(-460.000000, -799.000000)">
            <g id="Group-65" transform="translate(460.000000, 799.000000)">
                <path d="M30.9629088,119.108187 C34.0120816,120.515642 36.6891112,122.737623 39,125.780121 L32.4154675,132.206499 C31.2150058,129.717999 29.624394,127.864352 27.640631,126.645556 C25.6508657,125.420771 23.1358984,124.809876 20.0867257,124.809876 C17.3166603,124.809876 15.1798384,125.330933 13.6792613,126.36706 C12.1786841,127.40618 11.4283955,128.7777 11.4283955,130.478624 C11.4283955,132.044791 12.1906887,133.290538 13.7152751,134.21287 C15.2398615,135.135202 17.9859177,135.937751 21.9564448,136.632494 C26.1160446,137.414081 29.4143132,138.384326 31.8632551,139.534247 C34.3091958,140.687162 36.100885,142.127557 37.2323201,143.855432 C38.3637553,145.583307 38.9279723,147.736413 38.9279723,150.317745 C38.9279723,153.126665 38.1326664,155.558267 36.5390535,157.606563 C34.9454406,159.657853 32.7305887,161.235999 29.8914967,162.343995 C27.0494036,163.448996 23.8021547,164 20.1557522,164 C15.1228165,164 11.0022316,163.299267 7.79099654,161.891813 C4.5827626,160.487353 1.98376299,158.355209 0,155.498375 L5.67818392,148.72762 C7.38884186,151.53654 9.35159677,153.48302 11.5664486,154.56706 C13.7843017,155.651099 16.5303578,156.193119 19.8106195,156.193119 C22.7667564,156.193119 25.0176222,155.728958 26.5632166,154.809621 C28.1118122,153.887289 28.88611,152.575661 28.88611,150.868748 C28.88611,149.623001 28.1568295,148.589869 26.7012697,147.757375 C25.248711,146.927875 22.6497114,146.146289 18.9102732,145.409621 C14.6156214,144.532208 11.185302,143.499076 8.62531743,142.298248 C6.05933051,141.100414 4.20161601,139.627079 3.0461716,137.875247 C1.8907272,136.12641 1.31450558,133.958331 1.31450558,131.379994 C1.31450558,128.657917 2.05278953,126.205352 3.5323586,124.016311 C5.01192766,121.82727 7.16675644,120.111373 10.0088496,118.868621 C12.8479415,117.622874 16.1852251,117 20.0207003,117 C24.2673336,117 27.9137361,117.703727 30.9629088,119.108187" id="Fill-1" fill="#231F20"></path>
                <path d="M69,161.218011 C67.9042448,162.079663 66.5271471,162.756045 64.8657453,163.253039 C63.1984205,163.752973 61.4570582,164 59.6357354,164 C52.0246792,164 48.2161895,160.58574 48.2161895,153.75134 L48.2161895,136.306561 L42,136.306561 L42,129.383937 L48.2161895,129.383937 L48.2161895,121.579075 L57.5863771,119 L57.5863771,129.383937 L68.6564659,129.383937 L68.6564659,136.306561 L57.5863771,136.306561 L57.5863771,152.257417 C57.5863771,155.383479 59.1559724,156.942099 62.2981244,156.942099 C64.3060217,156.942099 66.05923,156.309829 67.5636723,155.042347 L69,161.218011 Z" id="Fill-3" fill="#231F20"></path>
                <path d="M93.2055772,157.072321 C94.8847207,156.079487 95.7242925,154.732711 95.7242925,153.019997 L95.7242925,149.420597 L88.3444269,151.085319 C86.7818076,151.454258 85.6225413,151.949175 84.8636401,152.573071 C84.104739,153.196967 83.7252884,154.060823 83.7252884,155.167639 C83.7252884,156.274454 84.0688854,157.120313 84.7590671,157.696217 C85.4462611,158.272121 86.4143082,158.560073 87.657233,158.560073 C89.6769856,158.560073 91.5264337,158.065156 93.2055772,157.072321 M110,158.284119 L109.309818,164.028162 C108.022077,164.676054 106.528177,165 104.828119,165 C100.41215,165 97.7679475,163.266289 96.89551,159.807865 C95.8826459,161.514581 94.3200266,162.807365 92.2076521,163.683219 C90.0922898,164.559073 87.5855258,165 84.6873599,165 C81.3320608,165 78.7117603,164.238127 76.8294464,162.714381 C74.9441447,161.190635 74,159.001 74,156.136477 C74,150.509415 78.4816997,146.862023 87.448087,145.2003 L95.7242925,143.607565 L95.7242925,141.945842 C95.7242925,140.10115 95.2074031,138.634394 94.1706366,137.548575 C93.1398456,136.465756 91.6997261,135.922846 89.8622292,135.922846 C87.746867,135.922846 86.0229065,136.384769 84.6873599,137.305616 C83.3548012,138.232461 82.4375467,139.732211 81.9326085,141.807865 L74.4153042,138.622396 C75.1503029,135.622896 76.805544,133.268289 79.3810275,131.561573 C81.9535231,129.854858 85.3088223,129 89.4469251,129 C94.3678314,129 98.2071541,130.070822 100.964893,132.218464 C103.72562,134.366106 105.100008,137.536577 105.100008,141.738877 L105.100008,155.929512 C105.100008,156.856357 105.309154,157.522246 105.721471,157.939177 C106.136775,158.353108 106.779152,158.560073 107.654577,158.560073 C108.619636,158.560073 109.40244,158.470088 110,158.284119" id="Fill-5" fill="#231F20"></path>
                <path d="M135.401128,154.125401 C136.830798,152.339475 137.542642,149.804707 137.542642,146.509212 L137.542642,145.825746 C137.542642,142.577796 136.830798,140.054915 135.401128,138.245216 C133.974449,136.44146 132.018373,135.538096 129.5329,135.538096 C127.002564,135.538096 125.02256,136.453346 123.598872,138.280875 C122.169202,140.111375 121.457358,142.738262 121.457358,146.167479 C121.457358,149.599667 122.169202,152.226554 123.598872,154.057055 C125.02256,155.887555 127.002564,156.799834 129.5329,156.799834 C132.018373,156.799834 133.974449,155.908356 135.401128,154.125401 L135.401128,154.125401 Z M147,114 L147,163.316534 L138.577508,163.316534 L138.164758,156.936527 C137.150829,159.087959 135.643394,160.802567 133.642454,162.083323 C131.638523,163.361108 129.350453,164 126.772261,164 C122.169202,164 118.556144,162.436943 115.933088,159.301914 C113.310032,156.169856 112,151.816475 112,146.238797 C112,140.613574 113.310032,136.224533 115.933088,133.068703 C118.556144,129.915845 122.169202,128.334958 126.772261,128.334958 C129.257734,128.334958 131.420185,128.896589 133.262605,130.016879 C135.102034,131.137169 136.528713,132.679425 137.542642,134.646618 L137.542642,114 L147,114 Z" id="Fill-7" fill="#231F20"></path>
                <path d="M154,158.353108 L159.539904,152.675054 C160.461221,154.663723 161.793679,156.05849 163.522273,156.865356 C165.253869,157.672221 167.390603,158.077154 169.932477,158.077154 C171.961174,158.077154 173.533715,157.7982 174.641095,157.246292 C175.748476,156.691385 176.303667,155.929512 176.303667,154.960673 C176.303667,154.177804 175.784488,153.508915 174.74313,152.954008 C173.704774,152.4021 171.916159,151.871188 169.377286,151.361273 C164.06546,150.29945 160.335178,148.904683 158.18944,147.170972 C156.043703,145.44026 154.966332,143.10065 154.966332,140.146142 C154.966332,138.208465 155.566538,136.384769 156.769952,134.675054 C157.970365,132.968339 159.746976,131.594568 162.102785,130.556741 C164.455594,129.518914 167.273563,129 170.55369,129 C174.434024,129 177.570102,129.587902 179.973929,130.766706 C182.374754,131.94251 184.382444,133.7992 186,136.336777 L180.111976,141.321946 C179.094626,139.477254 177.837194,138.115481 176.336678,137.239627 C174.836162,136.363773 172.951515,135.922846 170.691738,135.922846 C168.798087,135.922846 167.285567,136.246792 166.157179,136.891685 C165.022789,137.539577 164.455594,138.322446 164.455594,139.246292 C164.455594,140.215131 165.013786,141.024996 166.121167,141.669888 C167.228547,142.314781 169.191222,142.91768 172.009191,143.469588 C177.041921,144.486419 180.607146,145.812198 182.707868,147.449925 C184.811591,149.087652 185.861953,151.361273 185.861953,154.270788 C185.861953,157.50125 184.48748,160.095817 181.738535,162.05749 C178.992591,164.022163 175.100253,165 170.067523,165 C162.354872,165 157.001032,162.786369 154,158.353108" id="Fill-9" fill="#231F20"></path>
                <path d="M202.50557,152.410793 C202.50557,154.057055 202.749072,155.198146 203.236074,155.84001 C203.720071,156.481873 204.609903,156.802805 205.908576,156.802805 C206.693192,156.802805 207.375597,156.743373 207.952785,156.630453 C208.53298,156.514561 209.212378,156.318436 210,156.048021 L209.167286,162.56175 C208.427763,163.019375 207.453758,163.372994 206.254288,163.622608 C205.051813,163.875193 203.87038,164 202.712997,164 C199.337047,164 196.874978,163.191727 195.323784,161.566266 C193.775597,159.943777 193,157.349578 193,153.783668 L193,114 L202.50557,114 L202.50557,152.410793 Z" id="Fill-11" fill="#231F20"></path>
                <path d="M232.205577,157.072321 C233.884721,156.079487 234.724292,154.732711 234.724292,153.019997 L234.724292,149.420597 L227.344427,151.085319 C225.781808,151.454258 224.622541,151.949175 223.86364,152.573071 C223.104739,153.196967 222.725288,154.060823 222.725288,155.167639 C222.725288,156.274454 223.068885,157.120313 223.759067,157.696217 C224.446261,158.272121 225.414308,158.560073 226.657233,158.560073 C228.676986,158.560073 230.526434,158.065156 232.205577,157.072321 M249,158.284119 L248.309818,164.028162 C247.022077,164.676054 245.528177,165 243.828119,165 C239.41215,165 236.767948,163.266289 235.89551,159.807865 C234.882646,161.514581 233.320027,162.807365 231.207652,163.683219 C229.09229,164.559073 226.585526,165 223.68736,165 C220.332061,165 217.71176,164.238127 215.829446,162.714381 C213.944145,161.190635 213,159.001 213,156.136477 C213,150.509415 217.4817,146.862023 226.448087,145.2003 L234.724292,143.607565 L234.724292,141.945842 C234.724292,140.10115 234.207403,138.634394 233.170637,137.548575 C232.139846,136.465756 230.699726,135.922846 228.862229,135.922846 C226.746867,135.922846 225.022906,136.384769 223.68736,137.305616 C222.354801,138.232461 221.437547,139.732211 220.932609,141.807865 L213.415304,138.622396 C214.150303,135.622896 215.805544,133.268289 218.381027,131.561573 C220.953523,129.854858 224.308822,129 228.446925,129 C233.367831,129 237.207154,130.070822 239.964893,132.218464 C242.72562,134.366106 244.100008,137.536577 244.100008,141.738877 L244.100008,155.929512 C244.100008,156.856357 244.309154,157.522246 244.721471,157.939177 C245.136775,158.353108 245.779152,158.560073 246.654577,158.560073 C247.619636,158.560073 248.40244,158.470088 249,158.284119" id="Fill-13" fill="#231F20"></path>
                <path d="M277.426866,154.054083 C278.850746,152.226554 279.561194,149.596696 279.561194,146.167479 C279.561194,142.735291 278.850746,140.111375 277.426866,138.277903 C276,136.450374 274.00597,135.538096 271.429851,135.538096 C269.134328,135.538096 267.274627,136.337454 265.850746,137.93617 C264.426866,139.537858 263.623881,141.778438 263.438806,144.65791 L263.438806,147.677047 C263.623881,150.604065 264.426866,152.856532 265.850746,154.431475 C267.274627,156.00939 269.134328,156.799834 271.429851,156.799834 C274.00597,156.799834 276,155.884583 277.426866,154.054083 M285.074627,133.068703 C287.689552,136.221562 289,140.613574 289,146.235826 C289,151.813503 287.689552,156.169856 285.074627,159.301914 C282.456716,162.433971 278.850746,164 274.256716,164 C271.546269,164 269.191045,163.325449 267.19403,161.976346 C265.19403,160.630215 263.689552,158.811601 262.683582,156.523476 L262.337313,163.313562 L254,163.313562 L254,114 L263.438806,114 L263.438806,134.646618 C264.495522,132.679425 265.940299,131.134197 267.78209,130.013907 C269.61791,128.893617 271.776119,128.334958 274.256716,128.334958 C278.850746,128.334958 282.456716,129.912873 285.074627,133.068703" id="Fill-15" fill="#231F20"></path>
                <path d="M12.3046287,220.591768 L21.6774341,220.591768 C24.4133921,220.591768 26.4349776,220.057109 27.7332979,218.98779 C29.0345824,217.921426 29.6807783,216.273139 29.6807783,214.045884 C29.6807783,211.818629 29.0345824,210.173297 27.7332979,209.101024 C26.4349776,208.034659 24.4133921,207.5 21.6774341,207.5 L12.3046287,207.5 L12.3046287,220.591768 Z M20.7881736,227.749114 L12.3046287,227.749114 L12.3046287,245 L3,245 L3,200 L22.9075777,200 C28.0623242,200 32.08771,201.217015 34.9837349,203.64809 C37.8797598,206.079165 39.3292544,209.499803 39.3292544,213.90705 C39.3292544,217.135683 38.5318842,219.841473 36.9371437,222.021465 C35.3394391,224.204411 33.0570039,225.772942 30.0928023,226.727058 L42,245 L31.3911226,245 L20.7881736,227.749114 Z" id="Fill-17" fill="#231F20"></path>
                <path d="M57.4504527,219.796367 C56.0583905,221.620063 55.3653211,224.358607 55.3653211,228 C55.3653211,231.647392 56.0583905,234.382936 57.4504527,236.206632 C58.842515,238.030328 60.8565626,238.942176 63.5014809,238.942176 C66.1434374,238.942176 68.1604468,238.030328 69.5525091,236.206632 C70.9416095,234.382936 71.6346789,231.647392 71.6346789,228 C71.6346789,224.358607 70.9416095,221.620063 69.5525091,219.796367 C68.1604468,217.975671 66.1434374,217.063823 63.5014809,217.063823 C60.8565626,217.063823 58.842515,217.975671 57.4504527,219.796367 M76.3884235,214.778204 C79.4657697,217.963673 81,222.369938 81,228 C81,233.633061 79.4657697,238.039327 76.3884235,241.227795 C73.3081154,244.410265 69.0134552,246 63.5014809,246 C57.9865448,246 53.6889227,244.410265 50.6145384,241.227795 C47.5371922,238.039327 46,233.633061 46,228 C46,222.369938 47.5371922,217.963673 50.6145384,214.778204 C53.6889227,211.595734 57.9865448,210 63.5014809,210 C69.0134552,210 73.3081154,211.595734 76.3884235,214.778204" id="Fill-19" fill="#231F20"></path>
                <path d="M138,243.218011 C136.845871,244.079663 135.439932,244.756045 133.779186,245.253039 C132.118439,245.752973 130.364762,246 128.521154,246 C120.819966,246 116.943891,242.58574 116.895928,235.75134 L116.895928,218.306561 L100.777093,218.306561 L100.777093,234.257417 C100.777093,235.889557 101.130826,237.074696 101.847285,237.821657 C102.563744,238.568618 103.657919,238.942099 105.135803,238.942099 C106.197002,238.942099 107.129299,238.783296 107.938688,238.468632 C108.742081,238.151026 109.515498,237.651091 110.255939,236.974709 L111.775792,243.218011 C110.714593,244.079663 109.365611,244.756045 107.728846,245.253039 C106.089084,245.752973 104.374378,246 102.575735,246 C99.0683824,246 96.3134615,245.188341 94.3079751,243.556202 C92.299491,241.929944 91.2952489,239.327343 91.2952489,235.75134 L91.2952489,218.306561 L85,218.306561 L85,211.383937 L91.2952489,211.383937 L91.2952489,203.579075 L100.777093,201 L100.777093,211.383937 L116.895928,211.383937 L116.895928,203.579075 L126.377771,201 L126.377771,211.383937 L137.65526,211.383937 L137.65526,218.306561 L126.377771,218.306561 L126.377771,234.257417 C126.377771,235.842504 126.80345,237.021762 127.657805,237.789309 C128.509163,238.559796 129.696267,238.942099 131.219118,238.942099 C133.200622,238.942099 134.954299,238.309829 136.477149,237.042347 L138,243.218011 Z" id="Fill-21" fill="#231F20"></path>
                <path d="M152.481413,219.0015 C151.164777,220.339277 150.326654,222.321946 149.969945,224.952508 L165.56657,224.952508 C165.20986,222.369938 164.363037,220.396267 163.023201,219.034494 C161.683364,217.675721 159.943317,216.991835 157.803058,216.991835 C155.569997,216.991835 153.795149,217.663723 152.481413,219.0015 M173.733193,231.5994 L150.036646,231.5994 C150.973372,236.494584 153.760348,238.939177 158.403375,238.939177 C160.323227,238.939177 161.90667,238.570238 163.156604,237.829362 C164.403638,237.094484 165.276562,236.032661 165.766675,234.646892 L173.26338,237.484419 C172.193251,240.255957 170.398102,242.367605 167.877933,243.819363 C165.351964,245.274121 162.196678,246 158.403375,246 C152.870024,246 148.586607,244.422263 145.550224,241.25779 C142.516741,238.096317 141,233.678054 141,228 C141,222.321946 142.47324,217.906682 145.41682,214.74221 C148.363301,211.580737 152.513314,210 157.86686,210 C163.046401,210 167.02821,211.547742 169.818086,214.640227 C172.605062,217.729712 174,222.138977 174,227.862023 C174,229.154808 173.912998,230.4026 173.733193,231.5994" id="Fill-23" fill="#231F20"></path>
                <path d="M206,210.755182 L204.837876,218.990826 C203.791077,218.304027 202.359861,217.962113 200.538313,217.962113 C198.308691,217.962113 196.386603,218.773785 194.772049,220.397129 C193.154538,222.020472 192.350219,224.29791 192.350219,227.22647 L192.350219,245 L183,245 L183,210.686799 L191.120082,210.686799 L191.73515,217.41208 C193.601054,212.470693 197.125868,210 202.312548,210 C203.906403,210 205.133582,210.252718 206,210.755182" id="Fill-25" fill="#231F20"></path>
                <path d="M231.401128,236.125401 C232.830798,234.339475 233.542642,231.804707 233.542642,228.509212 L233.542642,227.825746 C233.542642,224.577796 232.830798,222.054915 231.401128,220.245216 C229.974449,218.44146 228.018373,217.538096 225.5329,217.538096 C223.002564,217.538096 221.02256,218.453346 219.598872,220.280875 C218.169202,222.111375 217.457358,224.738262 217.457358,228.167479 C217.457358,231.599667 218.169202,234.226554 219.598872,236.057055 C221.02256,237.887555 223.002564,238.799834 225.5329,238.799834 C228.018373,238.799834 229.974449,237.908356 231.401128,236.125401 L231.401128,236.125401 Z M243,196 L243,245.316534 L234.577508,245.316534 L234.164758,238.936527 C233.150829,241.087959 231.643394,242.802567 229.642454,244.083323 C227.638523,245.361108 225.350453,246 222.772261,246 C218.169202,246 214.556144,244.436943 211.933088,241.301914 C209.310032,238.169856 208,233.816475 208,228.238797 C208,222.613574 209.310032,218.224533 211.933088,215.068703 C214.556144,211.915845 218.169202,210.334958 222.772261,210.334958 C225.257734,210.334958 227.420185,210.896589 229.262605,212.016879 C231.102034,213.137169 232.528713,214.679425 233.542642,216.646618 L233.542642,196 L243,196 Z" id="Fill-27" fill="#231F20"></path>
                <g id="Group-31" transform="translate(251.000000, 209.000000)">
                    <mask id="mask-2" fill="white">
                        <use xlink:href="#path-1"></use>
                    </mask>
                    <g id="Clip-30"></g>
                    <path d="M20.193504,28.966496 C21.901984,27.960256 22.756224,26.595296 22.756224,24.859456 L22.756224,21.211456 L15.247424,22.898656 C13.657504,23.272576 12.477984,23.774176 11.705824,24.406496 C10.933664,25.038816 10.547584,25.914336 10.547584,27.036096 C10.547584,28.157856 10.897184,29.015136 11.599424,29.598816 C12.298624,30.182496 13.283584,30.474336 14.548224,30.474336 C16.603264,30.474336 18.485024,29.972736 20.193504,28.966496 M37.281344,30.194656 L36.579104,36.016256 C35.268864,36.672896 33.748864,37.001216 32.019104,37.001216 C27.525984,37.001216 24.835584,35.244096 23.947904,31.738976 C22.917344,33.468736 21.327424,34.778976 19.178144,35.666656 C17.025824,36.554336 14.475264,37.001216 11.526464,37.001216 C8.112544,37.001216 5.446464,36.229056 3.531264,34.684736 C1.613024,33.140416 0.652384,30.921216 0.652384,28.018016 C0.652384,22.314976 5.212384,18.618336 14.335424,16.934176 L22.756224,15.319936 L22.756224,13.635776 C22.756224,11.766176 22.230304,10.279616 21.175424,9.179136 C20.126624,8.081696 18.661344,7.531456 16.791744,7.531456 C14.639424,7.531456 12.885344,7.999616 11.526464,8.932896 C10.170624,9.872256 9.237344,11.392256 8.723584,13.495936 L1.074944,10.267456 C1.822784,7.227456 3.506944,4.841056 6.127424,3.111296 C8.744864,1.381536 12.158784,0.515136 16.369184,0.515136 C21.376064,0.515136 25.282464,1.600416 28.088384,3.777056 C30.897344,5.953696 32.295744,9.166976 32.295744,13.426016 L32.295744,27.808256 C32.295744,28.747616 32.508544,29.422496 32.928064,29.845056 C33.350624,30.264576 34.004224,30.474336 34.894944,30.474336 C35.876864,30.474336 36.673344,30.383136 37.281344,30.194656" id="Fill-29" fill="#231F20" mask="url(#mask-2)"></path>
                </g>
                <path d="M343.609905,213.225875 C345.868028,215.37844 347,218.464577 347,222.490231 L347,245 L337.798728,245 L337.798728,224.342508 C337.798728,221.963982 337.283667,220.215766 336.256453,219.094886 C335.22342,217.974006 333.815002,217.41208 332.025381,217.41208 C329.872016,217.41208 328.105674,218.214832 326.717627,219.81439 C325.329579,221.416922 324.6341,223.655708 324.6341,226.53967 L324.6341,245 L315.432829,245 L315.432829,224.342508 C315.432829,221.963982 314.920677,220.215766 313.887643,219.094886 C312.86043,217.974006 311.425823,217.41208 309.592553,217.41208 C307.575955,217.41208 305.841623,218.199966 304.386647,219.778712 C302.93167,221.357458 302.204182,223.700306 302.204182,226.813201 L302.204182,245 L293,245 L293,210.686799 L301.261357,210.686799 L301.529073,216.793663 C302.649405,214.551903 304.18295,212.860177 306.129708,211.715511 C308.079377,210.570846 310.261842,210 312.680013,210 C315.185483,210 317.414507,210.594631 319.364175,211.786867 C321.310934,212.97613 322.730991,214.688668 323.627257,216.930428 C324.703939,214.688668 326.269494,212.97613 328.329741,211.786867 C330.387078,210.594631 332.627742,210 335.045913,210 C338.491297,210 341.348871,211.07331 343.609905,213.225875" id="Fill-32" fill="#231F20"></path>
                <path d="M384.338918,60.2556288 L375.889458,65.461213 C375.037709,65.9852439 374.747879,67.1469509 375.238817,68.0497994 C375.567095,68.6590642 376.161544,69 376.776695,69 C377.078356,69 377.380017,68.9147661 377.660976,68.7411414 L386.113394,63.5355572 C386.962184,63.0146831 387.252015,61.8561328 386.761077,60.9501276 C386.270139,60.0441223 385.190666,59.7284411 384.338918,60.2556288" id="Fill-34" fill="#306F91"></path>
                <path d="M368.529808,69.2676816 L362.825055,73.2671566 C362.037151,73.8204173 361.765365,75.0435901 362.221087,76.0034641 C362.525816,76.6433801 363.080368,77 363.651393,77 C363.928669,77 364.214181,76.9133447 364.469495,76.7300354 L370.176993,72.7305604 C370.964897,72.1806326 371.233937,70.9574598 370.778216,70.0009187 C370.322495,69.0477104 369.312221,68.7144209 368.529808,69.2676816" id="Fill-36" fill="#306F91"></path>
                <path d="M400.5,39 C401.3275,39 402,38.1629251 402,37.1329184 L402,26.8701934 C402,25.8370749 401.3275,25 400.5,25 C399.6725,25 399,25.8370749 399,26.8701934 L399,37.1329184 C399,38.1629251 399.6725,39 400.5,39" id="Fill-38" fill="#306F91"></path>
                <path d="M400.5,20 C401.3275,20 402,19.1782838 402,18.1641211 L402,10.8358789 C402,9.82171619 401.3275,9 400.5,9 C399.6725,9 399,9.82171619 399,10.8358789 L399,18.1641211 C399,19.1782838 399.6725,20 400.5,20" id="Fill-40" fill="#306F91"></path>
                <g id="Group-44" transform="translate(353.000000, 0.000000)">
                    <mask id="mask-4" fill="white">
                        <use xlink:href="#path-3"></use>
                    </mask>
                    <g id="Clip-43"></g>
                    <path d="M50.4728182,102.34352 L50.4728182,56.0763068 L90.2764545,32.9471611 L90.2764545,79.2114005 L50.4728182,102.34352 Z M5.351,32.9471611 L43.3819091,55.0502614 L40.7878182,56.555128 C39.9398636,57.0517934 39.6473636,58.1432678 40.1378182,58.9968187 C40.4657727,59.5678353 41.0596364,59.8890321 41.6741818,59.8890321 C41.9755455,59.8890321 42.2828182,59.8087329 42.5575909,59.6481345 L45.1516818,58.1402938 L45.1516818,102.34352 L5.351,79.2114005 L5.351,32.9471611 Z M47.8137273,5.17850577 L87.6144091,28.3106255 L49.5835,50.4137257 L49.5835,47.3950703 C49.5835,46.4076875 48.7916818,45.6106435 47.8137273,45.6106435 C46.8357727,45.6106435 46.041,46.4076875 46.041,47.3950703 L46.041,50.4137257 L8.01009091,28.3106255 L47.8137273,5.17850577 Z M92.6371364,25.7351027 L50.1744091,1.05647981 C49.4446364,0.634165465 48.6291818,0.420034247 47.8137273,0.420034247 C46.9953182,0.420034247 46.1798636,0.634165465 45.4500909,1.05647981 L2.98736364,25.7351027 C1.52486364,26.5856795 0.623727273,28.1559751 0.623727273,29.8571287 L0.623727273,79.2114005 C0.623727273,80.9125541 1.52486364,82.4798756 2.98736364,83.3304524 L45.4500909,108.009075 C46.1798636,108.434364 46.9953182,108.645521 47.8137273,108.645521 C48.6291818,108.645521 49.4446364,108.434364 50.1744091,108.009075 L92.6371364,83.3304524 C94.1025909,82.4798756 95.0007727,80.9125541 95.0007727,79.2114005 L95.0007727,29.8571287 C95.0007727,28.1559751 94.1025909,26.5856795 92.6371364,25.7351027 L92.6371364,25.7351027 Z" id="Fill-42" fill="#306F91" mask="url(#mask-4)"></path>
                </g>
                <path d="M365.661082,146.255629 L374.110542,151.461213 C374.962291,151.985244 375.252121,153.146951 374.761183,154.049799 C374.432905,154.659064 373.838456,155 373.223305,155 C372.921644,155 372.619983,154.914766 372.339024,154.741141 L363.886606,149.535557 C363.037816,149.014683 362.747985,147.856133 363.238923,146.950128 C363.729861,146.044122 364.809334,145.728441 365.661082,146.255629" id="Fill-45" fill="#E8AE21"></path>
                <path d="M382.470192,156.267682 L388.174945,160.267157 C388.962849,160.820417 389.234635,162.04359 388.778913,163.003464 C388.474184,163.64338 387.919632,164 387.348607,164 C387.071331,164 386.785819,163.913345 386.530505,163.730035 L380.823007,159.73056 C380.035103,159.180633 379.766063,157.95746 380.221784,157.000919 C380.677505,156.04771 381.687779,155.714421 382.470192,156.267682" id="Fill-47" fill="#E8AE21"></path>
                <path d="M349.5,125 C348.6725,125 348,124.162925 348,123.132918 L348,112.870193 C348,111.837075 348.6725,111 349.5,111 C350.3275,111 351,111.837075 351,112.870193 L351,123.132918 C351,124.162925 350.3275,125 349.5,125" id="Fill-49" fill="#E8AE21"></path>
                <path d="M349.5,105 C348.6725,105 348,104.178284 348,103.164121 L348,95.8358789 C348,94.8217162 348.6725,94 349.5,94 C350.3275,94 351,94.8217162 351,95.8358789 L351,103.164121 C351,104.178284 350.3275,105 349.5,105" id="Fill-51" fill="#E8AE21"></path>
                <path d="M307.758327,164.898376 L307.758327,119.156751 L347.823441,142.027563 L347.823441,187.769188 L307.758327,164.898376 Z M393.238699,164.898376 L353.176559,187.769188 L353.176559,144.065294 L355.787691,145.556102 C356.067243,145.717827 356.376534,145.794278 356.676903,145.794278 C357.295486,145.794278 357.893251,145.47965 358.226334,144.912144 C358.72001,144.068235 358.425589,142.98909 357.572064,142.500976 L354.957958,141.010168 L393.238699,119.156751 L393.238699,164.898376 Z M390.565114,114.575531 L352.284373,136.426008 L352.284373,133.444393 C352.284373,132.468163 351.484379,131.677183 350.5,131.677183 C349.515621,131.677183 348.715627,132.468163 348.715627,133.444393 L348.715627,136.426008 L310.431912,114.575531 L350.5,91.701778 L390.565114,114.575531 Z M303,116.101624 L303,164.898376 C303,166.580313 303.907056,168.13287 305.379164,168.973838 L348.117863,193.373684 C348.855403,193.791228 349.679189,194 350.5,194 C351.320811,194 352.141623,193.791228 352.879164,193.373684 L395.620836,168.973838 C397.092944,168.13287 398,166.580313 398,164.898376 L398,116.101624 C398,114.419687 397.092944,112.870071 395.620836,112.029102 L352.879164,87.6292561 C352.141623,87.2087719 351.320811,87 350.5,87 C349.679189,87 348.855403,87.2087719 348.117863,87.6292561 L305.379164,112.029102 C303.907056,112.870071 303,114.419687 303,116.101624 L303,116.101624 Z" id="Fill-53" fill="#E8AE21"></path>
                <path d="M447.0025,155.86708 L447,166.136023 C447,167.166029 447.6725,168.003103 448.5025,167.999991 C449.0575,167.999991 449.5425,167.626575 449.8,167.066451 C449.9275,166.792613 450,166.475209 450,166.136023 L450,155.870192 C450,154.837074 449.33,154 448.5025,154 C447.675,154.003112 447,154.830851 447.0025,155.86708" id="Fill-55" fill="#EE6232"></path>
                <path d="M447.000028,175.833332 L447.000028,183.16666 C447.000028,184.178048 447.673068,185.003047 448.503735,184.999992 C449.05668,184.999992 449.54207,184.633325 449.802279,184.08027 C449.929881,183.811381 450.002439,183.499715 449.999937,183.16666 L449.999937,175.836387 C449.999937,174.821944 449.329399,174 448.501233,174 C447.673068,174.003056 446.995024,174.824999 447.000028,175.833332" id="Fill-57" fill="#EE6232"></path>
                <path d="M436.761801,133.052227 C437.252796,132.148949 436.959974,130.989847 436.111084,130.465567 L427.663598,125.254347 C426.814708,124.730067 425.729195,125.04274 425.238199,125.949176 C424.747204,126.852454 425.040026,128.011556 425.888916,128.535836 L434.33936,133.747057 C435.188249,134.268179 436.273763,133.958664 436.761801,133.052227" id="Fill-59" fill="#EE6232"></path>
                <path d="M418.778911,122.001482 C419.234637,121.044855 418.962849,119.824906 418.174936,119.271596 L412.470121,115.26843 C411.682209,114.71512 410.674669,115.045106 410.221688,116.001733 C409.765962,116.955026 410.035005,118.181642 410.825663,118.734952 L416.530478,122.731451 C417.31839,123.284761 418.32593,122.954775 418.778911,122.001482" id="Fill-61" fill="#EE6232"></path>
                <path d="M492.241673,161.839943 L452.176559,138.969916 L452.176559,93.2298624 L492.241673,116.099889 L492.241673,161.839943 Z M409.434886,166.423946 L447.715627,144.571279 L447.715627,147.555733 C447.715627,148.528988 448.515621,149.319941 449.502974,149.317001 C450.163192,149.317001 450.737165,148.964159 451.046456,148.431956 C451.198128,148.176146 451.287347,147.87329 451.284373,147.555733 L451.284373,144.57422 L489.565114,166.426886 L449.5,189.293973 L409.434886,166.423946 Z M406.758327,116.099889 L446.826415,93.2298624 L446.823441,136.935196 L444.212309,135.441499 C443.358784,134.953401 442.264369,135.244495 441.770692,136.088375 C441.27999,136.929315 441.574411,138.011363 442.427936,138.499461 L445.039068,139.987277 L406.758327,161.839943 L406.758327,116.099889 Z M447.120836,87.6284994 L404.379164,112.027507 C403.644597,112.445037 403.049806,113.044868 402.636426,113.750551 C402.226021,114.453294 402,115.25895 402,116.099889 L402,164.894965 C402,166.576844 402.907056,168.129348 404.379164,168.970287 L447.120836,193.369295 C448.592944,194.210235 450.407056,194.210235 451.879164,193.369295 L494.620836,168.970287 C495.355403,168.549818 495.950194,167.949987 496.363574,167.247243 C496.771006,166.5445 497,165.735905 497,164.894965 L497,116.099889 C497,114.41801 496.092944,112.868447 494.620836,112.027507 L451.879164,87.6284994 C450.407056,86.7905002 448.592944,86.7905002 447.120836,87.6284994 L447.120836,87.6284994 Z" id="Fill-63" fill="#EE6232"></path>
            </g>
        </g>
    </g>
</svg>