<?xml version="1.0" encoding="UTF-8"?>
<svg width="1131px" height="324px" viewBox="0 0 1131 324" version="1.1" xmlns="http://www.w3.org/2000/svg" xmlns:xlink="http://www.w3.org/1999/xlink">
    <!-- Generator: Sketch 54.1 (76490) - https://sketchapp.com -->
    <title>Labs</title>
    <desc>Created with Sketch.</desc>
    <g id="Second_Draft" stroke="none" stroke-width="1" fill="none" fill-rule="evenodd">
        <g id="Home" transform="translate(-154.000000, -1332.000000)">
            <g id="Labs" transform="translate(154.000000, 1332.000000)">
                <g id="iconmonstr-cloud-4">
                    <rect id="BG" fill="#FFFFFF" x="0" y="0" width="1131" height="324"></rect>
                    <path d="M965.375,92.1111111 C940.466833,92.1111111 920.185417,110.759111 918.867042,134.233556 C902.880708,136.971556 890.75,150.299778 890.75,166.341333 C890.75,184.372667 906.073,199 924.953125,199 L1005.79688,199 C1024.677,199 1040,184.372667 1040,166.341333 C1040,150.299778 1027.86929,136.971556 1011.88296,134.233556 C1010.56458,110.759111 990.283167,92.1111111 965.375,92.1111111 L965.375,92.1111111 Z M875.004125,157.872444 C856.215208,157.757333 841,143.195778 841,125.230222 C841,109.188667 853.130708,95.8604444 869.117042,93.1224444 C870.435417,69.648 890.716833,51 915.625,51 C934.156875,51 950.10175,61.3435556 957.605708,76.308 C951.784958,76.9986667 946.237833,78.454 941.005792,80.5835556 C936.56975,73.2986667 928.866792,67.4444444 915.625,67.4444444 C883.519667,67.4444444 883.8845,100.538889 884.937542,107.092 C876.115208,107.544222 857.583333,109.270889 857.583333,125.230222 C857.583333,134.167778 865.485292,141.444444 875.203125,141.444444 L881.289208,141.444444 C878.237875,146.443556 876.065458,151.968889 875.004125,157.872444 L875.004125,157.872444 Z" id="Shape" fill="#306F91" fill-rule="nonzero"></path>
                </g>
                <g id="iconmonstr-wireless-10" transform="translate(105.000000, 65.000000)" fill="#E8AE21" fill-rule="nonzero">
                    <path d="M40.79025,110.883618 L30.78675,121 C11.9475,106.205211 0,84.6146325 0,60.4966391 C0,36.3786456 11.9475,14.7880673 30.78675,0 L40.79025,10.1096606 C25.08975,22.4442531 15.11325,40.4386423 15.11325,60.4966391 C15.11325,80.5546359 25.08975,98.5490251 40.79025,110.883618 Z M45.3465,60.4966391 C45.3465,48.4578079 51.33375,37.6625187 60.75,30.2617632 L50.75325,20.1655464 C38.19825,30.0264985 30.23325,44.4179768 30.23325,60.4966391 C30.23325,76.5753014 38.19825,90.9667796 50.75325,100.827732 L60.75,90.7315149 C51.327,83.3307594 45.3465,72.5354703 45.3465,60.4966391 Z M146.88675,60.4966391 C146.88675,40.4386423 136.91025,22.4442531 121.20975,10.1096606 L131.21325,0 C150.0525,14.7880673 162,36.3786456 162,60.4966391 C162,84.6146325 150.0525,106.205211 131.21325,121 L121.20975,110.883618 C136.91025,98.5490251 146.88675,80.5546359 146.88675,60.4966391 Z M101.25,90.7315149 L111.24675,100.827732 C123.80175,90.9667796 131.76675,76.5753014 131.76675,60.4966391 C131.76675,44.4179768 123.80175,30.0264985 111.24675,20.1655464 L101.25,30.2617632 C110.673,37.6625187 116.6535,48.4578079 116.6535,60.4966391 C116.6535,72.5354703 110.673,83.3307594 101.25,90.7315149 L101.25,90.7315149 Z M81,40.3310927 C69.822,40.3310927 60.75,49.3585356 60.75,60.4966391 C60.75,71.6347425 69.822,80.6621854 81,80.6621854 C92.178,80.6621854 101.25,71.6347425 101.25,60.4966391 C101.25,49.3585356 92.178,40.3310927 81,40.3310927 Z" id="Shape"></path>
                </g>
                <g id="iconmonstr-printer-7" transform="translate(478.000000, 51.000000)" fill="#EE6232" fill-rule="nonzero">
                    <path d="M120.75,107.636364 L140.875,148 L20.125,148 L40.25,107.636364 L55.0284583,107.636364 L41.8331667,134.545455 L119.160125,134.545455 L106.038625,107.636364 L120.75,107.636364 Z M161,26.9090909 L161,121.090909 L142.458167,121.090909 L129.0415,94.1818182 L31.9585,94.1818182 L18.5418333,121.090909 L0,121.090909 L0,26.9090909 L26.8333333,26.9090909 L26.8333333,0 L134.166667,0 L134.166667,26.9090909 L161,26.9090909 Z M120.75,13.4545455 L40.25,13.4545455 L40.25,26.9090909 L120.75,26.9090909 L120.75,13.4545455 Z M147.583333,43.7272727 C147.583333,41.8705455 146.080667,40.3636364 144.229167,40.3636364 C142.377667,40.3636364 140.875,41.8705455 140.875,43.7272727 C140.875,45.584 142.377667,47.0909091 144.229167,47.0909091 C146.080667,47.0909091 147.583333,45.584 147.583333,43.7272727 Z" id="Shape"></path>
                </g>
                <text id="Sensor-Lab" font-family="WorkSans-SemiBold, Work Sans SemiBold" font-size="36" font-weight="500" fill="#000000">
                    <tspan x="68" y="276">Sensor Lab</tspan>
                </text>
                <text id="Fab-Lab" font-family="WorkSans-SemiBold, Work Sans SemiBold" font-size="31" font-weight="500" fill="#000000">
                    <tspan x="493" y="278">Fab Lab</tspan>
                </text>
                <text id="Data-Lab" font-family="WorkSans-SemiBold, Work Sans SemiBold" font-size="31" font-weight="500" fill="#000000">
                    <tspan x="857" y="278">Data Lab</tspan>
                </text>
            </g>
        </g>
    </g>
</svg>