<?xml version="1.0" encoding="UTF-8"?>
<svg width="1132px" height="344px" viewBox="0 0 1132 344" version="1.1" xmlns="http://www.w3.org/2000/svg" xmlns:xlink="http://www.w3.org/1999/xlink">
    <!-- Generator: Sketch 54 (76480) - https://sketchapp.com -->
    <title>Labs</title>
    <desc>Created with Sketch.</desc>
    <g id="Page-1" stroke="none" stroke-width="1" fill="none" fill-rule="evenodd">
        <g id="Home" transform="translate(-154.000000, -1325.000000)">
            <g id="Labs" transform="translate(154.000000, 1325.000000)">
                <rect id="Rectangle" fill="#D3BC9E" x="0" y="0" width="372" height="344"></rect>
                <rect id="Rectangle-Copy" fill="#D0A79C" x="380" y="0" width="372" height="344"></rect>
                <rect id="Rectangle-Copy-2" fill="#EDA09F" x="760" y="0" width="372" height="344"></rect>
                <g id="iconmonstr-cloud-4" transform="translate(841.000000, 58.000000)" fill="#FFFFFF" fill-rule="nonzero">
                    <path d="M124.375,41.1111111 C99.4668333,41.1111111 79.1854167,59.7591111 77.8670417,83.2335556 C61.8807083,85.9715556 49.75,99.2997778 49.75,115.341333 C49.75,133.372667 65.073,148 83.953125,148 L164.796875,148 C183.677,148 199,133.372667 199,115.341333 C199,99.2997778 186.869292,85.9715556 170.882958,83.2335556 C169.564583,59.7591111 149.283167,41.1111111 124.375,41.1111111 L124.375,41.1111111 Z M34.004125,106.872444 C15.2152083,106.757333 0,92.1957778 0,74.2302222 C0,58.1886667 12.1307083,44.8604444 28.1170417,42.1224444 C29.4354167,18.648 49.7168333,0 74.625,0 C93.156875,0 109.10175,10.3435556 116.605708,25.308 C110.784958,25.9986667 105.237833,27.454 100.005792,29.5835556 C95.56975,22.2986667 87.8667917,16.4444444 74.625,16.4444444 C42.5196667,16.4444444 42.8845,49.5388889 43.9375417,56.092 C35.1152083,56.5442222 16.5833333,58.2708889 16.5833333,74.2302222 C16.5833333,83.1677778 24.4852917,90.4444444 34.203125,90.4444444 L40.2892083,90.4444444 C37.237875,95.4435556 35.0654583,100.968889 34.004125,106.872444 L34.004125,106.872444 Z" id="Shape"></path>
                </g>
                <g id="iconmonstr-wireless-10" transform="translate(105.000000, 72.000000)" fill="#FFFFFF" fill-rule="nonzero">
                    <path d="M40.79025,110.883618 L30.78675,121 C11.9475,106.205211 0,84.6146325 0,60.4966391 C0,36.3786456 11.9475,14.7880673 30.78675,0 L40.79025,10.1096606 C25.08975,22.4442531 15.11325,40.4386423 15.11325,60.4966391 C15.11325,80.5546359 25.08975,98.5490251 40.79025,110.883618 Z M45.3465,60.4966391 C45.3465,48.4578079 51.33375,37.6625187 60.75,30.2617632 L50.75325,20.1655464 C38.19825,30.0264985 30.23325,44.4179768 30.23325,60.4966391 C30.23325,76.5753014 38.19825,90.9667796 50.75325,100.827732 L60.75,90.7315149 C51.327,83.3307594 45.3465,72.5354703 45.3465,60.4966391 Z M146.88675,60.4966391 C146.88675,40.4386423 136.91025,22.4442531 121.20975,10.1096606 L131.21325,0 C150.0525,14.7880673 162,36.3786456 162,60.4966391 C162,84.6146325 150.0525,106.205211 131.21325,121 L121.20975,110.883618 C136.91025,98.5490251 146.88675,80.5546359 146.88675,60.4966391 Z M101.25,90.7315149 L111.24675,100.827732 C123.80175,90.9667796 131.76675,76.5753014 131.76675,60.4966391 C131.76675,44.4179768 123.80175,30.0264985 111.24675,20.1655464 L101.25,30.2617632 C110.673,37.6625187 116.6535,48.4578079 116.6535,60.4966391 C116.6535,72.5354703 110.673,83.3307594 101.25,90.7315149 L101.25,90.7315149 Z M81,40.3310927 C69.822,40.3310927 60.75,49.3585356 60.75,60.4966391 C60.75,71.6347425 69.822,80.6621854 81,80.6621854 C92.178,80.6621854 101.25,71.6347425 101.25,60.4966391 C101.25,49.3585356 92.178,40.3310927 81,40.3310927 Z" id="Shape"></path>
                </g>
                <g id="iconmonstr-printer-7" transform="translate(478.000000, 58.000000)" fill="#FFFFFF" fill-rule="nonzero">
                    <path d="M120.75,107.636364 L140.875,148 L20.125,148 L40.25,107.636364 L55.0284583,107.636364 L41.8331667,134.545455 L119.160125,134.545455 L106.038625,107.636364 L120.75,107.636364 Z M161,26.9090909 L161,121.090909 L142.458167,121.090909 L129.0415,94.1818182 L31.9585,94.1818182 L18.5418333,121.090909 L0,121.090909 L0,26.9090909 L26.8333333,26.9090909 L26.8333333,0 L134.166667,0 L134.166667,26.9090909 L161,26.9090909 Z M120.75,13.4545455 L40.25,13.4545455 L40.25,26.9090909 L120.75,26.9090909 L120.75,13.4545455 Z M147.583333,43.7272727 C147.583333,41.8705455 146.080667,40.3636364 144.229167,40.3636364 C142.377667,40.3636364 140.875,41.8705455 140.875,43.7272727 C140.875,45.584 142.377667,47.0909091 144.229167,47.0909091 C146.080667,47.0909091 147.583333,45.584 147.583333,43.7272727 Z" id="Shape"></path>
                </g>
                <text id="Sensor-Lab" font-family="'Roboto Mono', monospace" font-size="36" font-weight="600" fill="#FFFFFF">
                    <tspan x="68" y="283">Sensor Lab</tspan>
                </text>
                <text id="Fab-Lab" font-family="'Roboto Mono', monospace" font-size="31" font-weight="600" fill="#FFFFFF">
                    <tspan x="493" y="285">Fab Lab</tspan>
                </text>
                <text id="Data-Lab" font-family="'Roboto Mono', monospace" font-size="31" font-weight="600" fill="#FFFFFF">
                    <tspan x="857" y="285">Data Lab</tspan>
                </text>
            </g>
        </g>
    </g>
</svg>