<?xml version="1.0" standalone="no"?>
<!DOCTYPE svg PUBLIC "-//W3C//DTD SVG 20010904//EN"
 "http://www.w3.org/TR/2001/REC-SVG-20010904/DTD/svg10.dtd">
<svg version="1.0" xmlns="http://www.w3.org/2000/svg"
 width="260.000000pt" height="260.000000pt" viewBox="0 0 260.000000 260.000000"
 preserveAspectRatio="xMidYMid meet">
<metadata>
Created by potrace 1.11, written by Peter Selinger 2001-2013
</metadata>
<g transform="translate(0.000000,260.000000) scale(0.100000,-0.100000)"
fill="#000000" stroke="none">
<path d="M833 2048 c-124 -72 -195 -119 -200 -132 -3 -12 -7 -115 -8 -230 0
-170 2 -215 15 -239 21 -41 380 -248 420 -243 24 3 106 47 290 155 19 11 52
30 72 41 21 11 43 30 49 42 9 16 12 91 12 246 0 200 -2 224 -18 242 -16 18
-100 69 -275 168 -25 14 -58 34 -75 44 -54 33 -78 24 -282 -94z m399 -32 c89
-51 162 -97 162 -102 -2 -7 -98 -65 -290 -174 l-50 -29 -168 97 c-93 54 -169
102 -170 106 -1 11 314 194 336 195 9 1 90 -41 180 -93z m-232 -333 c2 -2 -2
-8 -9 -13 -21 -12 -5 -43 19 -37 19 5 20 0 20 -183 l0 -189 -167 96 c-93 52
-172 101 -178 108 -8 9 -13 346 -6 397 1 6 304 -163 321 -179z m434 -14 c0
-163 -3 -203 -15 -210 -8 -5 -87 -52 -176 -104 l-163 -94 0 189 c0 183 1 188
20 183 24 -6 40 25 19 38 -12 8 -12 11 1 19 35 22 305 178 310 179 3 1 5 -90
4 -200z"/>
<path d="M878 1614 c-40 -25 -49 -50 -23 -60 22 -9 97 43 93 64 -5 25 -29 24
-70 -4z"/>
<path d="M753 1539 c-61 -39 -30 -77 32 -39 22 14 35 29 33 39 -5 23 -29 24
-65 0z"/>
<path d="M1167 1633 c-16 -15 -5 -34 34 -59 22 -14 47 -23 55 -20 25 10 15 35
-26 61 -41 26 -52 29 -63 18z"/>
<path d="M1297 1553 c-15 -14 -5 -32 28 -53 37 -23 65 -21 65 4 0 8 -15 24
-34 35 -35 22 -48 25 -59 14z"/>
<path d="M1786 1567 c-98 -56 -182 -111 -188 -121 -21 -37 7 -61 181 -161 94
-53 175 -102 179 -109 4 -6 7 -103 8 -215 1 -201 1 -204 24 -223 13 -10 31
-16 41 -13 9 3 96 51 192 107 117 67 179 109 186 125 7 15 11 105 11 243 0
213 -1 220 -22 243 -35 37 -374 227 -406 227 -17 0 -99 -41 -206 -103z m386
-43 c93 -53 166 -100 162 -103 -3 -3 -74 -45 -157 -93 -141 -80 -153 -85 -159
-67 -10 27 -42 21 -46 -9 -3 -22 -4 -22 -30 -4 -15 10 -89 54 -164 97 -76 44
-136 80 -135 81 13 13 336 193 346 194 8 0 90 -43 183 -96z m188 -549 c-15
-18 -331 -198 -337 -191 -9 9 -7 386 3 395 5 5 83 52 174 105 l165 95 3 -196
c1 -123 -1 -200 -8 -208z"/>
<path d="M1974 1567 c-3 -8 -4 -32 -2 -53 2 -31 7 -39 23 -39 17 0 20 7 20 50
0 39 -4 50 -18 53 -9 2 -20 -3 -23 -11z"/>
<path d="M1974 1417 c-3 -8 -4 -34 -2 -58 2 -36 7 -44 23 -44 18 0 20 7 20 55
0 44 -3 55 -18 58 -9 2 -20 -3 -23 -11z"/>
<path d="M400 1285 c-102 -58 -193 -115 -202 -126 -16 -19 -18 -47 -18 -251 0
-229 0 -229 24 -251 13 -12 105 -69 205 -126 204 -117 198 -115 297 -58 32 19
75 43 94 54 102 55 199 115 216 134 17 19 18 40 19 242 1 172 -2 228 -13 247
-17 30 -378 240 -414 240 -12 0 -106 -47 -208 -105z m353 -22 c73 -42 149 -86
170 -98 l39 -23 -160 -91 c-88 -50 -162 -91 -165 -91 -2 0 -7 9 -10 20 -3 11
-13 20 -22 20 -9 0 -19 -9 -22 -20 -3 -11 -7 -20 -8 -20 -6 0 -300 171 -307
178 -8 8 318 201 340 202 7 0 72 -35 145 -77z m-172 -381 c3 -51 1 -384 -2
-386 -4 -4 -317 176 -336 194 -10 8 -13 63 -13 210 l0 199 175 -100 c113 -65
175 -106 176 -117z m406 21 c0 -104 -3 -195 -8 -204 -6 -12 -222 -142 -340
-205 -4 -2 -6 81 -6 185 1 174 3 188 19 183 21 -5 37 26 18 38 -15 9 -27 1
155 107 77 44 145 82 151 82 8 1 11 -56 11 -186z"/>
<path d="M584 1287 c-3 -8 -4 -32 -2 -53 2 -31 7 -39 23 -39 17 0 20 7 20 50
0 39 -4 50 -18 53 -9 2 -20 -3 -23 -11z"/>
<path d="M584 1137 c-3 -8 -4 -34 -2 -58 2 -36 7 -44 23 -44 18 0 20 7 20 55
0 44 -3 55 -18 58 -9 2 -20 -3 -23 -11z"/>
<path d="M717 863 c-16 -15 -5 -34 33 -59 40 -26 70 -27 70 -1 0 8 -18 26 -40
41 -41 27 -52 30 -63 19z"/>
<path d="M857 773 c-15 -14 -5 -32 28 -53 37 -23 65 -21 65 4 0 8 -15 24 -34
35 -35 22 -48 25 -59 14z"/>
<path d="M1299 1287 c-97 -56 -187 -109 -200 -118 l-24 -16 -1 -229 c-1 -126
3 -238 8 -250 11 -24 -4 -14 220 -142 97 -56 187 -102 200 -102 34 0 398 212
414 241 10 18 13 82 14 245 0 209 -1 223 -21 248 -11 14 -24 26 -28 26 -4 0
-86 45 -181 100 -97 56 -186 100 -200 100 -14 0 -104 -47 -201 -103z m382 -44
c93 -54 165 -101 161 -104 -8 -8 -301 -179 -306 -179 -2 0 -6 9 -9 21 -7 27
-41 22 -45 -7 -3 -19 -19 -12 -169 74 -140 81 -162 97 -147 105 11 6 88 50
173 99 85 48 158 88 164 88 5 0 85 -44 178 -97z m-386 -243 c157 -89 160 -91
145 -100 -19 -12 -4 -43 18 -38 17 5 18 -7 18 -183 l0 -188 -65 36 c-37 20
-106 60 -155 89 -49 30 -92 54 -96 54 -4 0 -14 7 -21 17 -11 12 -14 62 -15
214 l-1 199 31 -19 c17 -10 81 -47 141 -81z m580 -295 c-3 -13 -63 -53 -175
-117 l-170 -97 -1 32 c-4 127 0 369 5 375 4 4 83 50 174 102 l167 96 3 -186
c1 -102 0 -194 -3 -205z"/>
<path d="M1484 1287 c-3 -8 -4 -32 -2 -53 2 -31 7 -39 23 -39 17 0 20 7 20 50
0 39 -4 50 -18 53 -9 2 -20 -3 -23 -11z"/>
<path d="M1484 1137 c-3 -8 -4 -34 -2 -58 2 -36 7 -44 23 -44 18 0 20 7 20 55
0 44 -3 55 -18 58 -9 2 -20 -3 -23 -11z"/>
<path d="M1328 844 c-39 -25 -49 -50 -24 -60 21 -8 98 44 94 64 -5 25 -29 24
-70 -4z"/>
<path d="M1193 759 c-61 -39 -30 -77 32 -39 22 14 35 29 33 39 -5 23 -29 24
-65 0z"/>
</g>
</svg>
