<svg xmlns="http://www.w3.org/2000/svg" viewBox="0 0 484.32 493.12"><defs><style>.cls-1{fill:none;}.cls-2{fill:#2a1536;}.cls-3{fill:#813cff;}</style></defs><g id="EXPANDED"><path class="cls-1" d="M448.35,214.48H325.43a28.87,28.87,0,0,1,1.32,8.55c0,13.72-9.77,25.72-24.29,32.22a5.66,5.66,0,0,1-1,1.32c-8.92,8.11-21.35,11.94-34.19,13.38a65.67,65.67,0,0,1-4.67,7.16v45l5.77,3.18,4.35-2.52a5.15,5.15,0,0,1,6.05,8.25l49.62,27.33a8.49,8.49,0,0,1,4.4,7.45V371a5.15,5.15,0,0,1,9.85,2l.13,15.45a5.14,5.14,0,0,1-10,1.77v6.39a8.61,8.61,0,0,1-.55,3,5.13,5.13,0,0,1,1.69,9.53l-13.45,7.61a5.16,5.16,0,0,1-7-1.95,5.5,5.5,0,0,1-.58-1.71l-6.24,3.63a5,5,0,0,1,1.09,1.32,5.14,5.14,0,0,1-1.93,7l-13.45,7.6a5.14,5.14,0,0,1-7-1.95,5,5,0,0,1-.5-1.31l-6,3.51a4.84,4.84,0,0,1,.81,1,5.15,5.15,0,0,1-1.93,7l-13.45,7.6a5.14,5.14,0,0,1-7-1.95,5.75,5.75,0,0,1-.41-.92l-3.33,1.93a8.45,8.45,0,0,1-4.26,1.15h-.45a8.52,8.52,0,0,1-4.78-1.19,5.14,5.14,0,0,1-6.3,1L224.18,441a5.12,5.12,0,0,1-2.1-6.65l-5.68-3.45a5.13,5.13,0,0,1-6.91,1.79L196,425a5.14,5.14,0,0,1-1.93-7,4.46,4.46,0,0,1,.35-.5l-5.75-3.5a4.6,4.6,0,0,1-.33.76,5.16,5.16,0,0,1-7,1.95l-13.45-7.61a5.12,5.12,0,0,1,.66-9.24,8.51,8.51,0,0,1-.67-3.28v-4.74a5.08,5.08,0,0,1-3.77,1.67A5.14,5.14,0,0,1,159,388.4V372.94a5.14,5.14,0,0,1,9.22-3.11,8.55,8.55,0,0,1,3.76-5L223.82,333l-12.54-7.26a5.15,5.15,0,0,1,5.16-8.92l13.37,7.74a5.11,5.11,0,0,1,2.42,3.28l13.32-8.17V280.15a47.27,47.27,0,0,1-6.1-10.14,192.52,192.52,0,0,1-30.17-5.12,5.67,5.67,0,0,1-4.19-5.48V246H192a5.67,5.67,0,0,1-5.67-5.67V214.28a5.92,5.92,0,0,1-1.47.2H36.09a5.67,5.67,0,0,1-4.91-2.85V461.94h422V211.84A5.66,5.66,0,0,1,448.35,214.48ZM307,314.79l-13.37,7.74a5.15,5.15,0,1,1-5.16-8.92l13.38-7.74a5.15,5.15,0,0,1,5.15,8.92Zm3.91-26.22a5.15,5.15,0,0,1-7,2.05l-13.56-7.41a5.15,5.15,0,0,1,4.94-9l13.56,7.41A5.15,5.15,0,0,1,310.92,288.57Zm13.14,16.35c-.62.36-1.25.68-1.86,1l-.46.2a2.09,2.09,0,0,1-.37.13,4.21,4.21,0,0,1-.49.09,5.2,5.2,0,0,1-2-.14,5.16,5.16,0,0,1-3.65-6.3,5.25,5.25,0,0,1,.86-1.78,3.9,3.9,0,0,1,.33-.38c.08-.08.07-.1.05-.11l0-.06-.06-.08.05-.09,0-.05v0s-.05-.06-.08-.09l-.33-.38a5.29,5.29,0,0,1-.9-1.75,5.16,5.16,0,0,1,3.49-6.38,5,5,0,0,1,2-.19,4,4,0,0,1,.5.07l.14,0,.22.09.47.19c.61.26,1.25.56,1.87.9l13.57,7.42Zm7.71,6.22a5.15,5.15,0,0,1,10.3-.09l.13,15.45a5.15,5.15,0,0,1-10.3.09Zm5.59,51.53a5.14,5.14,0,0,1-5.19-5.11L332,342.11a5.15,5.15,0,0,1,10.3-.09l.13,15.45A5.16,5.16,0,0,1,337.36,362.67Zm-168.08-5.35a5.15,5.15,0,1,1-10.3,0V341.87a5.15,5.15,0,0,1,10.3,0Zm0-31.07a5.15,5.15,0,0,1-10.3,0V310.8a5.15,5.15,0,0,1,10.3,0Zm25.61-47.07,13.56-7.41a5.15,5.15,0,0,1,4.94,9l-13.56,7.41a5.15,5.15,0,0,1-4.94-9Zm-4.83,2.65,2.47,4.52h0l2.47,4.52-8,4.37-4,2.21,4,2.29,7.91,4.58-2.58,4.46h0l-2.58,4.45-7.91-4.58L162,297.19Z"/><path class="cls-1" d="M448.35,133.7H301.75c-.2,0-.41,0-.61,0v56.57a45.71,45.71,0,0,1,19,14.15,5.66,5.66,0,0,1,3.55-1.25H448.35a5.65,5.65,0,0,1,4.78,2.63V131.06A5.64,5.64,0,0,1,448.35,133.7Z"/><path class="cls-1" d="M162,297.19h0l20.1-11c4.42-2.42,9.11-2.35,10.48.14l-2.47-4.52Z"/><path class="cls-1" d="M36.09,203.14H184.84a5.49,5.49,0,0,1,1.47.2V177.26c0-12.18,7.74-23.95,11.73-29.2V133.7H35.53a5.66,5.66,0,0,1-4.35-2V206A5.66,5.66,0,0,1,36.09,203.14Z"/><path class="cls-1" d="M273.16,89H209.38v57a5.61,5.61,0,0,1,.65,4.44h63.13Z"/><path class="cls-1" d="M181.76,308.65l7.91,4.58,2.58-4.45C190.83,311.23,186.15,311.19,181.76,308.65Z"/><path class="cls-1" d="M35.53,122.36H198V105.29a8.8,8.8,0,0,1-.93-.35c-.37-.17-21.66-9.65-52.63-13.85-28.35-3.84-70.95-3.91-112.9,17.56-.13.07-.27.12-.4.18V124.4A5.64,5.64,0,0,1,35.53,122.36Z"/><path class="cls-1" d="M187,295.24l8-4.37-2.47-4.52C193.89,288.84,191.42,292.82,187,295.24Z"/><path class="cls-1" d="M192.25,308.78l2.58-4.46-7.91-4.58C191.3,302.28,193.67,306.32,192.25,308.78Z"/><path class="cls-1" d="M239.9,223a18.58,18.58,0,0,0,.74,5.15,4.46,4.46,0,0,1,.24.73c3.88,11.52,18.89,20.14,36.77,20.14,20.82,0,37.76-11.67,37.76-26,0-10.24-8.63-19.11-21.14-23.36a5.46,5.46,0,0,1-1.06-.34A52.36,52.36,0,0,0,277.65,197C256.83,197,239.9,208.68,239.9,223Z"/><path class="cls-1" d="M216.42,240.34v14.6A192.58,192.58,0,0,0,245,259.05,126.46,126.46,0,0,0,264,258.9C249,255.59,237,247,231.61,236H216.42Z"/><path class="cls-1" d="M147.36,74.32A237.67,237.67,0,0,1,198.13,87a10.59,10.59,0,0,1,4.22-7.22c-6.75-4.18-17.22-9.32-32.16-13.17-44.87-11.54-98.13-3.65-139,6.62V90C74.82,70,118.09,70.28,147.36,74.32Z"/><path class="cls-1" d="M273.91,161.8H208.63a10.47,10.47,0,0,1-5.27-1.42c-2.84,4.69-5.71,10.9-5.71,16.88v57.41h7.44v-4.34a5.67,5.67,0,0,1,5.67-5.67h17.85c0-.54-.05-1.08-.05-1.63,0-20.6,22-37.36,49.09-37.36a64.22,64.22,0,0,1,12.16,1.16V120.92a13.19,13.19,0,0,0-5.31-11v41.28A10.6,10.6,0,0,1,273.91,161.8Z"/><path class="cls-1" d="M174.25,56c26,6.9,39.63,17.47,44.35,21.74h55.31A10.59,10.59,0,0,1,284.5,88.28v8.77c7.39,3,16.64,10.25,16.64,23.87v1.48a4.17,4.17,0,0,1,.61,0h146.6a5.64,5.64,0,0,1,4.78,2.64V31.18H31.18V61.53C87.59,47.58,135.65,45.7,174.25,56Z"/><path class="cls-2" d="M278.75,432.89a5.13,5.13,0,0,0-6.19-.91l-13.45,7.61a5.14,5.14,0,0,0-2.36,6.09,5.75,5.75,0,0,0,.41.92,5.14,5.14,0,0,0,7,1.95l13.45-7.6a5.15,5.15,0,0,0,1.93-7A4.84,4.84,0,0,0,278.75,432.89Z"/><path class="cls-2" d="M306.6,416.71a5.14,5.14,0,0,0-5.91-.64l-13.45,7.61a5.13,5.13,0,0,0-2.45,5.7,5,5,0,0,0,.5,1.31,5.14,5.14,0,0,0,7,1.95l13.45-7.6a5.14,5.14,0,0,0,1.93-7A5,5,0,0,0,306.6,416.71Z"/><path class="cls-2" d="M332.2,399.6a5.06,5.06,0,0,0-3.38.57l-13.45,7.6a5.15,5.15,0,0,0-2.53,5.31,5.5,5.5,0,0,0,.58,1.71,5.16,5.16,0,0,0,7,1.95l13.45-7.61a5.13,5.13,0,0,0-1.69-9.53Z"/><path class="cls-2" d="M242.7,439.59,229.25,432a5.15,5.15,0,0,0-7,2,3.92,3.92,0,0,0-.16.36,5.12,5.12,0,0,0,2.1,6.65l13.45,7.6a5.14,5.14,0,0,0,6.3-1,4.87,4.87,0,0,0,.71-1A5.14,5.14,0,0,0,242.7,439.59Z"/><path class="cls-2" d="M214.56,423.68l-13.45-7.61a5.13,5.13,0,0,0-6.65,1.46,4.46,4.46,0,0,0-.35.5,5.14,5.14,0,0,0,1.93,7l13.45,7.6a5.13,5.13,0,0,0,6.91-1.79l.11-.15A5.14,5.14,0,0,0,214.56,423.68Z"/><path class="cls-2" d="M186.43,407.77,173,400.17a5.09,5.09,0,0,0-4.41-.28,5.12,5.12,0,0,0-.66,9.24l13.45,7.61a5.16,5.16,0,0,0,7-1.95,4.6,4.6,0,0,0,.33-.76A5.13,5.13,0,0,0,186.43,407.77Z"/><path class="cls-2" d="M169.28,388.4V372.94a5.08,5.08,0,0,0-1.08-3.11,5.14,5.14,0,0,0-9.22,3.11V388.4a5.14,5.14,0,0,0,5.15,5.14,5.2,5.2,0,0,0,5.15-5.14Z"/><path class="cls-2" d="M164.13,362.47a5.14,5.14,0,0,0,5.15-5.15V341.87a5.15,5.15,0,0,0-10.3,0v15.45A5.14,5.14,0,0,0,164.13,362.47Z"/><path class="cls-2" d="M164.13,331.4a5.15,5.15,0,0,0,5.15-5.15V310.8a5.15,5.15,0,0,0-10.3,0v15.45A5.15,5.15,0,0,0,164.13,331.4Z"/><path class="cls-2" d="M251.43,378.25a5.14,5.14,0,0,0,5.15-5.13V357.67a5.15,5.15,0,1,0-10.3,0v15.45A5.14,5.14,0,0,0,251.43,378.25Z"/><path class="cls-2" d="M251.43,410.7a5.15,5.15,0,0,0,5.15-5.14V390.11a5.15,5.15,0,1,0-10.3,0v15.45A5.15,5.15,0,0,0,251.43,410.7Z"/><path class="cls-2" d="M256.58,435.94V422.55a5.15,5.15,0,1,0-10.3,0V438a5.22,5.22,0,0,0,.13,1.13A5.15,5.15,0,0,0,256.58,438Z"/><path class="cls-2" d="M272.68,322.76l-4.35,2.52-5.77,3.33-2.83,1.64-.43.25a5.15,5.15,0,1,0,5.16,8.91l5.81-3.36,7.57-4.38a5.41,5.41,0,0,0,.89-.66,5.15,5.15,0,0,0-6.05-8.25Z"/><path class="cls-2" d="M301.86,305.87l-13.38,7.74a5.15,5.15,0,1,0,5.16,8.92L307,314.79a5.15,5.15,0,0,0-5.15-8.92Z"/><path class="cls-2" d="M316.1,296.81l.33.38s.08.07.08.09v0l0,.05-.05.09.06.08,0,.06s0,0-.05.11a3.9,3.9,0,0,0-.33.38,5.25,5.25,0,0,0-.86,1.78,5.16,5.16,0,0,0,3.65,6.3,5.2,5.2,0,0,0,2,.14,4.21,4.21,0,0,0,.49-.09,2.09,2.09,0,0,0,.37-.13l.46-.2c.61-.28,1.24-.6,1.86-1l13.36-7.73-13.57-7.42c-.62-.34-1.26-.64-1.87-.9l-.47-.19-.22-.09-.14,0a4,4,0,0,0-.5-.07,5,5,0,0,0-2,.19,5.16,5.16,0,0,0-3.49,6.38A5.29,5.29,0,0,0,316.1,296.81Z"/><path class="cls-2" d="M308.87,281.58l-13.56-7.41a5.15,5.15,0,0,0-4.94,9l13.56,7.41a5.15,5.15,0,1,0,4.94-9Z"/><path class="cls-2" d="M209.41,318.71a5.14,5.14,0,0,0,1.87,7L223.82,333l.83.48a5.15,5.15,0,0,0,5.16-8.92l-13.37-7.74A5.15,5.15,0,0,0,209.41,318.71Z"/><path class="cls-2" d="M199.83,288.22l13.56-7.41a5.15,5.15,0,0,0-4.94-9l-13.56,7.41a5.15,5.15,0,0,0,4.94,9Z"/><path class="cls-2" d="M192.53,286.35h0c-1.37-2.49-6.06-2.56-10.48-.14l-20.1,11h0l19.81,11.46c4.39,2.54,9.07,2.58,10.49.13h0c1.42-2.46-.95-6.5-5.33-9l-4-2.29,4-2.21C191.42,292.82,193.89,288.84,192.53,286.35Z"/><path class="cls-2" d="M337.41,367.91a5.15,5.15,0,0,0-4.66,3,5.2,5.2,0,0,0-.45,2.12l.13,15.46a5.22,5.22,0,0,0,.32,1.68,5.14,5.14,0,0,0,10-1.77L342.6,373A5.14,5.14,0,0,0,337.41,367.91Z"/><path class="cls-2" d="M337.14,336.93a5.14,5.14,0,0,0-5.1,5.18l.13,15.45a5.15,5.15,0,1,0,10.3-.09L342.34,342A5.15,5.15,0,0,0,337.14,336.93Z"/><path class="cls-2" d="M331.77,311.14l.13,15.45a5.15,5.15,0,0,0,10.3-.09l-.13-15.45a5.15,5.15,0,0,0-10.3.09Z"/><path class="cls-3" d="M328.35,358.34,278.73,331a5.41,5.41,0,0,1-.89.66l-7.57,4.38-5.81,3.36a5.15,5.15,0,1,1-5.16-8.91l.43-.25,2.83-1.64,5.77-3.33-5.77-3.18v-45c-3,4-6.58,7.34-10,7.34-2.5,0-4.88-1.8-7-4.3v39.52l-13.32,8.17a5.14,5.14,0,0,1-7.58,5.64l-.83-.48L172,364.8a8.55,8.55,0,0,0-3.76,5,5.08,5.08,0,0,1,1.08,3.11V388.4a5.08,5.08,0,0,1-1.38,3.47v4.74a8.51,8.51,0,0,0,.67,3.28,5.09,5.09,0,0,1,4.41.28l13.45,7.6a5.13,5.13,0,0,1,2.28,6.26l5.75,3.5a5.13,5.13,0,0,1,6.65-1.46l13.45,7.61a5.14,5.14,0,0,1,1.95,7l-.11.15,5.68,3.45a3.92,3.92,0,0,1,.16-.36,5.15,5.15,0,0,1,7-2l13.45,7.61a5.14,5.14,0,0,1,1.94,7,4.87,4.87,0,0,1-.71,1,8.52,8.52,0,0,0,4.78,1.19h.45a8.45,8.45,0,0,0,4.26-1.15l3.33-1.93a5.14,5.14,0,0,1,2.36-6.09L272.56,432a5.13,5.13,0,0,1,6.19.91l6-3.51a5.13,5.13,0,0,1,2.45-5.7l13.45-7.61a5.14,5.14,0,0,1,5.91.64l6.24-3.63a5.15,5.15,0,0,1,2.53-5.31l13.45-7.6a5.06,5.06,0,0,1,3.38-.57,8.61,8.61,0,0,0,.55-3v-6.39a5.22,5.22,0,0,1-.32-1.68l-.13-15.46a5.2,5.2,0,0,1,.45-2.12v-5.17A8.49,8.49,0,0,0,328.35,358.34Zm-71.77,67.77V438a5.15,5.15,0,0,1-10.17,1.13,5.22,5.22,0,0,1-.13-1.13V422.55a5.15,5.15,0,1,1,10.3,0Zm0-20.55a5.15,5.15,0,0,1-10.3,0V390.11a5.15,5.15,0,1,1,10.3,0Zm0-38.17v5.73a5.15,5.15,0,0,1-10.3,0V357.67a5.15,5.15,0,1,1,10.3,0Z"/><path class="cls-3" d="M198,105.29v-17a10.86,10.86,0,0,1,.09-1.28,237.67,237.67,0,0,0-50.77-12.68C118.09,70.28,74.82,70,31.18,90v18.87c.13-.06.27-.11.4-.18,42-21.47,84.55-21.4,112.9-17.56,31,4.2,52.26,13.68,52.63,13.85A8.8,8.8,0,0,0,198,105.29Z"/><rect class="cls-2" x="440.1" y="203.14" width="17.35" height="11.33"/><rect class="cls-2" x="29.04" y="203.14" width="17.35" height="11.33"/><rect class="cls-2" x="29.04" y="122.36" width="17.35" height="11.33"/><path class="cls-2" d="M468.73,0H15.59A15.59,15.59,0,0,0,0,15.59V477.53a15.59,15.59,0,0,0,15.59,15.59H468.73a15.59,15.59,0,0,0,15.59-15.59V15.59A15.59,15.59,0,0,0,468.73,0ZM31.18,31.18h422v91.13H437.45v0H301.75a4.17,4.17,0,0,0-.61,0v-1.48c0-13.62-9.25-20.88-16.64-23.87V88.28A10.59,10.59,0,0,0,273.91,77.7H218.6c-4.72-4.27-18.38-14.84-44.35-21.74-38.6-10.26-86.66-8.38-143.07,5.57ZM209.38,146V89h63.78v61.42H210A5.61,5.61,0,0,0,209.38,146Zm64.53,15.78a10.6,10.6,0,0,0,10.59-10.58V109.94a13.19,13.19,0,0,1,5.31,11v65.91a64.22,64.22,0,0,0-12.16-1.16c-27.07,0-49.09,16.76-49.09,37.36,0,.55,0,1.09.05,1.63H210.76a5.67,5.67,0,0,0-5.67,5.67v4.34h-7.44V177.26c0-6,2.87-12.19,5.71-16.88a10.47,10.47,0,0,0,5.27,1.42Zm-57.49,78.54V236h15.19C237,247,249,255.59,264,258.9a126.46,126.46,0,0,1-18.92.15,192.58,192.58,0,0,1-28.62-4.11Zm24.46-11.43a4.46,4.46,0,0,0-.24-.73,18.58,18.58,0,0,1-.74-5.15c0-14.35,16.93-26,37.75-26a52.36,52.36,0,0,1,15.56,2.32,5.46,5.46,0,0,0,1.06.34c12.51,4.25,21.14,13.12,21.14,23.36,0,14.35-16.94,26-37.76,26C259.77,249.05,244.76,240.43,240.88,228.91ZM31.18,108.83V73.23c40.88-10.27,94.14-18.16,139-6.62,14.94,3.85,25.41,9,32.16,13.17A10.59,10.59,0,0,0,198.13,87a10.86,10.86,0,0,0-.09,1.28v34.08H35.53a5.64,5.64,0,0,0-4.35,2Zm0,22.84a5.66,5.66,0,0,0,4.35,2H198v14.36c-4,5.25-11.73,17-11.73,29.2v26.08a5.49,5.49,0,0,0-1.47-.2H36.09A5.66,5.66,0,0,0,31.18,206Zm422,330.27H31.18V211.63a5.67,5.67,0,0,0,4.91,2.85H184.84a5.92,5.92,0,0,0,1.47-.2v26.06A5.67,5.67,0,0,0,192,246h13.11v13.4a5.67,5.67,0,0,0,4.19,5.48A192.52,192.52,0,0,0,239.45,270a47.27,47.27,0,0,0,6.1,10.14c2.11,2.5,4.49,4.3,7,4.3,3.44,0,7-3.38,10-7.34a65.67,65.67,0,0,0,4.67-7.16c12.84-1.44,25.27-5.27,34.19-13.38a5.66,5.66,0,0,0,1-1.32c14.52-6.5,24.29-18.5,24.29-32.22a28.87,28.87,0,0,0-1.32-8.55H448.35a5.66,5.66,0,0,0,4.78-2.64Zm-4.78-258.8H323.72a5.66,5.66,0,0,0-3.55,1.25,45.71,45.71,0,0,0-19-14.15V133.67c.2,0,.41,0,.61,0h146.6a6.49,6.49,0,0,0,.77,0h4v72.12A5.65,5.65,0,0,0,448.35,203.14Z"/></g></svg>