<svg xmlns="http://www.w3.org/2000/svg" viewBox="0 0 484.32 493.12"><defs><style>.cls-1{fill:none;}.cls-2{fill:#2a1536;}.cls-3{fill:#813cff;}</style></defs><g id="EXPANDED"><rect class="cls-1" x="203.37" y="210.85" width="11.86" height="7.07"/><path class="cls-1" d="M203.37,232.42a1.58,1.58,0,0,0,.8,1.57,8,8,0,0,0,4.24,1c4.14,0,6.82-1.92,6.82-2.58v-3.16H203.37Z"/><path class="cls-1" d="M174.38,126.9a5.66,5.66,0,0,1,1.66-4l2.38-2.38V92.23H173a5.67,5.67,0,0,1-5.67-5.67V63.93A5.67,5.67,0,0,1,173,58.26h13.75V42.8a5.67,5.67,0,0,1,5.67-5.67h42.86a5.67,5.67,0,0,1,5.67,5.67V58.26h21.31a5.67,5.67,0,0,1,5.67,5.67V86.56a5.67,5.67,0,0,1-5.67,5.67h-4.67v79.94H453.14v-141h-422v141h143.2Z"/><polygon class="cls-1" points="243.97 183.51 243.97 243.09 453.14 243.09 453.14 183.51 251.92 183.51 243.97 183.51"/><path class="cls-1" d="M382.17,315.42l1.29,3.22,4.78-1.93C385.61,317.77,382.88,317.2,382.17,315.42Z"/><path class="cls-1" d="M379.78,303.5H376.3v5.15C376.3,305.81,377.85,303.5,379.78,303.5Z"/><rect class="cls-1" x="31.18" y="183.51" width="143.2" height="60.77"/><path class="cls-1" d="M391.72,311.57c.72,1.78-.85,4.08-3.48,5.14l4.78-1.92-4.55-11.29h0Z"/><polygon class="cls-1" points="251.92 80.89 256.59 80.89 256.59 69.6 178.66 69.6 178.66 80.89 184.08 80.89 207.45 80.89 224.68 80.89 251.92 80.89"/><path class="cls-1" d="M420.47,396.82c2.63-1.06,6,1.23,7.62,5.14l7.11,17.68h0l-10-24.75-9.55,3.85,3.69,9.18-.85-2.11C417,401.89,417.83,397.88,420.47,396.82Z"/><path class="cls-1" d="M239.25,110a5.67,5.67,0,0,1,4.72,5.59v56.61h2.28V92.23h-15.9v16.23Z"/><path class="cls-1" d="M309.46,343.2c-28.14,0-46.1,10.82-46.1,18.27s18,18.28,46.1,18.28,46.1-10.83,46.1-18.28S337.6,343.2,309.46,343.2Zm0,30.79c-9.67,0-16.69-5.26-16.69-12.52s7-12.52,16.69-12.52,16.69,5.27,16.69,12.52S319.13,374,309.46,374Z"/><polygon class="cls-1" points="219.01 106.53 219.01 92.23 213.12 92.23 213.12 105.53 219.01 106.53"/><path class="cls-1" d="M309.15,361.47a6.41,6.41,0,0,0,.31,2,6.41,6.41,0,0,0,0-4A6.46,6.46,0,0,0,309.15,361.47Z"/><path class="cls-1" d="M64.65,396.65l-4.75-2-3,7.11C58.57,397.84,62,395.55,64.65,396.65Z"/><path class="cls-1" d="M379.78,313.8c-1.93,0-3.48-2.31-3.48-5.15v5.15h3.48Z"/><path class="cls-1" d="M207.72,336.91h.08c3.15,0,6.37-1.93,9.62-5.74v-8.74c-2.53.24-5.27.38-8.25.38a68.75,68.75,0,0,1-11.68-1v9.3C199.55,333.44,203.54,336.86,207.72,336.91Z"/><path class="cls-1" d="M62.33,430H64.9a5.15,5.15,0,0,1,0,10.3h5.15V430Z"/><path class="cls-1" d="M62.33,427.42V430h0v-7.72H57.18A5.15,5.15,0,0,1,62.33,427.42Z"/><path class="cls-1" d="M98.19,316.54c-2.61-1.09-4.15-3.39-3.42-5.14l-1.33,3.16,9.51,4,1.32-3.15C103.53,317.13,100.81,317.64,98.19,316.54Z"/><path class="cls-1" d="M57.18,422.28H52v5.14A5.15,5.15,0,0,1,57.18,422.28Z"/><path class="cls-1" d="M173.61,287.27h6.44a5.66,5.66,0,0,1,1.17.12h0a5.12,5.12,0,0,1,.56.15l.06,0a3.8,3.8,0,0,1,.47.18h0c34.3,15.11,53.9,2.6,59.37-1.86V268.34h-1.9a68.56,68.56,0,0,1-31.69,8.13,57.74,57.74,0,0,1-29.64-8.13h-4.87Z"/><path class="cls-1" d="M76.52,414.49c0,2.84-3.45,5.15-7.74,5.15h7.74v-10.3H68.78C73.07,409.34,76.52,411.65,76.52,414.49Z"/><path class="cls-1" d="M232.63,120.34l-24.56-4.17c-.2,0-.41,0-.62,0a5.66,5.66,0,0,1-2.43-.55l-4.88-.83-14.42,14.42V259.42c20.12,10.86,39.9,3.28,46.91-.13v-139Zm-6.06,103.25v8.83c0,6.74-6.36,13.91-18.16,13.91-9.64,0-16.38-5.72-16.38-13.91V205.18a5.67,5.67,0,0,1,5.67-5.67h23.2a5.67,5.67,0,0,1,5.67,5.67Z"/><path class="cls-1" d="M66.42,405.75l3-7.11-4.75-2C67.27,397.75,68.07,401.82,66.42,405.75Z"/><polygon class="cls-1" points="49.44 419.64 54.7 407.07 49.44 419.64 49.44 419.64 49.44 419.64"/><path class="cls-1" d="M192.82,309a5.66,5.66,0,0,1,1.46.47,50.71,50.71,0,0,0,14.89,2c12.75,0,20.19-3,23.46-4.72v-3.4a61.18,61.18,0,0,1-19.3,3,82.76,82.76,0,0,1-27.61-5.08v4.17A28.24,28.24,0,0,0,192.82,309Z"/><path class="cls-1" d="M189.75,92.23v17l4.45-4.44a5.65,5.65,0,0,1,5-1.58l2.63.45V92.23Z"/><path class="cls-1" d="M432.72,427.43V440.3h0v-18h-5.14A5.15,5.15,0,0,1,432.72,427.43Z"/><path class="cls-1" d="M419.84,430h-5.13v5.15A5.14,5.14,0,0,1,419.84,430Z"/><rect class="cls-1" x="198.07" y="48.46" width="31.53" height="8.08"/><path class="cls-1" d="M414.71,435.15v5.15h5.13A5.14,5.14,0,0,1,414.71,435.15Z"/><path class="cls-1" d="M244,254.43V257h3.41a5.66,5.66,0,0,1,5.67,5.66V288.4a5.63,5.63,0,0,1-1.54,3.87,38.22,38.22,0,0,1-7.54,5.84v11.72a5.66,5.66,0,0,1-1.93,4.26c-.64.56-4.72,3.91-13.29,6.29v12.78a5.7,5.7,0,0,1-1.15,3.44,31.52,31.52,0,0,1-11,9.6,24,24,0,0,1,5.79,15.27c0,20.12-27.13,35.28-63.11,35.28s-63.1-15.16-63.1-35.28,27.13-35.28,63.1-35.28a111.54,111.54,0,0,1,26.92,3.14V318.56c-6.53-2.8-9.72-6.05-10.28-6.66a5.69,5.69,0,0,1-1.49-3.84V298.6H168a5.66,5.66,0,0,1-5.67-5.67V262.67A5.66,5.66,0,0,1,168,257h6.43v-1.39H31.18V461.94h422V254.43Zm-115,49.07h15.45a5.15,5.15,0,0,1,0,10.3H128.93a5.15,5.15,0,0,1,0-10.3Zm-18.87,10.3h-5.13l-.66,1.58L103,318.53l-9.51-4,1.33-3.16,3.31-7.9h12ZM80.94,344.42l6-14.25a5.15,5.15,0,0,1,9.5,4l-6,14.25a5.15,5.15,0,0,1-9.5-4ZM66.44,379l6-14.26a5.15,5.15,0,0,1,9.5,4l-6,14.25a5.15,5.15,0,0,1-9.5-4Zm3.61,61.26H52v-18h10.3V430h7.72Zm6.47-20.66H49.44l5.26-12.57,2.22-5.3,3-7.11,4.75,2h0l4.75,2-3,7.11-1.5,3.59h11.6Zm22,20.66H83.12a5.15,5.15,0,0,1,0-10.3H98.57a5.15,5.15,0,0,1,0,10.3Zm5.32-20.66H88.44a5.15,5.15,0,0,1,0-10.3h15.45a5.15,5.15,0,1,1,0,10.3Zm28.35,20.66H116.79a5.15,5.15,0,0,1,0-10.3h15.45a5.15,5.15,0,0,1,0,10.3Zm4.18-20.66H121a5.15,5.15,0,0,1,0-10.3h15.46a5.15,5.15,0,0,1,0,10.3Zm29.5,20.66H150.46a5.15,5.15,0,0,1,0-10.3h15.46a5.15,5.15,0,0,1,0,10.3Zm3-20.66H153.48a5.15,5.15,0,0,1,0-10.3h15.46a5.15,5.15,0,0,1,0,10.3Zm30.65,20.66H184.14a5.15,5.15,0,0,1,0-10.3h15.45a5.15,5.15,0,1,1,0,10.3Zm1.87-20.66H186a5.15,5.15,0,0,1,0-10.3h15.45a5.15,5.15,0,1,1,0,10.3Zm31.8,20.66H217.81a5.15,5.15,0,0,1,0-10.3h15.45a5.15,5.15,0,0,1,0,10.3Zm.72-20.66H218.53a5.15,5.15,0,0,1,0-10.3H234a5.15,5.15,0,0,1,0,10.3ZM413.22,365,419,379.35a5.15,5.15,0,0,1-9.56,3.84l-5.77-14.33a5.15,5.15,0,0,1,9.56-3.85Zm-13.94-34.66L405,344.69a5.15,5.15,0,0,1-9.55,3.84l-5.77-14.33a5.15,5.15,0,0,1,9.56-3.85Zm-19.5-26.85h8.69L393,314.79l-4.78,1.92h0l-4.78,1.93-1.29-3.22-.66-1.62H376.3v-5.15h0V303.5Zm-35.86,0h15.45a5.15,5.15,0,0,1,0,10.3H343.92a5.15,5.15,0,1,1,0-10.3Zm-37.53,0h15.45a5.15,5.15,0,0,1,0,10.3H306.39a5.15,5.15,0,1,1,0-10.3Zm-37.53,0h15.45a5.15,5.15,0,0,1,0,10.3H268.86a5.15,5.15,0,1,1,0-10.3Zm-1.93,136.8H251.48a5.15,5.15,0,0,1,0-10.3h15.45a5.15,5.15,0,0,1,0,10.3Zm-21-25.81a5.14,5.14,0,0,1,5.13-5.15H266.5a5.15,5.15,0,0,1,0,10.3H251.05A5.14,5.14,0,0,1,245.92,414.49Zm32.52,0a5.14,5.14,0,0,1,5.13-5.15H299a5.15,5.15,0,0,1,0,10.3H283.57A5.14,5.14,0,0,1,278.44,414.49ZM300.6,440.3H285.15a5.15,5.15,0,0,1,0-10.3H300.6a5.15,5.15,0,0,1,0,10.3Zm-54.25-78.83c0-20.11,27.13-35.28,63.11-35.28s63.11,15.17,63.11,35.28-27.13,35.28-63.11,35.28S246.35,381.59,246.35,361.47Zm64.61,53a5.14,5.14,0,0,1,5.13-5.15h15.46a5.15,5.15,0,0,1,0,10.3H316.09A5.14,5.14,0,0,1,311,414.49Zm23.32,25.81H318.82a5.15,5.15,0,0,1,0-10.3h15.46a5.15,5.15,0,1,1,0,10.3Zm9.2-25.81a5.15,5.15,0,0,1,5.14-5.15h15.45a5.15,5.15,0,0,1,0,10.3H348.62A5.15,5.15,0,0,1,343.48,414.49ZM368,440.3H352.5a5.15,5.15,0,0,1,0-10.3H368a5.15,5.15,0,1,1,0,10.3ZM376,414.49a5.15,5.15,0,0,1,5.14-5.15h15.45a5.15,5.15,0,1,1,0,10.3H381.14A5.15,5.15,0,0,1,376,414.49Zm25.62,25.81H386.17a5.15,5.15,0,0,1,0-10.3h15.45a5.15,5.15,0,1,1,0,10.3Zm6.91-25.81h0v-5.15H420l-.57-1.42-3.69-9.18,9.55-3.85,10,24.75H408.53Zm6.18,20.66h0V430h7.71v-7.72h10.3v18h-18Z"/><path class="cls-1" d="M427.57,422.28h-5.15v5.15A5.16,5.16,0,0,1,427.57,422.28Z"/><path class="cls-1" d="M435.2,419.64H416.13c-4.2,0-7.6-2.31-7.6-5.15v5.15Z"/><path class="cls-1" d="M416.12,409.34h-7.59v5.15C408.53,411.65,411.92,409.34,416.12,409.34Z"/><path class="cls-1" d="M106.65,303.5c1.89,0,3.41,2.31,3.41,5.15s-1.52,5.15-3.41,5.15h3.41V303.5Z"/><path class="cls-2" d="M484.32,477.53V15.59A15.59,15.59,0,0,0,468.73,0H15.59A15.59,15.59,0,0,0,0,15.59V477.53a15.59,15.59,0,0,0,15.59,15.59H468.73A15.59,15.59,0,0,0,484.32,477.53ZM207.8,336.91h-.08c-4.18-.05-8.17-3.47-10.23-5.76v-9.3a68.75,68.75,0,0,0,11.68,1c3,0,5.72-.14,8.25-.38v8.74C214.17,335,211,336.91,207.8,336.91Zm1.37-25.44a50.71,50.71,0,0,1-14.89-2,5.66,5.66,0,0,0-1.46-.47,28.24,28.24,0,0,1-7.1-3.53v-4.17a82.76,82.76,0,0,0,27.61,5.08,61.18,61.18,0,0,0,19.3-3v3.4C229.36,308.5,221.92,311.47,209.17,311.47Zm-178-128h143.2v60.77H31.18Zm166.89-127V48.46H229.6v8.08ZM256.59,69.6V80.89H178.66V69.6ZM246.25,172.17H244V115.56a5.67,5.67,0,0,0-4.72-5.59l-8.9-1.51V92.23h15.9ZM185.72,250V129.25l14.42-14.42,4.88.83a5.66,5.66,0,0,0,2.43.55c.21,0,.42,0,.62,0l24.56,4.17v139c-7,3.41-26.79,11-46.91.13Zm27.4-157.72H219v14.3l-5.89-1Zm-23.37,0h12v11.38l-2.63-.45a5.65,5.65,0,0,0-5,1.58l-4.45,4.44ZM178.48,268.34a57.74,57.74,0,0,0,29.64,8.13,68.56,68.56,0,0,0,31.69-8.13h1.9v17.55c-5.47,4.46-25.07,17-59.37,1.86h0a3.8,3.8,0,0,0-.47-.18l-.06,0a5.12,5.12,0,0,0-.56-.15h0a5.4,5.4,0,0,0-.58-.09,5.68,5.68,0,0,0-.59,0h-6.44V268.34ZM244,183.51H453.14v59.58H244ZM31.18,31.18h422v141H257.58V92.23h4.67a5.67,5.67,0,0,0,5.67-5.67V63.93a5.67,5.67,0,0,0-5.67-5.67H240.94V42.8a5.67,5.67,0,0,0-5.67-5.67H192.41a5.67,5.67,0,0,0-5.67,5.67V58.26H173a5.67,5.67,0,0,0-5.67,5.67V86.56A5.67,5.67,0,0,0,173,92.23h5.43v28.29L176,122.9a5.66,5.66,0,0,0-1.66,4v45.27H31.18Zm422,430.76h-422V255.62h143.2V257H168a5.66,5.66,0,0,0-5.67,5.66v30.26A5.66,5.66,0,0,0,168,298.6h6.43v9.46a5.69,5.69,0,0,0,1.49,3.84c.56.61,3.75,3.86,10.28,6.66v14.6a5.73,5.73,0,0,0,1,3.3,30.3,30.3,0,0,0,2.25,2.71,29.56,29.56,0,0,0,11.83,8V366.6l.87.81,5.3,5,4.68-4.22,1.71-1.55V347.29a22.23,22.23,0,0,0,2.71-1.09,31.52,31.52,0,0,0,11-9.6,5.7,5.7,0,0,0,1.15-3.44V320.38c8.57-2.38,12.65-5.73,13.29-6.29a5.66,5.66,0,0,0,1.93-4.26V298.11a38.22,38.22,0,0,0,7.54-5.84,5.63,5.63,0,0,0,1.54-3.87V262.67a5.66,5.66,0,0,0-5.67-5.66H244v-2.58H453.14Z"/><path class="cls-2" d="M226.57,232.42V205.18a5.67,5.67,0,0,0-5.67-5.67H197.7a5.67,5.67,0,0,0-5.67,5.67v27.24c0,8.19,6.74,13.91,16.38,13.91C220.21,246.33,226.57,239.16,226.57,232.42Zm-23.2-21.57h11.86v7.07H203.37Zm0,21.57v-3.16h11.86v3.16c0,.66-2.68,2.58-6.82,2.58a8,8,0,0,1-4.24-1A1.58,1.58,0,0,1,203.37,232.42Z"/><path class="cls-2" d="M401.62,430H386.17a5.15,5.15,0,0,0,0,10.3h15.45a5.15,5.15,0,1,0,0-10.3Z"/><path class="cls-2" d="M352.5,430a5.15,5.15,0,0,0,0,10.3H368a5.15,5.15,0,1,0,0-10.3Z"/><path class="cls-2" d="M318.82,430a5.15,5.15,0,0,0,0,10.3h15.46a5.15,5.15,0,1,0,0-10.3Z"/><path class="cls-2" d="M300.6,430H285.15a5.15,5.15,0,0,0,0,10.3H300.6a5.15,5.15,0,0,0,0-10.3Z"/><path class="cls-2" d="M266.93,430H251.48a5.15,5.15,0,0,0,0,10.3h15.45a5.15,5.15,0,0,0,0-10.3Z"/><path class="cls-2" d="M233.26,430H217.81a5.15,5.15,0,0,0,0,10.3h15.45a5.15,5.15,0,0,0,0-10.3Z"/><path class="cls-2" d="M199.59,430H184.14a5.15,5.15,0,0,0,0,10.3h15.45a5.15,5.15,0,1,0,0-10.3Z"/><path class="cls-2" d="M165.92,430H150.46a5.15,5.15,0,0,0,0,10.3h15.46a5.15,5.15,0,0,0,0-10.3Z"/><path class="cls-2" d="M132.24,430H116.79a5.15,5.15,0,0,0,0,10.3h15.45a5.15,5.15,0,0,0,0-10.3Z"/><path class="cls-2" d="M98.57,430H83.12a5.15,5.15,0,0,0,0,10.3H98.57a5.15,5.15,0,0,0,0-10.3Z"/><path class="cls-2" d="M427.58,422.28h0a5.16,5.16,0,0,0-5.15,5.15V430h-2.58a5.14,5.14,0,0,0-5.13,5.15h0a5.14,5.14,0,0,0,5.13,5.15h12.88V427.43A5.15,5.15,0,0,0,427.58,422.28Z"/><path class="cls-2" d="M64.9,430H62.33v-2.58a5.15,5.15,0,0,0-5.15-5.14h0A5.15,5.15,0,0,0,52,427.42V440.3H64.9a5.15,5.15,0,0,0,0-10.3Z"/><path class="cls-2" d="M268.86,313.8h15.45a5.15,5.15,0,0,0,0-10.3H268.86a5.15,5.15,0,1,0,0,10.3Z"/><path class="cls-2" d="M306.39,313.8h15.45a5.15,5.15,0,0,0,0-10.3H306.39a5.15,5.15,0,1,0,0,10.3Z"/><path class="cls-2" d="M343.92,313.8h15.45a5.15,5.15,0,0,0,0-10.3H343.92a5.15,5.15,0,1,0,0,10.3Z"/><path class="cls-2" d="M389.72,334.2l5.77,14.33a5.15,5.15,0,0,0,9.55-3.84l-5.76-14.34a5.15,5.15,0,0,0-9.56,3.85Z"/><path class="cls-2" d="M403.66,368.86l5.77,14.33a5.15,5.15,0,0,0,9.56-3.84L413.22,365a5.15,5.15,0,0,0-9.56,3.85Z"/><path class="cls-2" d="M381.14,419.64h15.45a5.15,5.15,0,1,0,0-10.3H381.14a5.15,5.15,0,0,0,0,10.3Z"/><path class="cls-2" d="M348.62,409.34a5.15,5.15,0,0,0,0,10.3h15.45a5.15,5.15,0,0,0,0-10.3Z"/><path class="cls-2" d="M311,414.49a5.14,5.14,0,0,0,5.13,5.15h15.46a5.15,5.15,0,0,0,0-10.3H316.09A5.14,5.14,0,0,0,311,414.49Z"/><path class="cls-2" d="M278.44,414.49a5.14,5.14,0,0,0,5.13,5.15H299a5.15,5.15,0,0,0,0-10.3H283.57A5.14,5.14,0,0,0,278.44,414.49Z"/><path class="cls-2" d="M251.05,419.64H266.5a5.15,5.15,0,0,0,0-10.3H251.05a5.15,5.15,0,0,0,0,10.3Z"/><path class="cls-2" d="M234,409.34H218.53a5.15,5.15,0,0,0,0,10.3H234a5.15,5.15,0,0,0,0-10.3Z"/><path class="cls-2" d="M201.46,409.34H186a5.15,5.15,0,0,0,0,10.3h15.45a5.15,5.15,0,1,0,0-10.3Z"/><path class="cls-2" d="M168.94,409.34H153.48a5.15,5.15,0,0,0,0,10.3h15.46a5.15,5.15,0,0,0,0-10.3Z"/><path class="cls-2" d="M136.42,409.34H121a5.15,5.15,0,0,0,0,10.3h15.46a5.15,5.15,0,0,0,0-10.3Z"/><path class="cls-2" d="M103.89,409.34H88.44a5.15,5.15,0,0,0,0,10.3h15.45a5.15,5.15,0,1,0,0-10.3Z"/><path class="cls-2" d="M69.2,385.77A5.14,5.14,0,0,0,75.94,383l6-14.25a5.15,5.15,0,0,0-9.5-4l-6,14.26A5.14,5.14,0,0,0,69.2,385.77Z"/><path class="cls-2" d="M83.7,351.16a5.15,5.15,0,0,0,6.74-2.76l6-14.25a5.15,5.15,0,0,0-9.5-4l-6,14.25A5.15,5.15,0,0,0,83.7,351.16Z"/><path class="cls-2" d="M149.52,308.65a5.15,5.15,0,0,0-5.14-5.15H128.93a5.15,5.15,0,0,0,0,10.3h15.45A5.15,5.15,0,0,0,149.52,308.65Z"/><path class="cls-2" d="M379.78,313.8h1.73l.66,1.62c.71,1.78,3.44,2.35,6.07,1.29h0c2.63-1.06,4.2-3.36,3.48-5.14l-3.25-8.07h-8.69c-1.93,0-3.48,2.31-3.48,5.15h0C376.3,311.49,377.85,313.8,379.78,313.8Z"/><path class="cls-2" d="M418.53,405.81l.85,2.11.57,1.42h-3.83c-4.2,0-7.59,2.31-7.59,5.15h0c0,2.84,3.4,5.15,7.6,5.15H435.2L428.09,402c-1.58-3.91-5-6.2-7.62-5.14S417,401.89,418.53,405.81Z"/><path class="cls-2" d="M68.78,409.34H64.92l1.5-3.59c1.65-3.93.85-8-1.77-9.1h0c-2.62-1.1-6.08,1.19-7.73,5.12l-2.22,5.3-5.26,12.57H68.78c4.29,0,7.74-2.31,7.74-5.15S73.07,409.34,68.78,409.34Z"/><path class="cls-2" d="M106.65,303.5H98.08l-3.31,7.9c-.73,1.75.81,4.05,3.42,5.14s5.34.59,6.08-1.16l.66-1.58h1.72c1.89,0,3.41-2.32,3.41-5.15S108.54,303.5,106.65,303.5Z"/><path class="cls-3" d="M309.46,326.19c-36,0-63.11,15.17-63.11,35.28s27.13,35.28,63.11,35.28,63.11-15.16,63.11-35.28S345.44,326.19,309.46,326.19Zm0,53.56c-28.14,0-46.1-10.83-46.1-18.28s18-18.27,46.1-18.27,46.1,10.82,46.1,18.27S337.6,379.75,309.46,379.75Z"/><path class="cls-3" d="M213.84,347.29V366.6l-1.71,1.55-4.68,4.22-5.3-5-.87-.81V347.16a29.56,29.56,0,0,1-11.83-8,30.3,30.3,0,0,1-2.25-2.71,5.73,5.73,0,0,1-1-3.3v-3.83a111.54,111.54,0,0,0-26.92-3.14c-36,0-63.1,15.17-63.1,35.28s27.13,35.28,63.1,35.28,63.11-15.16,63.11-35.28a24,24,0,0,0-5.79-15.27A22.23,22.23,0,0,1,213.84,347.29Z"/><path class="cls-3" d="M309.46,349c-9.67,0-16.69,5.27-16.69,12.52s7,12.52,16.69,12.52,16.69-5.26,16.69-12.52S319.13,349,309.46,349Zm0,14.52a6.61,6.61,0,0,1,0-4,6.41,6.41,0,0,1,0,4Z"/></g></svg>