<svg xmlns="http://www.w3.org/2000/svg" viewBox="0 0 484.32 493.12"><defs><style>.cls-1{fill:none;}.cls-2{fill:#cf0245;}.cls-3{fill:#2a1536;}</style></defs><g id="EXPANDED"><path class="cls-1" d="M387.38,203c11.75-14.95,22.82-30.46,33.54-45.48,8.48-11.88,17.18-24.07,26.28-36.08H37c9.1,12,17.81,24.2,26.28,36.08C74,172.57,85,188.08,96.79,203H387.38Z"/><path class="cls-1" d="M119.9,329.9l-.34,0-.34,0-.34-.06-.32-.07-.32-.08-.32-.09-.3-.11-.3-.11-.25-.11a5.13,5.13,0,0,1-2.6.73h5.78Z"/><path class="cls-1" d="M367.36,329.3l-.29.11-.3.11-.32.09-.31.08-.33.07-.33.06-.34,0-.34,0-.35,0H370a5,5,0,0,1-2.5-.67Z"/><polygon class="cls-1" points="360.87 330.67 360.68 330.03 360.71 330.12 360.87 330.67"/><polygon class="cls-1" points="361.79 333.89 361.85 334.24 361.9 334.57 361.94 334.91 361.96 335.24 361.98 335.57 361.97 335.9 361.96 336.22 361.93 336.53 361.89 336.84 361.84 337.15 361.78 337.45 361.71 337.74 361.62 338.02 361.52 338.3 361.42 338.57 361.3 338.83 361.17 339.08 361.03 339.32 360.88 339.55 360.71 339.77 360.54 339.97 360.36 340.17 360.17 340.35 359.97 340.52 359.77 340.68 359.55 340.82 359.32 340.95 359.09 341.07 358.84 341.16 358.6 341.25 363.54 339.8 361.61 333.21 361.71 333.55 361.79 333.89"/><polygon class="cls-1" points="137.78 319.73 137.69 320.04 137.33 321.28 135.87 326.24 132.95 336.15 132.84 336.48 132.72 336.81 132.59 337.13 132.46 337.44 132.31 337.75 132.15 338.04 131.98 338.32 131.8 338.6 131.62 338.86 131.43 339.11 131.23 339.35 131.02 339.58 130.81 339.8 130.59 340 130.36 340.2 130.13 340.38 129.89 340.54 129.65 340.7 129.41 340.84 129.16 340.96 128.91 341.08 128.66 341.17 128.4 341.26 128.14 341.32 127.88 341.38 127.62 341.41 127.36 341.43 127.1 341.44 126.84 341.42 126.58 341.39 126.33 341.34 126.07 341.28 125.82 341.19 125.58 341.09 125.34 340.98 125.11 340.85 124.9 340.71 124.69 340.55 124.49 340.38 124.3 340.19 124.12 340 123.95 339.79 123.79 339.57 123.64 339.34 123.5 339.1 123.37 338.85 123.25 338.59 123.15 338.32 123.05 338.04 122.96 337.76 122.89 337.47 122.83 337.17 122.78 336.86 122.74 336.55 122.72 336.24 122.7 335.92 122.7 335.59 122.71 335.26 122.74 334.93 122.78 334.59 122.83 334.26 122.89 333.92 122.97 333.58 123.07 333.24 123.8 330.76 123.98 330.14 124.03 329.99 124.03 329.95 121.13 339.82 131.01 342.73 137.81 319.64 137.8 319.66 137.78 319.73"/><polygon class="cls-1" points="358.08 341.36 357.82 341.39 357.56 341.4 357.3 341.4 357.04 341.38 356.78 341.34 356.52 341.29 356.26 341.22 356.01 341.14 355.75 341.04 355.5 340.93 355.26 340.8 355.01 340.66 354.77 340.51 354.54 340.34 354.31 340.16 354.08 339.97 353.86 339.76 353.65 339.54 353.44 339.31 353.24 339.07 353.05 338.82 352.87 338.56 352.69 338.28 352.52 338 352.36 337.7 352.21 337.4 352.08 337.09 351.95 336.77 351.83 336.44 351.73 336.1 348.84 326.21 347.39 321.26 347.03 320.02 346.94 319.71 346.92 319.64 346.92 319.63 346.92 319.62 346.92 319.62 353.65 342.69 358.59 341.25 358.34 341.31 358.08 341.36"/><polygon class="cls-1" points="360.66 329.95 360.65 329.93 360.65 329.93 360.66 329.95"/><path class="cls-1" d="M364.8,319.65l.34,0,.34.05.33,0,.33.07.31.09.32.09.3.1.29.11.11.05a5.16,5.16,0,0,1,2.5-.67h-5.52Z"/><polygon class="cls-1" points="137.81 319.62 137.81 319.63 137.81 319.64 137.81 319.62 137.81 319.62 137.81 319.62"/><path class="cls-1" d="M117.32,320.24l.3-.11.3-.1.32-.09.32-.09.32-.07.34,0,.34-.05.34,0,.35,0h-5.78a5.13,5.13,0,0,1,2.6.73Z"/><polygon class="cls-1" points="124.04 329.92 124.04 329.94 124.04 329.93 124.04 329.92"/><rect class="cls-1" x="224.75" y="214.37" width="34.96" height="21.02"/><path class="cls-1" d="M420.17,344.7c-10.85-32.33-22.06-65.74-34-98H98c-11.93,32.23-23.13,65.63-34,98-9.76,29.11-19.84,59.13-30.45,88.36H450.61C440,403.83,429.93,373.81,420.17,344.7ZM376,280.3a5,5,0,0,1,7.31,1.39c.8,1.16,1.45,2.45,2.18,3.68.34.63.65,1.3,1,1.95s.65,1.35.88,1.91l3.11,7.06a5.15,5.15,0,0,1-9.45,4.12l-3.1-7.08c-.27-.63-.51-1.08-.75-1.6s-.47-1-.74-1.51c-.6-1-1.1-2-1.76-3A5.35,5.35,0,0,1,376,280.3Zm-29.35-20.94a5,5,0,0,1,2.67-3,5.37,5.37,0,0,1,4.18.06A68.27,68.27,0,0,1,367.83,265a5.23,5.23,0,0,1,2.05,3.62,4.88,4.88,0,0,1-1.28,3.76,5.42,5.42,0,0,1-3.5,1.74,5,5,0,0,1-3.59-1,57.21,57.21,0,0,0-12.13-7.23,4.85,4.85,0,0,1-2.55-2.66A5.45,5.45,0,0,1,346.63,259.36ZM309.46,360.21a8.51,8.51,0,0,1-8.5,8.51H193.75a8.51,8.51,0,1,1,0-17H301A8.51,8.51,0,0,1,309.46,360.21Zm-10.8-17.3a8.49,8.49,0,0,1-7.29,4.13h-88a8.51,8.51,0,0,1-7.51-12.5L211.56,305a8.5,8.5,0,0,1,7.5-4.51h56.58a8.53,8.53,0,0,1,7.51,4.51l15.73,29.57A8.5,8.5,0,0,1,298.66,342.91ZM284.3,255l2.37-3.58h7.71a5.15,5.15,0,0,1,0,10.3h-1.54v.39a25.24,25.24,0,0,1-.11,2.6,5.66,5.66,0,0,1-2.47,4.19,4.16,4.16,0,0,1-4,.21,7.21,7.21,0,0,1-2.88-2.58,4.37,4.37,0,0,1-.9-2.88,12.74,12.74,0,0,0,.06-1.38s0-.42-.06-.72l-.1-.93a4.32,4.32,0,0,0-.06-.47l-.13-.52-.27-1Zm-23.8,24.71a5.12,5.12,0,0,1,3.08-2.13l1.74-.38,1.69-.47c1.15-.29,2.21-.7,3.31-1.06a31.66,31.66,0,0,0,5.9-2.87,3.28,3.28,0,0,1,1.54-.6,5,5,0,0,1,1.73,0,6.67,6.67,0,0,1,3.51,1.66,4.36,4.36,0,0,1,1.35,3.76,5.53,5.53,0,0,1-.79,2.1,6.54,6.54,0,0,1-1.72,1.72,48.46,48.46,0,0,1-16.07,6.21,5.09,5.09,0,0,1-4-.75,4.84,4.84,0,0,1-2.09-3.34A5.51,5.51,0,0,1,260.5,279.74Zm-32.33,4.51a5.25,5.25,0,0,1,5.38-4.79c2.47.16,5,.15,7.46.2s5,0,7.47-.2a5.25,5.25,0,0,1,5.39,4.79,5.05,5.05,0,0,1-4.87,5.5c-2.68.17-5.33.16-8,.21s-5.3,0-8-.21A5,5,0,0,1,228.17,284.25Zm-23.9-12a3.59,3.59,0,0,1,1.55.6,31.57,31.57,0,0,0,5.89,2.87c1.09.37,2.16.78,3.31,1.06l1.69.47,1.74.39a5.14,5.14,0,0,1,3.09,2.13,5.51,5.51,0,0,1,.87,3.84,4.84,4.84,0,0,1-2.09,3.34,5.12,5.12,0,0,1-4.07.75,48.74,48.74,0,0,1-16.06-6.22,6.85,6.85,0,0,1-1.72-1.72,5.4,5.4,0,0,1-.78-2.09,4.34,4.34,0,0,1,1.36-3.76,6.6,6.6,0,0,1,3.5-1.66A5.22,5.22,0,0,1,204.27,272.22ZM114.87,265a63.94,63.94,0,0,1,14.32-8.72,5.18,5.18,0,0,1,4.22-.06,4.85,4.85,0,0,1,2.66,3,5.5,5.5,0,0,1-.21,3.89,5.09,5.09,0,0,1-2.54,2.65,53.66,53.66,0,0,0-12,7.3,5,5,0,0,1-3.55,1,5.43,5.43,0,0,1-3.53-1.66,4.91,4.91,0,0,1-1.36-3.73A5.24,5.24,0,0,1,114.87,265Zm-21.8,31.41,3-7.17c.23-.58.56-1.25.87-1.9s.61-1.3.94-1.94c.7-1.22,1.35-2.5,2.12-3.67a5,5,0,0,1,7.29-1.52,5.35,5.35,0,0,1,1.46,7c-.66,1-1.16,2-1.75,3-.26.51-.49,1-.74,1.54s-.49,1-.74,1.62l-2.95,7.1a5.1,5.1,0,0,1-6.7,2.73A5.18,5.18,0,0,1,93.07,296.44ZM79.18,329.92l5.89-14.22a5.18,5.18,0,0,1,6.74-2.81,5.11,5.11,0,0,1,2.8,6.69c0,.08,0,0,0,0a5.09,5.09,0,0,1,2.2.52,5.1,5.1,0,0,1,2.21-.52h38.79v0h0L131,342.73l-9.88-2.91L124,330h0v0H99a5.09,5.09,0,0,1-2.21-.51,5.08,5.08,0,0,1-2.2.51Zm48.71,23.39-4.36,14.82a5.15,5.15,0,0,1-9.88-2.91L118,350.4a5.15,5.15,0,1,1,9.88,2.91Zm-17.24,71.74H96l4.12-14A5.15,5.15,0,0,1,110,414l-.23.8h.85a5.15,5.15,0,0,1,0,10.3ZM119,383.63l-4.36,14.82a5.15,5.15,0,0,1-9.88-2.91l4.36-14.82a5.15,5.15,0,0,1,9.88,2.91Zm22.65,41.42H126.15a5.15,5.15,0,0,1,0-10.3h15.46a5.15,5.15,0,0,1,0,10.3Zm6.48-164.62a5.66,5.66,0,0,1-1.8-3.47,4.75,4.75,0,0,1,1.19-3.78,5.61,5.61,0,0,1,3.86-1.7c.74,0,1.36,0,2,0h13.53a5.15,5.15,0,0,1,0,10.3H153.34c-.64,0-1.3,0-1.85,0A4.57,4.57,0,0,1,148.09,260.43Zm24.48,164.62H157.11a5.15,5.15,0,0,1,0-10.3h15.46a5.15,5.15,0,0,1,0,10.3Zm15.07-173.6h7.74l2.37,3.58,2.37,3.59-.27,1a4.35,4.35,0,0,0-.2,1l-.09.92c0,.29-.08.69-.07.72,0,.47,0,.92.06,1.38a4.38,4.38,0,0,1-.9,2.89,7.14,7.14,0,0,1-2.88,2.58,4.16,4.16,0,0,1-4-.21,5.65,5.65,0,0,1-2.46-4.21,20.48,20.48,0,0,1-.11-2.59v-.38h-1.56a5.15,5.15,0,0,1,0-10.3Zm15.89,173.6H188.08a5.15,5.15,0,0,1,0-10.3h15.45a5.15,5.15,0,0,1,0,10.3Zm31,0H219a5.15,5.15,0,0,1,0-10.3h15.45a5.15,5.15,0,0,1,0,10.3Zm31,0H250a5.15,5.15,0,0,1,0-10.3h15.45a5.15,5.15,0,0,1,0,10.3Zm31,0H281a5.15,5.15,0,1,1,0-10.3h15.45a5.15,5.15,0,0,1,0,10.3Zm31,0H311.92a5.15,5.15,0,1,1,0-10.3h15.45a5.15,5.15,0,0,1,0,10.3Zm8.71-168a5.47,5.47,0,0,1-1.81,3.43,4.68,4.68,0,0,1-3.42,1.36l-.87-.05H315.5a5.15,5.15,0,0,1,0-10.3H330l1.05.05a5.61,5.61,0,0,1,3.87,1.69A4.87,4.87,0,0,1,336.08,257Zm22.25,168H342.88a5.15,5.15,0,1,1,0-10.3h15.45a5.15,5.15,0,0,1,0,10.3Zm1.91-78.17a5.14,5.14,0,0,1,6.38,3.48L371,365.2a5.15,5.15,0,0,1-9.89,2.88l-4.33-14.83A5.14,5.14,0,0,1,360.24,346.88Zm8.85,30.34a5.15,5.15,0,0,1,6.39,3.48l4.33,14.83a5.15,5.15,0,1,1-9.89,2.89l-4.33-14.83A5.14,5.14,0,0,1,369.09,377.22Zm4.75,47.83a5.15,5.15,0,1,1,0-10.3h.85l-.24-.83a5.15,5.15,0,0,1,9.88-2.88l4.1,14Zm15.9-95.13c-.44,0-.49,0-.69,0l-.52-.08a5.34,5.34,0,0,1-1-.3l-.08,0a5.08,5.08,0,0,1-2.07.44H360.65v0l0,.08.19.64.74,2.54,1.93,6.59-4.94,1.45h0l-4.94,1.44-6.73-23.07h38.5a5.09,5.09,0,0,1,2.07.45l.08,0a5.34,5.34,0,0,1,1-.3,4.34,4.34,0,0,1,.52-.08l.36,0h0l0-.11-.09-.25c-.05-.16-.1-.33-.14-.5a5.67,5.67,0,0,1-.11-1,5.16,5.16,0,0,1,7-4.87,5.23,5.23,0,0,1,1.67,1.05,5.37,5.37,0,0,1,.66.76c.1.14.19.28.28.43l.12.23.17.38,6.22,14.17Z"/><path class="cls-1" d="M88.73,239.08a5.68,5.68,0,0,1,5.32-3.69H213.42v-21H94a5.66,5.66,0,0,1-4.44-2.15C77,196.39,65.34,180,54,164.13c-7.4-10.37-15-21-22.84-31.49V405.93c7.58-21.64,14.92-43.48,22.08-64.83C64.55,307.43,76.23,272.63,88.73,239.08Z"/><polygon class="cls-1" points="453.05 90.32 335.74 90.32 316.46 90.32 174.72 90.32 155.44 90.32 31.18 90.32 31.18 110.13 453.05 110.13 453.05 90.32"/><path class="cls-1" d="M149.77,50.31a5.66,5.66,0,0,1,5.67-5.66h180.3a5.66,5.66,0,0,1,5.67,5.66V79H453.14V31.18h-422V79H149.77Z"/><rect class="cls-1" x="31.19" y="444.4" width="421.93" height="17.54"/><path class="cls-1" d="M394.57,212.22a5.65,5.65,0,0,1-4.44,2.15H271.06v21H390.13a5.67,5.67,0,0,1,5.31,3.69c12.5,33.55,24.18,68.36,35.48,102,7.2,21.49,14.59,43.47,22.22,65.24V132.45c-7.9,10.56-15.54,21.24-23,31.68C418.83,180,407.13,196.39,394.57,212.22Z"/><path class="cls-1" d="M174.72,61.82H316.46a5.66,5.66,0,0,1,5.67,5.66V79h7.94V56h-169V79h8V67.48A5.66,5.66,0,0,1,174.72,61.82Z"/><rect class="cls-1" x="180.38" y="73.15" width="130.41" height="5.83"/><path class="cls-2" d="M203.33,347h88a8.51,8.51,0,0,0,7.51-12.5L283.15,305a8.53,8.53,0,0,0-7.51-4.51H219.06a8.5,8.5,0,0,0-7.5,4.51l-15.74,29.57a8.51,8.51,0,0,0,7.51,12.5Z"/><path class="cls-2" d="M301,351.71H193.75a8.51,8.51,0,1,0,0,17H301a8.51,8.51,0,0,0,0-17Z"/><path class="cls-3" d="M468.73,0H15.59A15.59,15.59,0,0,0,0,15.59V477.53a15.59,15.59,0,0,0,15.59,15.59H468.73a15.59,15.59,0,0,0,15.59-15.59V15.59A15.59,15.59,0,0,0,468.73,0ZM31.18,90.32H453.05v19.81H31.18Zm285.28-28.5H174.72a5.66,5.66,0,0,0-5.67,5.66V79h-8V56h169V79h-7.94V67.48A5.66,5.66,0,0,0,316.46,61.82Zm-5.67,11.33V79H180.38V73.15Zm-45.4,173.58h120.8c11.92,32.23,23.13,65.64,34,98,9.76,29.11,19.83,59.13,30.44,88.36h-417C44.17,403.83,54.25,373.81,64,344.7c10.85-32.34,22-65.74,34-98h167.4Zm-40.64-11.34v-21h35v21ZM219.08,203H96.79C85,188.08,74,172.57,63.25,157.55,54.78,145.67,46.07,133.48,37,121.47H447.2c-9.1,12-17.8,24.2-26.28,36.08-10.72,15-21.79,30.53-33.54,45.48H219.08ZM31.18,132.64C39,143.14,46.62,153.76,54,164.13,65.34,180,77,196.39,89.6,212.22A5.66,5.66,0,0,0,94,214.37H213.42v21H94.05a5.68,5.68,0,0,0-5.32,3.69c-12.5,33.55-24.18,68.35-35.47,102-7.16,21.35-14.5,43.19-22.08,64.83Zm421.94,329.3H31.19V444.4H453.12Zm0-55.6c-7.63-21.77-15-43.75-22.22-65.24-11.3-33.66-23-68.47-35.48-102a5.67,5.67,0,0,0-5.31-3.69H271.06v-21H390.13a5.65,5.65,0,0,0,4.44-2.15c12.56-15.83,24.26-32.23,35.58-48.09,7.45-10.44,15.09-21.12,23-31.68Zm0-327.35H341.41V50.31a5.66,5.66,0,0,0-5.67-5.66H155.44a5.66,5.66,0,0,0-5.67,5.66V79H31.18V31.18h422Z"/><path class="cls-3" d="M261.72,286.92a5.09,5.09,0,0,0,4,.75,48.46,48.46,0,0,0,16.07-6.21,6.54,6.54,0,0,0,1.72-1.72,5.53,5.53,0,0,0,.79-2.1,4.36,4.36,0,0,0-1.35-3.76,6.67,6.67,0,0,0-3.51-1.66,5,5,0,0,0-1.73,0,3.28,3.28,0,0,0-1.54.6,31.66,31.66,0,0,1-5.9,2.87c-1.1.36-2.16.77-3.31,1.06l-1.69.47-1.74.38a5.12,5.12,0,0,0-3.08,2.13,5.51,5.51,0,0,0-.87,3.84A4.84,4.84,0,0,0,261.72,286.92Z"/><path class="cls-3" d="M233,289.75c2.68.17,5.32.16,8,.21s5.31,0,8-.21a5.05,5.05,0,0,0,4.87-5.5,5.25,5.25,0,0,0-5.39-4.79c-2.47.16-5,.15-7.47.2s-5,0-7.46-.2a5.25,5.25,0,0,0-5.38,4.79A5,5,0,0,0,233,289.75Z"/><path class="cls-3" d="M216.71,277.22l-1.69-.47c-1.15-.28-2.22-.69-3.31-1.06a31.57,31.57,0,0,1-5.89-2.87,3.59,3.59,0,0,0-1.55-.6,5.22,5.22,0,0,0-1.72,0,6.6,6.6,0,0,0-3.5,1.66,4.34,4.34,0,0,0-1.36,3.76,5.4,5.4,0,0,0,.78,2.09,6.85,6.85,0,0,0,1.72,1.72,48.74,48.74,0,0,0,16.06,6.22,5.12,5.12,0,0,0,4.07-.75,4.84,4.84,0,0,0,2.09-3.34,5.51,5.51,0,0,0-.87-3.84,5.14,5.14,0,0,0-3.09-2.13Z"/><path class="cls-3" d="M187.64,261.75h1.56v.38a20.48,20.48,0,0,0,.11,2.59,5.65,5.65,0,0,0,2.46,4.21,4.16,4.16,0,0,0,4,.21,7.14,7.14,0,0,0,2.88-2.58,4.38,4.38,0,0,0,.9-2.89c0-.46-.06-.91-.06-1.38,0,0,0-.43.07-.72l.09-.92a4.35,4.35,0,0,1,.2-1l.27-1L197.75,255l-2.37-3.58h-7.74a5.15,5.15,0,0,0,0,10.3Z"/><path class="cls-3" d="M155.28,261.75h11.59a5.15,5.15,0,0,0,0-10.3H153.34c-.64,0-1.26,0-2,0a5.61,5.61,0,0,0-3.86,1.7,4.75,4.75,0,0,0-1.19,3.78,5.66,5.66,0,0,0,1.8,3.47,4.57,4.57,0,0,0,3.4,1.35c.55,0,1.21,0,1.85,0Z"/><path class="cls-3" d="M117.78,274.09a5,5,0,0,0,3.55-1,53.66,53.66,0,0,1,12-7.3,5.09,5.09,0,0,0,2.54-2.65,5.5,5.5,0,0,0,.21-3.89,4.85,4.85,0,0,0-2.66-3,5.18,5.18,0,0,0-4.22.06A63.94,63.94,0,0,0,114.87,265a5.24,5.24,0,0,0-2,3.67,4.91,4.91,0,0,0,1.36,3.73A5.43,5.43,0,0,0,117.78,274.09Z"/><path class="cls-3" d="M95.84,303.2a5.1,5.1,0,0,0,6.7-2.73l2.95-7.1c.25-.63.5-1.11.74-1.62s.48-1,.74-1.54c.59-1,1.09-2,1.75-3a5.35,5.35,0,0,0-1.46-7,5,5,0,0,0-7.29,1.52c-.77,1.17-1.42,2.45-2.12,3.67-.33.64-.63,1.3-.94,1.94s-.64,1.32-.87,1.9l-3,7.17A5.18,5.18,0,0,0,95.84,303.2Z"/><path class="cls-3" d="M124.41,346.91a5.16,5.16,0,0,0-6.4,3.49l-4.36,14.82a5.15,5.15,0,0,0,9.88,2.91l4.36-14.82A5.15,5.15,0,0,0,124.41,346.91Z"/><path class="cls-3" d="M115.48,377.24a5.14,5.14,0,0,0-6.4,3.48l-4.36,14.82a5.15,5.15,0,0,0,9.88,2.91L119,383.63A5.14,5.14,0,0,0,115.48,377.24Z"/><path class="cls-3" d="M110.65,414.75h-.85l.23-.8a5.15,5.15,0,0,0-9.88-2.91l-4.12,14h14.62a5.15,5.15,0,0,0,0-10.3Z"/><path class="cls-3" d="M141.61,414.75H126.15a5.15,5.15,0,0,0,0,10.3h15.46a5.15,5.15,0,0,0,0-10.3Z"/><path class="cls-3" d="M172.57,414.75H157.11a5.15,5.15,0,0,0,0,10.3h15.46a5.15,5.15,0,0,0,0-10.3Z"/><path class="cls-3" d="M203.53,414.75H188.08a5.15,5.15,0,0,0,0,10.3h15.45a5.15,5.15,0,0,0,0-10.3Z"/><path class="cls-3" d="M234.49,414.75H219a5.15,5.15,0,0,0,0,10.3h15.45a5.15,5.15,0,0,0,0-10.3Z"/><path class="cls-3" d="M265.45,414.75H250a5.15,5.15,0,0,0,0,10.3h15.45a5.15,5.15,0,0,0,0-10.3Z"/><path class="cls-3" d="M281,414.75a5.15,5.15,0,1,0,0,10.3h15.45a5.15,5.15,0,0,0,0-10.3Z"/><path class="cls-3" d="M311.92,425.05h15.45a5.15,5.15,0,0,0,0-10.3H311.92a5.15,5.15,0,1,0,0,10.3Z"/><path class="cls-3" d="M342.88,425.05h15.45a5.15,5.15,0,0,0,0-10.3H342.88a5.15,5.15,0,1,0,0,10.3Z"/><path class="cls-3" d="M378,407.55a5.14,5.14,0,0,0-3.5,6.37l.24.83h-.85a5.15,5.15,0,1,0,0,10.3h14.59l-4.1-14A5.14,5.14,0,0,0,378,407.55Z"/><path class="cls-3" d="M376.31,401.92a5.16,5.16,0,0,0,3.5-6.39l-4.33-14.83a5.15,5.15,0,0,0-9.89,2.89l4.33,14.83A5.15,5.15,0,0,0,376.31,401.92Z"/><path class="cls-3" d="M371,365.2l-4.33-14.84a5.15,5.15,0,0,0-9.89,2.89l4.33,14.83A5.15,5.15,0,0,0,371,365.2Z"/><path class="cls-3" d="M376.39,290.22c.27.5.49,1,.74,1.51s.48,1,.75,1.6l3.1,7.08a5.15,5.15,0,0,0,9.45-4.12l-3.11-7.06c-.23-.56-.57-1.26-.88-1.91s-.63-1.32-1-1.95c-.73-1.23-1.38-2.52-2.18-3.68A5,5,0,0,0,376,280.3a5.35,5.35,0,0,0-1.35,7C375.29,288.22,375.79,289.24,376.39,290.22Z"/><path class="cls-3" d="M349.38,265.91a57.21,57.21,0,0,1,12.13,7.23,5,5,0,0,0,3.59,1,5.42,5.42,0,0,0,3.5-1.74,4.88,4.88,0,0,0,1.28-3.76,5.23,5.23,0,0,0-2.05-3.62,68.27,68.27,0,0,0-14.35-8.54,5.37,5.37,0,0,0-4.18-.06,5,5,0,0,0-2.67,3,5.45,5.45,0,0,0,.2,3.89A4.85,4.85,0,0,0,349.38,265.91Z"/><path class="cls-3" d="M315.5,261.75H330l.87.05a4.68,4.68,0,0,0,3.42-1.36,5.47,5.47,0,0,0,1.81-3.43,4.87,4.87,0,0,0-1.16-3.82,5.61,5.61,0,0,0-3.87-1.69l-1.05-.05H315.5a5.15,5.15,0,0,0,0,10.3Z"/><path class="cls-3" d="M282.33,260.18a4.32,4.32,0,0,1,.06.47l.1.93c0,.3.07.68.06.72a12.74,12.74,0,0,1-.06,1.38,4.37,4.37,0,0,0,.9,2.88,7.21,7.21,0,0,0,2.88,2.58,4.16,4.16,0,0,0,4-.21,5.66,5.66,0,0,0,2.47-4.19,25.24,25.24,0,0,0,.11-2.6v-.39h1.54a5.15,5.15,0,0,0,0-10.3h-7.71L284.3,255l-2.37,3.59.27,1Z"/><path class="cls-3" d="M99,329.92h15.45a5.13,5.13,0,0,0,2.6-.73l.25.11.3.11.3.11.32.09.32.08.32.07.34.06.34,0,.34,0,.35,0H124v0l0,.16-.18.62-.73,2.48-.1.34-.07.34-.07.34,0,.33,0,.34,0,.33v.66l0,.32,0,.31,0,.31,0,.31.06.3.07.29.09.28.1.28.1.27.12.26.13.25.14.24.15.23.16.22.17.21.18.19.19.19.2.17.21.16.22.14.22.13.24.11.24.1.25.09.26.06.25.05.26,0,.26,0h.26l.26,0,.26,0,.26-.06.26-.06.26-.09.25-.09.25-.12.25-.12.24-.14.24-.16.24-.16.23-.18.22-.2.22-.2.22-.22.21-.23.2-.24.19-.25.18-.26.18-.28.17-.28.16-.29.15-.31.14-.31.12-.32.12-.33.11-.33,2.92-9.91,1.46-5,.36-1.24.09-.31,0-.07v0H120.25l-.35,0-.34,0-.34.05-.34,0-.32.07-.32.09-.32.09-.3.1-.3.11-.25.11a5.13,5.13,0,0,0-2.6-.73H99a5.1,5.1,0,0,0-2.21.52,5.09,5.09,0,0,0-2.2-.52s0,0,0,0a5.11,5.11,0,0,0-2.8-6.69,5.18,5.18,0,0,0-6.74,2.81l-5.89,14.22H94.61a5.08,5.08,0,0,0,2.2-.51A5.09,5.09,0,0,0,99,329.92Z"/><path class="cls-3" d="M367.36,320.24l-.29-.11-.3-.1-.32-.09-.31-.09-.33-.07-.33,0-.34-.05-.34,0-.35,0H346.92l0,.07.09.31.36,1.24,1.45,4.95,2.89,9.89.1.34.12.33.13.32.14.31.14.3.16.3.17.28.18.28.18.26.19.25.2.24.21.23.21.22.22.21.23.19.23.18.23.17.24.15.25.14.24.13.25.11.26.1.25.08.26.07.26,0,.26,0,.26,0h.52l.26,0,.26-.05.25-.06h0l.24-.09.25-.09.23-.12.23-.13.22-.14.2-.16.2-.17.19-.18.18-.2.18-.2.16-.22.15-.23.14-.24.13-.25.12-.26.1-.27.1-.28.09-.28.07-.29.06-.3.06-.31,0-.31,0-.31v-.65l0-.33,0-.33,0-.34,0-.34-.07-.33-.07-.35-.1-.34-.74-2.54-.16-.55,0-.09,0-.08v0h3.8l.35,0,.34,0,.34,0,.33-.06.33-.07.31-.08.32-.09.3-.11.29-.11.11-.05a5,5,0,0,0,2.5.67h15.45a5.08,5.08,0,0,0,2.07-.44l.08,0a5.34,5.34,0,0,0,1,.3l.52.08c.2,0,.25,0,.69,0h15.44L399,315.75l-.17-.38-.12-.23c-.09-.15-.18-.29-.28-.43a5.37,5.37,0,0,0-.66-.76,5.23,5.23,0,0,0-1.67-1.05,5.17,5.17,0,0,0-7,4.87,5.67,5.67,0,0,0,.11,1c0,.17.09.34.14.5l.09.25,0,.11h0l-.36,0a4.34,4.34,0,0,0-.52.08,5.34,5.34,0,0,0-1,.3l-.08,0a5.09,5.09,0,0,0-2.07-.45H370a5.16,5.16,0,0,0-2.5.67Z"/></g></svg>