<svg xmlns="http://www.w3.org/2000/svg" viewBox="0 0 484.32 493.12"><defs><style>.cls-1{fill:none;}.cls-2{fill:#cf0245;}.cls-3{fill:#2a1536;}</style></defs><g id="EXPANDED"><polygon class="cls-1" points="203.09 210.31 274.9 210.31 274.9 106.07 203.09 177.88 203.09 210.31"/><path class="cls-1" d="M174.33,128.48a14.31,14.31,0,0,0-3.89,4.74l16.46,16.46,4.32-4.31Z"/><polygon class="cls-1" points="203.25 149.37 203.24 149.38 203.24 149.38 190.91 161.71 185.19 167.43 191.35 173.59 276.5 88.44 270.34 82.28 268.68 83.94 256.35 96.27 203.25 149.37"/><path class="cls-1" d="M173.16,171.44a5.67,5.67,0,0,1,0-8l5.72-5.72-19.07-19.08a5.67,5.67,0,0,1-1.5-5.35c.12-.52,3.21-12.67,15.07-17.09a5.66,5.66,0,0,1,6,1.31l19.86,19.86,29.54-29.53H31.18v68.12H177.66Z"/><path class="cls-1" d="M244.33,92.26,225.25,73.18a5.68,5.68,0,0,1-1.5-5.36c.12-.51,3.22-12.66,15.07-17.08a5.66,5.66,0,0,1,6,1.3l19.86,19.87,1.66-1.66a5.68,5.68,0,0,1,8,0l14.18,14.18a5.67,5.67,0,0,1,0,8l-2.29,2.29v1.74H453.13V31.18H31.18v65.3H240.11Z"/><path class="cls-1" d="M239.77,63a14.47,14.47,0,0,0-3.88,4.74l16.45,16.46,4.32-4.31Z"/><polygon class="cls-1" points="173.41 408.22 317.58 410.62 239.07 389 173.41 408.22"/><path class="cls-1" d="M286.24,216a5.66,5.66,0,0,1-5.17,5.64v20.12l6.21,9.74a5.76,5.76,0,0,1,.88,3.05v26.33a5.66,5.66,0,0,1-3.13,5.07L276.85,290l0,10.06a5.68,5.68,0,0,1-2.11,4.43,41.34,41.34,0,0,1-4.72,3.12c-1.59,2.45-5.46,8.25-10,14.15-5.55,7.21-9.71,11.43-13,13.89a8.47,8.47,0,0,1,.42,2.63v22.62a5.09,5.09,0,0,1,3.3-1.23h15.45a5.15,5.15,0,1,1,0,10.3H250.8a5.1,5.1,0,0,1-3.3-1.24v4.93L386.79,412a8.51,8.51,0,0,1-2.26,16.71h-.14l-267.24-4.46a8.5,8.5,0,0,1-2.25-16.66l115.6-33.84V370H219.3a5.15,5.15,0,0,1,0-10.3h11.2V338.3a8.53,8.53,0,0,1,.38-2.54c-3-2.29-6.19-5.84-9.63-10.77a123,123,0,0,1-7.42-12.13,5.55,5.55,0,0,1-.65-2.51,49.63,49.63,0,0,1-10-5.85,5.67,5.67,0,0,1-2.09-4.38l0-10.09-8.21-4.1a5.66,5.66,0,0,1-3.13-5.07V254.53a5.63,5.63,0,0,1,.91-3.08l6.28-9.74V221.62a5.67,5.67,0,0,1-5.17-5.64V187.26l-.4,0H31.18V461.94h422V187.28H286.24ZM187.8,359.69h15.46a5.15,5.15,0,0,1,0,10.3H187.8a5.15,5.15,0,0,1,0-10.3Zm-31.5,0h15.46a5.15,5.15,0,0,1,0,10.3H156.3a5.15,5.15,0,0,1,0-10.3Zm-31.49,0h15.45a5.15,5.15,0,0,1,0,10.3H124.81a5.15,5.15,0,0,1,0-10.3ZM68.08,442.31a5.12,5.12,0,0,1-1.63,1.11,9.56,9.56,0,0,1-3.36.4H47.62l8-13.24c1.77-2.95,2.51-3.06,3.88-3.52a5.15,5.15,0,0,1,6.24,3.74c.41,1.13-.18,3.23.13,2.72.05,0-.27.15.63.41a4.94,4.94,0,0,1,1.63,1.1,5.14,5.14,0,0,1,0,7.28Zm4.18-29.52a5.14,5.14,0,0,1-1.78-7.05l8-13.25a5.15,5.15,0,1,1,8.83,5.3l-8,13.25A5.14,5.14,0,0,1,72.26,412.79Zm25.86,31H82.67a5.15,5.15,0,0,1,0-10.3H98.12a5.15,5.15,0,0,1,0,10.3ZM104,370l-2.49,4.13a5.15,5.15,0,0,1-8.83-5.3l5.49-9.13h10.63a5.15,5.15,0,0,1,0,10.3Zm27.84,73.83H116.34a5.15,5.15,0,0,1,0-10.3H131.8a5.15,5.15,0,0,1,0,10.3Zm33.67,0H150a5.15,5.15,0,1,1,0-10.3h15.45a5.15,5.15,0,0,1,0,10.3Zm33.67,0H183.69a5.15,5.15,0,0,1,0-10.3h15.45a5.15,5.15,0,0,1,0,10.3Zm33.67,0H217.36a5.15,5.15,0,0,1,0-10.3h15.45a5.15,5.15,0,0,1,0,10.3Zm33.68,0H251a5.15,5.15,0,1,1,0-10.3h15.46a5.15,5.15,0,0,1,0,10.3Zm33.67,0H284.7a5.15,5.15,0,0,1,0-10.3h15.46a5.15,5.15,0,0,1,0,10.3Zm33.67,0H318.38a5.15,5.15,0,0,1,0-10.3h15.45a5.15,5.15,0,0,1,0,10.3Zm33.67,0H352.05a5.15,5.15,0,0,1,0-10.3H367.5a5.15,5.15,0,0,1,0,10.3Zm33.67,0H385.72a5.15,5.15,0,0,1,0-10.3h15.45a5.15,5.15,0,0,1,0,10.3Zm16.21-9.89.48-.18c.13-.05.41-.09.34-.12v-.11l.09,0s0,0,0-.12l-.07-.25c0-.16-.06-.32-.08-.49a5.23,5.23,0,0,1,.14-2,5.13,5.13,0,0,1,2.4-3.12,5.18,5.18,0,0,1,5.68.35l.38.32.19.18a1.85,1.85,0,0,1,.24.31c.39.54.77,1.13,1.13,1.74l7.73,13.4H420.59c-.72,0-1.42,0-2.09-.1a2.61,2.61,0,0,1-.64-.13l-.48-.17a5.24,5.24,0,0,1-1.63-1.11,5.14,5.14,0,0,1,0-7.28A5,5,0,0,1,417.38,433.93Zm-18-43.32a5.14,5.14,0,0,1,7,1.87l7.72,13.39a5.15,5.15,0,1,1-8.92,5.14l-7.72-13.38A5.14,5.14,0,0,1,399.39,390.61ZM376.8,359.69h10.71l5.34,9.26a5.15,5.15,0,1,1-8.92,5.15L381.56,370H376.8a5.15,5.15,0,0,1,0-10.3Zm-31.5,0h15.45a5.15,5.15,0,0,1,0,10.3H345.3a5.15,5.15,0,0,1,0-10.3Zm-31.5,0h15.45a5.15,5.15,0,1,1,0,10.3H313.8a5.15,5.15,0,0,1,0-10.3Zm-10.9,5.15a5.14,5.14,0,0,1-5.15,5.15H282.3a5.15,5.15,0,0,1,0-10.3h15.45A5.14,5.14,0,0,1,302.9,364.84Z"/><path class="cls-1" d="M239,247.85a64.14,64.14,0,0,0,30.78-7.63V221.65H208.26v18.56A64.21,64.21,0,0,0,239,247.85Z"/><path class="cls-1" d="M201.07,277.35l20,10h35.81l20-10V256.18L273.55,251a77.35,77.35,0,0,1-69.14,0l-3.34,5.18Z"/><path class="cls-1" d="M239,304.56a51.31,51.31,0,0,0,26.59-7.44v-1.44l-4.81,2.4a5.54,5.54,0,0,1-2.53.6H219.7a5.57,5.57,0,0,1-2.53-.6l-4.74-2.37v1.41A50.88,50.88,0,0,0,239,304.56Z"/><path class="cls-1" d="M238.91,327.52c2.31-1,7.05-6,12.31-12.84a62.35,62.35,0,0,1-23.06.28C232.3,321.43,236.68,326.66,238.91,327.52Z"/><rect class="cls-1" x="286.24" y="107.82" width="166.9" height="68.13"/><path class="cls-2" d="M386.79,412,247.5,373.68V338.3a8.47,8.47,0,0,0-.42-2.63c-3.57,2.7-6.05,3.26-8.08,3.26a13.48,13.48,0,0,1-8.12-3.17,8.53,8.53,0,0,0-.38,2.54v35.49L114.9,407.63a8.5,8.5,0,0,0,2.25,16.66l267.24,4.46h.14A8.51,8.51,0,0,0,386.79,412Zm-213.38-3.82L239.07,389l78.51,21.62Z"/><path class="cls-3" d="M345.3,370h15.45a5.15,5.15,0,0,0,0-10.3H345.3a5.15,5.15,0,0,0,0,10.3Z"/><path class="cls-3" d="M313.8,370h15.45a5.15,5.15,0,1,0,0-10.3H313.8a5.15,5.15,0,0,0,0,10.3Z"/><path class="cls-3" d="M277.17,364.84A5.14,5.14,0,0,0,282.3,370h15.45a5.15,5.15,0,1,0,0-10.3H282.3A5.14,5.14,0,0,0,277.17,364.84Z"/><path class="cls-3" d="M266.25,370a5.15,5.15,0,1,0,0-10.3H250.8a5.09,5.09,0,0,0-3.3,1.23v7.83a5.1,5.1,0,0,0,3.3,1.24Z"/><path class="cls-3" d="M219.3,370h11.2v-10.3H219.3a5.15,5.15,0,0,0,0,10.3Z"/><path class="cls-3" d="M203.26,359.69H187.8a5.15,5.15,0,0,0,0,10.3h15.46a5.15,5.15,0,0,0,0-10.3Z"/><path class="cls-3" d="M171.76,359.69H156.3a5.15,5.15,0,0,0,0,10.3h15.46a5.15,5.15,0,0,0,0-10.3Z"/><path class="cls-3" d="M140.26,359.69H124.81a5.15,5.15,0,0,0,0,10.3h15.45a5.15,5.15,0,0,0,0-10.3Z"/><path class="cls-3" d="M113.91,364.84a5.15,5.15,0,0,0-5.15-5.15H98.13l-5.49,9.13a5.15,5.15,0,0,0,8.83,5.3L104,370h4.8A5.15,5.15,0,0,0,113.91,364.84Z"/><path class="cls-3" d="M79.31,411l8-13.25a5.15,5.15,0,1,0-8.83-5.3l-8,13.25a5.15,5.15,0,0,0,8.83,5.3Z"/><path class="cls-3" d="M66.45,433.93c-.9-.26-.58-.41-.63-.41-.31.51.28-1.59-.13-2.72a5.15,5.15,0,0,0-6.24-3.74c-1.37.46-2.11.57-3.88,3.52l-8,13.24H63.09a9.56,9.56,0,0,0,3.36-.4A5.15,5.15,0,0,0,68.08,435,4.94,4.94,0,0,0,66.45,433.93Z"/><path class="cls-3" d="M98.12,433.52H82.67a5.15,5.15,0,0,0,0,10.3H98.12a5.15,5.15,0,0,0,0-10.3Z"/><path class="cls-3" d="M131.8,433.52H116.34a5.15,5.15,0,0,0,0,10.3H131.8a5.15,5.15,0,0,0,0-10.3Z"/><path class="cls-3" d="M165.47,433.52H150a5.15,5.15,0,1,0,0,10.3h15.45a5.15,5.15,0,0,0,0-10.3Z"/><path class="cls-3" d="M199.14,433.52H183.69a5.15,5.15,0,0,0,0,10.3h15.45a5.15,5.15,0,0,0,0-10.3Z"/><path class="cls-3" d="M232.81,433.52H217.36a5.15,5.15,0,0,0,0,10.3h15.45a5.15,5.15,0,0,0,0-10.3Z"/><path class="cls-3" d="M266.49,433.52H251a5.15,5.15,0,1,0,0,10.3h15.46a5.15,5.15,0,0,0,0-10.3Z"/><path class="cls-3" d="M284.7,433.52a5.15,5.15,0,0,0,0,10.3h15.46a5.15,5.15,0,0,0,0-10.3Z"/><path class="cls-3" d="M318.38,433.52a5.15,5.15,0,0,0,0,10.3h15.45a5.15,5.15,0,0,0,0-10.3Z"/><path class="cls-3" d="M346.9,438.67a5.15,5.15,0,0,0,5.15,5.15H367.5a5.15,5.15,0,0,0,0-10.3H352.05A5.15,5.15,0,0,0,346.9,438.67Z"/><path class="cls-3" d="M401.17,433.52H385.72a5.15,5.15,0,0,0,0,10.3h15.45a5.15,5.15,0,0,0,0-10.3Z"/><path class="cls-3" d="M415.75,442.31a5.24,5.24,0,0,0,1.63,1.11l.48.17a2.61,2.61,0,0,0,.64.13c.67.06,1.37.1,2.09.1H436l-7.73-13.4c-.36-.61-.74-1.2-1.13-1.74a1.85,1.85,0,0,0-.24-.31l-.19-.18-.38-.32a5.18,5.18,0,0,0-5.68-.35,5.13,5.13,0,0,0-2.4,3.12,5.23,5.23,0,0,0-.14,2c0,.17.05.33.08.49l.07.25c0,.11,0,.12,0,.12l-.09,0v.11c.07,0-.21.07-.34.12l-.48.18a5,5,0,0,0-1.63,1.1,5.14,5.14,0,0,0,0,7.28Z"/><path class="cls-3" d="M405.22,411a5.15,5.15,0,1,0,8.92-5.14l-7.72-13.39a5.15,5.15,0,0,0-8.92,5.15Z"/><path class="cls-3" d="M376.8,370h4.76l2.37,4.11a5.15,5.15,0,1,0,8.92-5.15l-5.34-9.26H376.8a5.15,5.15,0,0,0,0,10.3Z"/><path class="cls-3" d="M468.73,0H15.59A15.59,15.59,0,0,0,0,15.59V477.53a15.59,15.59,0,0,0,15.59,15.59H468.73a15.59,15.59,0,0,0,15.59-15.59V15.59A15.59,15.59,0,0,0,468.73,0ZM31.18,107.82H228.77l-29.54,29.53-19.86-19.86a5.66,5.66,0,0,0-6-1.31c-11.86,4.42-14.95,16.57-15.07,17.09a5.67,5.67,0,0,0,1.5,5.35l19.07,19.08-5.72,5.72a5.67,5.67,0,0,0,0,8l4.5,4.5H31.18ZM256.35,96.27l12.33-12.33,1.66-1.66,6.16,6.16-85.15,85.15-6.16-6.16,5.72-5.72,12.33-12.33h0Zm-4-12L235.89,67.78A14.47,14.47,0,0,1,239.77,63l16.89,16.89ZM239,304.56a50.88,50.88,0,0,1-26.51-7.44v-1.41l4.74,2.37a5.57,5.57,0,0,0,2.53.6h38.49a5.54,5.54,0,0,0,2.53-.6l4.81-2.4v1.44A51.31,51.31,0,0,1,239,304.56Zm12.27,10.12c-5.26,6.79-10,11.85-12.31,12.84-2.23-.86-6.61-6.09-10.75-12.56a62.35,62.35,0,0,0,23.06-.28Zm5.63-27.34H221l-20-10V256.2l3.34-5.18a77.35,77.35,0,0,0,69.14,0l3.27,5.15v21.17Zm-53.76-77V177.88l71.81-71.81V210.31Zm66.64,11.34v18.57a65.68,65.68,0,0,1-61.47,0V221.65Zm-99.29-88.43a14.31,14.31,0,0,1,3.89-4.74l16.89,16.89-4.32,4.31ZM453.13,461.94H31.18V187.28H191.35l.4,0V216a5.67,5.67,0,0,0,5.17,5.64v20.09l-6.28,9.74a5.63,5.63,0,0,0-.91,3.08v26.33a5.66,5.66,0,0,0,3.13,5.07l8.21,4.1,0,10.09a5.67,5.67,0,0,0,2.09,4.38,49.63,49.63,0,0,0,10,5.85,5.55,5.55,0,0,0,.65,2.51A123,123,0,0,0,221.25,325c3.44,4.93,6.62,8.48,9.63,10.77a13.48,13.48,0,0,0,8.12,3.17c2,0,4.51-.56,8.08-3.26,3.26-2.46,7.42-6.68,13-13.89,4.55-5.9,8.42-11.7,10-14.15a41.34,41.34,0,0,0,4.72-3.12,5.68,5.68,0,0,0,2.11-4.43l0-10.06,8.18-4.09a5.66,5.66,0,0,0,3.13-5.07V254.53a5.76,5.76,0,0,0-.88-3.05l-6.21-9.74V221.62a5.66,5.66,0,0,0,5.17-5.64v-28.7H453.13Zm0-286H286.24V107.82H453.13Zm0-79.46H286.24V94.74l2.29-2.29a5.67,5.67,0,0,0,0-8L274.35,70.25a5.68,5.68,0,0,0-8,0l-1.66,1.66L244.81,52a5.66,5.66,0,0,0-6-1.3C227,55.16,223.87,67.31,223.75,67.82a5.68,5.68,0,0,0,1.5,5.36l19.08,19.08-4.22,4.22H31.18V31.18h422Z"/></g></svg>