<svg xmlns="http://www.w3.org/2000/svg" viewBox="0 0 484.32 493.12"><defs><style>.cls-1{fill:none;}.cls-2{fill:#0ef;}.cls-3{fill:#2a1536;}</style></defs><g id="EXPANDED"><path class="cls-1" d="M62.55,428.13h8.28V423C70.83,425.82,67.14,428.13,62.55,428.13Z"/><path class="cls-1" d="M407.79,370.15a5.12,5.12,0,0,1-6.59-2.44l-6.84-13.86a5.15,5.15,0,0,1,9.24-4.55l5.92,12a5.64,5.64,0,0,1,2.49-.59h41.13V226.08h-422V360.71H75.09l5.63-11.42A5.15,5.15,0,0,1,90,353.84L83.7,366.55a5.67,5.67,0,0,1-5.66,5.5H31.18v89.89h422V372.05H412A5.62,5.62,0,0,1,407.79,370.15ZM423.1,234.44a16.75,16.75,0,1,1-16.76,16.75A16.77,16.77,0,0,1,423.1,234.44ZM70.83,423v5.15h-29L51,409.55l3.65-7.4,9.24,4.55-5.49,11.13H70.83Zm5-40.41L69,396.44a5.15,5.15,0,1,1-9.24-4.56L66.56,378a5.15,5.15,0,0,1,9.24,4.55Zm313.64-62,6.83,13.86A5.15,5.15,0,0,1,387,339l-6.83-13.86a5.15,5.15,0,1,1,9.24-4.55ZM98.89,291.18a5.67,5.67,0,0,1,5.67-5.67h275.2a5.67,5.67,0,0,1,5.67,5.67v21.4a5.67,5.67,0,0,1-11.34,0V296.85H110.22v15.73a5.67,5.67,0,0,1-11.33,0Zm170.55,53.49a8.5,8.5,0,0,1-12,1.27l-17.07-13.81-16.92,13.69a8.52,8.52,0,0,1-10.7,0L195.21,331.6,178.66,345a8.49,8.49,0,0,1-10.7,0L151.5,331.68l-14.89,12.05a8.5,8.5,0,0,1-10.7-13.22l20.24-16.38a8.49,8.49,0,0,1,10.7,0l16.46,13.31,16.55-13.39a8.49,8.49,0,0,1,10.7,0l17.58,14.22,16.92-13.69a8.49,8.49,0,0,1,10.7,0l22.42,18.13A8.51,8.51,0,0,1,269.44,344.67Zm-179-3.36a5.16,5.16,0,0,1-2.34-6.9l6.83-13.86a5.15,5.15,0,0,1,9.24,4.56L97.29,339A5.15,5.15,0,0,1,90.39,341.31Zm8.78,86.82H83.72a5.15,5.15,0,0,1,0-10.3H99.17a5.15,5.15,0,0,1,0,10.3Zm33.49,0H117.21a5.15,5.15,0,0,1,0-10.3h15.45a5.15,5.15,0,0,1,0,10.3Zm33.49,0H150.7a5.15,5.15,0,0,1,0-10.3h15.45a5.15,5.15,0,1,1,0,10.3Zm33.49,0H184.19a5.15,5.15,0,0,1,0-10.3h15.45a5.15,5.15,0,0,1,0,10.3Zm33.49,0H217.68a5.15,5.15,0,0,1,0-10.3h15.45a5.15,5.15,0,0,1,0,10.3Zm33.49,0H251.17a5.15,5.15,0,0,1,0-10.3h15.45a5.15,5.15,0,0,1,0,10.3ZM272.08,386a8.51,8.51,0,0,1-12,.66l-14.66-13.13-14.66,13.13a8.5,8.5,0,0,1-11.34,0l-14.58-13.06-14.45,12.94a8.5,8.5,0,0,1-11.34,0L164,373l-14.12,12.64a8.51,8.51,0,0,1-11.35,0l-14-12.56L111.9,384.4a8.51,8.51,0,0,1-11.35-12.67l18.29-16.38a8.51,8.51,0,0,1,11.35,0l14,12.56,14.11-12.64a8.5,8.5,0,0,1,11.35,0l15,13.47,14.45-12.94a8.5,8.5,0,0,1,11.34,0l14.58,13.05,14.66-13.12a8.48,8.48,0,0,1,11.34,0l20.34,18.21A8.51,8.51,0,0,1,272.08,386Zm28,42.18H284.66a5.15,5.15,0,0,1,0-10.3h15.45a5.15,5.15,0,0,1,0,10.3Zm33.49,0H318.15a5.15,5.15,0,0,1,0-10.3H333.6a5.15,5.15,0,0,1,0,10.3Zm33.49,0H351.64a5.15,5.15,0,0,1,0-10.3h15.45a5.15,5.15,0,0,1,0,10.3Zm-72.65-36.49a8.5,8.5,0,0,1-8.48-7.87l-4.63-62.48a8.51,8.51,0,0,1,8.48-9.14h61.57a8.5,8.5,0,0,1,7.74,5l28.38,62.48a8.5,8.5,0,0,1-7.74,12Zm106.15,36.49H385.13a5.15,5.15,0,0,1,0-10.3h15.46a5.15,5.15,0,0,1,0,10.3Zm32.72-18.56,9.15,18.56h-29v-10.3H425.9l-5.49-11.13,9.24-4.55ZM417.76,378l6.84,13.87a5.15,5.15,0,0,1-9.24,4.55l-6.83-13.86a5.15,5.15,0,1,1,9.23-4.56Z"/><path class="cls-1" d="M421.74,417.83h-8.25V423C413.49,420.15,417.18,417.83,421.74,417.83Z"/><path class="cls-1" d="M70.83,423v-5.15H62.55C67.14,417.83,70.83,420.15,70.83,423Z"/><path class="cls-1" d="M425.9,417.83h0l-1.83-3.7c-2-4.12-1.58-8.45,1-9.7s6.25,1,8.28,5.14l-3.66-7.42-9.24,4.55Z"/><path class="cls-1" d="M413.49,423v5.15h8.25C417.18,428.13,413.49,425.82,413.49,423Z"/><path class="cls-1" d="M345,85.83V91h5.15A5.14,5.14,0,0,1,345,85.83Z"/><path class="cls-1" d="M59.29,404.43c2.54,1.25,3,5.58,1,9.68l-1.84,3.72h0l5.49-11.13-9.24-4.55L51,409.55C53,405.46,56.74,403.17,59.29,404.43Z"/><path class="cls-1" d="M357.86,98.7H363V93.57A5.14,5.14,0,0,1,357.86,98.7Z"/><path class="cls-1" d="M352.71,93.57V98.7h5.15A5.14,5.14,0,0,1,352.71,93.57Z"/><path class="cls-1" d="M453.14,173.56h-296c4.67,13.13,7.48,24.8,7.61,25.35a5.68,5.68,0,0,1-5.52,7H31.18v8.84h422Z"/><path class="cls-1" d="M130.82,98.7H136V93.55A5.15,5.15,0,0,1,130.82,98.7Z"/><path class="cls-1" d="M83.54,121.92a5.67,5.67,0,0,1,5.67-5.67h28.72a5.67,5.67,0,0,1,0,11.34H94.88v7.34h32.66c9.16,0,17.25,8.71,25.23,27.29H355.71a5.11,5.11,0,0,1-3-4.65V142.12a5.15,5.15,0,1,1,10.3,0v15.45a5.12,5.12,0,0,1-3,4.65h33.49V127.59H370.44a5.67,5.67,0,0,1,0-11.34h28.72a5.67,5.67,0,0,1,5.67,5.67v40.3h48.31v-131h-422V134.93H83.54ZM136,127.2a5.15,5.15,0,1,1-10.3,0V111.75a5.15,5.15,0,0,1,10.3,0Zm227-1.63a5.15,5.15,0,0,1-10.3,0V110.12a5.15,5.15,0,1,1,10.3,0ZM345,85.83V80.68h18v18h-10.3V91H345ZM317.7,80.68h15.46a5.15,5.15,0,0,1,0,10.3H317.7a5.15,5.15,0,1,1,0-10.3Zm-32.43,0h15.45a5.15,5.15,0,0,1,0,10.3H285.27a5.15,5.15,0,1,1,0-10.3Zm-32.43,0h15.45a5.15,5.15,0,0,1,0,10.3H252.84a5.15,5.15,0,0,1,0-10.3Zm-32.44,0h15.46a5.15,5.15,0,0,1,0,10.3H220.4a5.15,5.15,0,0,1,0-10.3Zm-32.43,0h15.45a5.15,5.15,0,0,1,0,10.3H188a5.15,5.15,0,0,1,0-10.3Zm-32.43,0H171A5.15,5.15,0,0,1,171,91H155.54a5.15,5.15,0,0,1,0-10.3Zm-17,0h5.13V91H136V98.7h-10.3v-18Z"/><path class="cls-1" d="M423.1,256.6a5.42,5.42,0,1,0-5.42-5.41A5.42,5.42,0,0,0,423.1,256.6Z"/><path class="cls-1" d="M350.14,80.68H345v5.15A5.15,5.15,0,0,1,350.14,80.68Z"/><path class="cls-1" d="M138.56,91h5.13V85.83A5.14,5.14,0,0,1,138.56,91Z"/><path class="cls-1" d="M125.68,93.55V98.7h5.14A5.14,5.14,0,0,1,125.68,93.55Z"/><path class="cls-1" d="M143.69,85.83V80.68h-5.13A5.14,5.14,0,0,1,143.69,85.83Z"/><path class="cls-2" d="M136.61,343.73l14.89-12.05L168,345a8.49,8.49,0,0,0,10.7,0l16.55-13.39,17.58,14.22a8.52,8.52,0,0,0,10.7,0l16.92-13.69,17.07,13.81a8.51,8.51,0,0,0,10.7-13.23l-22.42-18.13a8.49,8.49,0,0,0-10.7,0l-16.92,13.69-17.58-14.22a8.49,8.49,0,0,0-10.7,0l-16.55,13.39-16.46-13.31a8.49,8.49,0,0,0-10.7,0l-20.24,16.38a8.5,8.5,0,0,0,10.7,13.22Z"/><path class="cls-2" d="M271.42,373.94l-20.34-18.21a8.48,8.48,0,0,0-11.34,0l-14.66,13.12L210.5,355.8a8.5,8.5,0,0,0-11.34,0l-14.45,12.94-15-13.47a8.5,8.5,0,0,0-11.35,0l-14.11,12.64-14-12.56a8.51,8.51,0,0,0-11.35,0l-18.29,16.38A8.51,8.51,0,0,0,111.9,384.4l12.61-11.3,14,12.56a8.51,8.51,0,0,0,11.35,0L164,373l15,13.47a8.5,8.5,0,0,0,11.34,0l14.45-12.94,14.58,13.06a8.5,8.5,0,0,0,11.34,0l14.66-13.13,14.66,13.13a8.51,8.51,0,1,0,11.35-12.67Z"/><path class="cls-2" d="M359.12,317.14a8.5,8.5,0,0,0-7.74-5H289.81a8.51,8.51,0,0,0-8.48,9.14L286,383.77a8.5,8.5,0,0,0,8.48,7.87h85.32a8.5,8.5,0,0,0,7.74-12Z"/><path class="cls-3" d="M130.82,132.35A5.16,5.16,0,0,0,136,127.2V111.75a5.15,5.15,0,0,0-10.3,0V127.2A5.15,5.15,0,0,0,130.82,132.35Z"/><path class="cls-3" d="M155.54,91H171a5.15,5.15,0,0,0,0-10.3H155.54a5.15,5.15,0,0,0,0,10.3Z"/><path class="cls-3" d="M188,91h15.45a5.15,5.15,0,0,0,0-10.3H188A5.15,5.15,0,0,0,188,91Z"/><path class="cls-3" d="M220.4,91h15.46a5.15,5.15,0,0,0,0-10.3H220.4a5.15,5.15,0,0,0,0,10.3Z"/><path class="cls-3" d="M252.84,91h15.45a5.15,5.15,0,0,0,0-10.3H252.84a5.15,5.15,0,0,0,0,10.3Z"/><path class="cls-3" d="M285.27,91h15.45a5.15,5.15,0,0,0,0-10.3H285.27a5.15,5.15,0,1,0,0,10.3Z"/><path class="cls-3" d="M317.7,91h15.46a5.15,5.15,0,0,0,0-10.3H317.7a5.15,5.15,0,1,0,0,10.3Z"/><path class="cls-3" d="M357.86,105a5.14,5.14,0,0,0-5.15,5.15v15.45a5.15,5.15,0,0,0,10.3,0V110.12A5.15,5.15,0,0,0,357.86,105Z"/><path class="cls-3" d="M130.82,98.7A5.15,5.15,0,0,0,136,93.55V91h2.58a5.15,5.15,0,0,0,0-10.3H125.68V93.55A5.14,5.14,0,0,0,130.82,98.7Z"/><path class="cls-3" d="M350.14,91h2.57v2.59a5.15,5.15,0,0,0,10.3,0V80.68H350.14a5.15,5.15,0,1,0,0,10.3Z"/><path class="cls-3" d="M423.1,267.94a16.75,16.75,0,1,0-16.76-16.75A16.78,16.78,0,0,0,423.1,267.94Zm0-22.17a5.42,5.42,0,1,1-5.42,5.42A5.42,5.42,0,0,1,423.1,245.77Z"/><path class="cls-3" d="M468.73,0H15.59A15.59,15.59,0,0,0,0,15.59V477.53a15.59,15.59,0,0,0,15.59,15.59H468.73a15.59,15.59,0,0,0,15.59-15.59V15.59A15.59,15.59,0,0,0,468.73,0ZM31.18,173.56V146.27h96.36c.48,0,3.56.33,8.44,8a75.78,75.78,0,0,1,4.34,8c1.36,2.85,2.8,6.19,4.33,10.14.15.4.3.8.46,1.2,3,7.84,5.31,15.63,6.81,21H31.18Zm422,187.15H412a5.64,5.64,0,0,0-2.49.59l-5.92-12a5.15,5.15,0,0,0-9.24,4.55l6.84,13.86a5.12,5.12,0,0,0,6.59,2.44,5.62,5.62,0,0,0,4.22,1.9h41.13v89.89h-422V372.05H78a5.67,5.67,0,0,0,5.66-5.5L90,353.84a5.15,5.15,0,0,0-9.24-4.55l-5.63,11.42H31.18V226.08h422Zm0-146h-422V205.9H159.27a5.68,5.68,0,0,0,5.52-7c-.13-.55-2.94-12.22-7.61-25.35h296Zm0-52.52H404.83v-40.3a5.67,5.67,0,0,0-5.67-5.67H370.44a5.67,5.67,0,0,0,0,11.34h23.05v34.63H360a5.12,5.12,0,0,0,3-4.65V142.12a5.15,5.15,0,1,0-10.3,0v15.45a5.11,5.11,0,0,0,3,4.65H152.77c-8-18.58-16.07-27.29-25.23-27.29H94.88v-7.34h23.05a5.67,5.67,0,0,0,0-11.34H89.21a5.67,5.67,0,0,0-5.67,5.67v13H31.18V31.18h422Z"/><path class="cls-3" d="M104.56,318.24a5.65,5.65,0,0,0,5.66-5.66V296.85H374.09v15.73a5.67,5.67,0,0,0,11.34,0v-21.4a5.67,5.67,0,0,0-5.67-5.67H104.56a5.67,5.67,0,0,0-5.67,5.67v21.4A5.66,5.66,0,0,0,104.56,318.24Z"/><path class="cls-3" d="M382.55,318.22a5.15,5.15,0,0,0-2.35,6.9L387,339a5.15,5.15,0,0,0,9.24-4.55l-6.83-13.86A5.15,5.15,0,0,0,382.55,318.22Z"/><path class="cls-3" d="M415.36,396.45a5.15,5.15,0,0,0,9.24-4.55L417.76,378a5.15,5.15,0,1,0-9.23,4.56Z"/><path class="cls-3" d="M380,423a5.14,5.14,0,0,0,5.13,5.15h15.46a5.15,5.15,0,0,0,0-10.3H385.13A5.14,5.14,0,0,0,380,423Z"/><path class="cls-3" d="M367.09,417.83H351.64a5.15,5.15,0,0,0,0,10.3h15.45a5.15,5.15,0,0,0,0-10.3Z"/><path class="cls-3" d="M333.6,417.83H318.15a5.15,5.15,0,0,0,0,10.3H333.6a5.15,5.15,0,0,0,0-10.3Z"/><path class="cls-3" d="M300.11,417.83H284.66a5.15,5.15,0,0,0,0,10.3h15.45a5.15,5.15,0,0,0,0-10.3Z"/><path class="cls-3" d="M266.62,417.83H251.17a5.15,5.15,0,0,0,0,10.3h15.45a5.15,5.15,0,0,0,0-10.3Z"/><path class="cls-3" d="M233.13,417.83H217.68a5.15,5.15,0,0,0,0,10.3h15.45a5.15,5.15,0,0,0,0-10.3Z"/><path class="cls-3" d="M199.64,417.83H184.19a5.15,5.15,0,0,0,0,10.3h15.45a5.15,5.15,0,0,0,0-10.3Z"/><path class="cls-3" d="M166.15,417.83H150.7a5.15,5.15,0,0,0,0,10.3h15.45a5.15,5.15,0,1,0,0-10.3Z"/><path class="cls-3" d="M132.66,417.83H117.21a5.15,5.15,0,0,0,0,10.3h15.45a5.15,5.15,0,0,0,0-10.3Z"/><path class="cls-3" d="M99.17,417.83H83.72a5.15,5.15,0,0,0,0,10.3H99.17a5.15,5.15,0,0,0,0-10.3Z"/><path class="cls-3" d="M73.45,375.69A5.15,5.15,0,0,0,66.56,378l-6.83,13.86A5.15,5.15,0,1,0,69,396.44l6.83-13.87A5.15,5.15,0,0,0,73.45,375.69Z"/><path class="cls-3" d="M90.39,341.31a5.15,5.15,0,0,0,6.9-2.34l6.83-13.86a5.15,5.15,0,0,0-9.24-4.56l-6.83,13.86A5.16,5.16,0,0,0,90.39,341.31Z"/><path class="cls-3" d="M424.07,414.13l1.83,3.7h-4.16c-4.56,0-8.25,2.32-8.25,5.15s3.69,5.15,8.25,5.15h20.72l-9.15-18.56c-2-4.11-5.73-6.4-8.28-5.14S422,410,424.07,414.13Z"/><path class="cls-3" d="M62.55,417.83H58.42l1.84-3.72c2-4.1,1.57-8.43-1-9.68s-6.25,1-8.27,5.12l-9.16,18.58H62.55c4.59,0,8.28-2.31,8.28-5.15S67.14,417.83,62.55,417.83Z"/><path class="cls-3" d="M125.68,149.66l-.33,0H44.86a5.67,5.67,0,0,0-5.67,5.67v31A5.67,5.67,0,0,0,44.86,192h80.49a5.67,5.67,0,0,0,5.67-5.67v-31A5.66,5.66,0,0,0,125.68,149.66Zm-6,12.56v18.42H50.53V161h69.16Z"/></g></svg>