<svg xmlns="http://www.w3.org/2000/svg" viewBox="0 0 484.32 493.12"><defs><style>.cls-1{fill:none;}.cls-2{fill:#ffce00;}.cls-3{fill:#cf0245;}.cls-4{fill:#0ef;}.cls-5{fill:#2a1536;}.cls-6{fill:#813cff;}</style></defs><g id="EXPANDED"><path class="cls-1" d="M227.58,89.75V88.11l-69.21,19.43H223.5V95.19A5.67,5.67,0,0,1,227.58,89.75Z"/><polygon class="cls-1" points="106.99 453.73 107 453.74 107 452.44 106.99 453.73"/><rect class="cls-1" x="234.84" y="47.16" width="24.7" height="6.68"/><polygon class="cls-1" points="106.99 453.73 105.69 453.72 101.76 453.68 93.9 453.58 93.63 453.57 93.37 453.55 93.11 453.51 92.85 453.46 92.6 453.4 92.35 453.33 92.11 453.24 91.87 453.15 91.64 453.04 91.42 452.93 91.2 452.8 90.99 452.66 90.79 452.51 90.59 452.36 90.41 452.2 90.23 452.02 90.06 451.84 89.9 451.65 89.74 451.46 89.6 451.25 89.47 451.04 89.34 450.82 89.23 450.6 89.13 450.37 89.04 450.14 88.96 449.9 88.89 449.65 88.84 449.4 88.8 449.15 88.77 448.89 88.75 448.63 88.75 448.37 88.68 453.51 107 453.74 106.99 453.73 106.99 453.73"/><rect class="cls-1" x="345.93" y="100.86" width="24.7" height="6.68"/><rect class="cls-1" x="401.1" y="47.16" width="24.7" height="6.68"/><polygon class="cls-1" points="51.41 448.43 51.38 448.69 51.34 448.94 51.29 449.19 51.23 449.43 51.17 449.67 51.09 449.9 51.01 450.13 50.91 450.35 50.81 450.57 50.7 450.77 50.58 450.97 50.46 451.17 50.33 451.35 50.19 451.53 50.04 451.7 49.89 451.86 49.74 452.01 49.57 452.15 49.4 452.28 49.23 452.4 49.05 452.52 48.87 452.62 48.68 452.71 48.49 452.79 48.29 452.85 48.09 452.91 47.88 452.95 47.68 452.98 47.47 453 47.26 453 41.08 452.93 39.02 452.9 51.37 453.05 51.44 447.91 51.43 448.17 51.41 448.43"/><rect class="cls-1" x="290.69" y="100.86" width="24.7" height="6.68"/><rect class="cls-1" x="290.69" y="47.16" width="24.7" height="6.68"/><rect class="cls-1" x="345.93" y="47.16" width="24.7" height="6.68"/><rect class="cls-1" x="401.1" y="100.86" width="24.7" height="6.68"/><path class="cls-1" d="M119.79,358.33l.06-.49.09-.47.06-.23.06-.22.06-.22.07-.21.08-.2.08-.2.08-.18.09-.18.09-.17.1-.16.1-.16.11-.14L121,355l.11-.13.12-.11.11-.11.13-.09.12-.08.13-.07.13-.06.13,0,.14,0,.13,0h-2.55v5.15c0-.18,0-.35,0-.53Z"/><polygon class="cls-1" points="37.02 452.88 36.97 452.88 36.97 452.88 37.51 452.88 37.21 452.88 37.02 452.88"/><polygon class="cls-1" points="129.53 354.77 130.02 355.48 129.21 354.31 129.25 354.36 129.53 354.77"/><polygon class="cls-1" points="129.15 354.22 129.15 354.23 129.15 354.22 129.15 354.22 129.15 354.22"/><path class="cls-1" d="M105,425.08a6,6,0,0,1-3.79,1h0a67.23,67.23,0,0,0,.09,9.37h0l3.65-.22,4.1-17.59a22.63,22.63,0,0,0-2,4.74A4.66,4.66,0,0,1,105,425.08Z"/><polygon class="cls-1" points="101.53 435.45 101.79 435.45 102.05 435.47 102.3 435.5 102.55 435.55 102.8 435.6 103.05 435.67 103.28 435.75 103.52 435.84 103.75 435.94 103.97 436.05 104.19 436.17 104.4 436.31 104.6 436.45 104.64 436.48 104.92 435.24 101.27 435.45 101.53 435.45"/><polygon class="cls-1" points="35.27 444.65 35.49 445.74 35.51 445.83 35.49 445.73 35.27 444.65"/><polygon class="cls-1" points="36.95 452.81 36.91 452.62 36.75 451.86 36.27 449.61 36.96 452.86 36.96 452.86 36.95 452.81"/><polygon class="cls-1" points="34.9 442.61 34.87 442.39 34.85 442.17 34.85 441.96 34.86 441.74 34.88 441.53 34.91 441.32 34.96 441.11 35.02 440.91 35.09 440.7 35.17 440.51 35.27 440.31 35.37 440.12 35.48 439.94 35.61 439.75 35.74 439.58 35.89 439.41 36.04 439.24 36.2 439.08 36.38 438.93 36.56 438.78 36.74 438.65 36.94 438.51 37.15 438.39 37.36 438.27 37.58 438.17 37.8 438.06 38.04 437.97 38.28 437.89 38.52 437.82 38.77 437.75 39.03 437.7 39.29 437.65 39.29 437.65 34.2 438.41 34.81 442.09 34.96 443.01 35.04 443.47 35.06 443.6 35.03 443.39 34.9 442.61"/><rect class="cls-1" x="234.84" y="100.86" width="24.7" height="6.68"/><path class="cls-1" d="M173.88,172.21V169c0-.13,0-.25,0-.37a8.61,8.61,0,0,0-17.12,0c0,.12,0,.24-.05.36v3.25a19.71,19.71,0,0,1,17.22,0Z"/><path class="cls-1" d="M165.27,181.57a8.61,8.61,0,1,0,8.61,8.61A8.62,8.62,0,0,0,165.27,181.57Z"/><path class="cls-1" d="M366.48,232.73a22.26,22.26,0,1,0-22.26-22.26A22.29,22.29,0,0,0,366.48,232.73Z"/><path class="cls-1" d="M66.1,366.61c.34-.79.7-1.58,1.11-2.4A21.49,21.49,0,0,1,70,360a15.49,15.49,0,0,1,4.38-3.57,5.51,5.51,0,0,1,5.16-.26,4.11,4.11,0,0,1,2.21,3.33h0a21.19,21.19,0,0,1,2.17-.12h3.94A5.15,5.15,0,0,1,93,354.22h15.45a5.15,5.15,0,0,1,5.14,5.15h6.11v-5.15h9.42l.06.08.81,1.17.07.09a5,5,0,0,1,2.48-1.53,144.64,144.64,0,0,0-10.7-19.49,5.66,5.66,0,0,1-4.55-5.55v-1.62L116,325.21a54.38,54.38,0,0,1-5.78-13.27,5.69,5.69,0,0,1-4-5.43V279.62a6,6,0,0,1,.23-1.59,154.5,154.5,0,0,1,1.11-16.1H103c-23.53,0-32.07-48.14-32.07-80.49,0-19.09,2.68-36.55,7.53-49.14,7.88-20.47,19.79-24.76,28.4-24.76h.92a8.45,8.45,0,0,1,5.59-5L226.49,70.75a8.09,8.09,0,0,1,1.09-.22V65a5.67,5.67,0,0,1-4.08-5.44v-18a5.67,5.67,0,0,1,5.67-5.67h36a5.67,5.67,0,0,1,5.67,5.67v18A5.66,5.66,0,0,1,266.73,65V89.73a5.68,5.68,0,0,1,4.15,5.46v12.35h8.48V95.19a5.67,5.67,0,0,1,4.07-5.44V65a5.67,5.67,0,0,1-4.07-5.44v-18A5.66,5.66,0,0,1,285,35.82h36a5.67,5.67,0,0,1,5.67,5.67v18A5.65,5.65,0,0,1,322.59,65V89.73a5.67,5.67,0,0,1,4.14,5.46v12.35h7.86V95.19a5.67,5.67,0,0,1,4.08-5.44V65a5.67,5.67,0,0,1-4.08-5.44v-18a5.67,5.67,0,0,1,5.67-5.67h36A5.67,5.67,0,0,1,382,41.49v18A5.66,5.66,0,0,1,377.82,65V89.73A5.68,5.68,0,0,1,382,95.19v12.35h7.8V95.19a5.67,5.67,0,0,1,4.07-5.44V65a5.67,5.67,0,0,1-4.07-5.44v-18a5.67,5.67,0,0,1,5.67-5.67h36a5.67,5.67,0,0,1,5.67,5.67v18A5.65,5.65,0,0,1,433,65V89.73a5.67,5.67,0,0,1,4.14,5.46v12.35h16V31.18H31.18V362.05H60.54A5.67,5.67,0,0,1,66.1,366.61Z"/><path class="cls-1" d="M395.44,118.88H117.93a8.29,8.29,0,0,1-2.3.32,8.61,8.61,0,0,1-2.32-.33h-6.48c-7.35,0-13.35,5.88-17.82,17.49-4.36,11.33-6.77,27.34-6.77,45.07,0,18,2.49,36.08,6.83,49.47,3.93,12.14,9.25,19.68,13.9,19.68h69.82c2.49,0,4.46-4.84,7-11.66,3.75-10.19,8.89-24.15,24.56-24.15h38.42c17.64,0,30.58,26.37,40.71,83,7,39,9.83,78.53,9.86,78.92a5.67,5.67,0,0,1-5.65,6.08h-.3l-22.26-1.16a5.67,5.67,0,0,1,.29-11.33h.3l15.79.82c-1.09-12.66-4-42.2-9.21-71.41-4-22.35-8.56-40.09-13.54-52.72-5.24-13.26-11.07-20.86-16-20.86H204.33c-7.24,0-10.09,6.32-13.93,16.73-3.13,8.5-7,19.08-17.61,19.08H156.66v12h5.48a5.67,5.67,0,0,1,5.67,5.67v26.89a5.67,5.67,0,0,1-5.67,5.67h-5.48V329a5.67,5.67,0,0,1-5.67,5.67h-8.88l-.1.39a109,109,0,0,1,8.54,18.5,5.14,5.14,0,0,1,4,4.86l6.19-.15a5.12,5.12,0,0,1,5-5.25l15.49-.27a5.14,5.14,0,0,1,5.22,5.08l6.19-.05a5.12,5.12,0,0,1,5.12-5.17h7.76l7.78.07a5.14,5.14,0,0,1,5.07,5.23c2.18.05,4.25.11,6.19.19a5.16,5.16,0,0,1,5.44-4.9l4,.32c.68.07,1.31.08,2,.19l2.2.33c.73.12,1.45.21,2.2.37a24,24,0,0,1,2.34.67A14.15,14.15,0,0,1,248,358a6.7,6.7,0,0,1,2,3.39,4.94,4.94,0,0,1-.25,3.11,3.29,3.29,0,0,1-1.56,1.62,4,4,0,0,1-2,.35,20.63,20.63,0,0,1-1.64,5.94,5,5,0,0,1,2.6,6.87c-2.22,4.75-4.4,9.25-6.29,13.86a5.22,5.22,0,0,1-6.63,2.84c-.69,1.87-1.35,3.83-2,5.86a5.34,5.34,0,0,1,3.05,2.47,4.72,4.72,0,0,1,.67,3.62,34.39,34.39,0,0,0-.59,13.31,3.67,3.67,0,0,1-.08,1.74,5.35,5.35,0,0,1-.67,1.63,6.1,6.1,0,0,1-3,2.5h0a27.86,27.86,0,0,0,2.73,5.55h0a6.14,6.14,0,0,1,3.81-.9,6.49,6.49,0,0,1,1.71.42,3.79,3.79,0,0,1,.74.41,2.69,2.69,0,0,1,.32.27,3.16,3.16,0,0,1,.39.35l.7.68.34.34a3.81,3.81,0,0,0,.33.25l.41.3c1.12.8,2.12,1.61,3.37,2.38l.9.58.45.3a1.22,1.22,0,0,1,.38.29l1.08,1.23c.13.19.22.36.33.54s.2.36.27.51.21.54.28.81a5.74,5.74,0,0,1,.22,1.82,6,6,0,0,1-.2,1.34,5.31,5.31,0,0,1-.44,1.15,7.41,7.41,0,0,1-3.7,3.35,9.72,9.72,0,0,1-3.65.81,10.89,10.89,0,0,1-3.5-.39,4,4,0,0,1-3.18-3.18c-1.83.26-3.89.49-6.15.71a5.1,5.1,0,0,1-4.73,5.56c-5.23.38-10.42.64-15.61.85a5.13,5.13,0,0,1-5.35-5c-2,.07-4.09.13-6.19.18a5.13,5.13,0,0,1-5,5.27c-5.17.12-10.34.19-15.51.24a5.14,5.14,0,0,1-5.2-5.1l-6.19,0a5.15,5.15,0,0,1-5.13,5.17l-15.48,0a5.14,5.14,0,0,1-5.13-5.18l-6.19,0a5.14,5.14,0,0,1-5.19,5.1l-15.48-.21a5.14,5.14,0,0,1-5.06-5.23l-1,0v5.11l-18.32-.23.06-5.14h0L83,448.29h0a5.16,5.16,0,0,1-5.21,5.09l-15.46-.19A5.15,5.15,0,0,1,57.22,448h0l-5.78-.08h0l-.07,5.14L39,452.9l-1.5,0H37v0l-.69-3.25-.06-.26-.7-3.52,0-.09-.22-1.09-.14-.72-.06-.33,0-.13L35,443l-.15-.92-.61-3.68,5.09-.76q-.47-3.15-.74-6.07a5,5,0,0,1-5.44-5,51.74,51.74,0,0,1,2.07-17,5.66,5.66,0,0,1,2.87-3.32,4.68,4.68,0,0,1,4,.14,29.52,29.52,0,0,1,3.3-5.14,4.6,4.6,0,0,1-1.78-3.53,5.26,5.26,0,0,1,1.73-4c.27-.25.52-.52.79-.76l.84-.69,1.67-1.38c1.11-.92,2.31-1.65,3.46-2.48l1.49-1a13.69,13.69,0,0,0,1.28-.95,21.51,21.51,0,0,0,2.34-2.13A4.82,4.82,0,0,1,60.26,383a6,6,0,0,1,3.79.92h0A36.68,36.68,0,0,0,67,378.5h0a5.57,5.57,0,0,1-2.77-2.77,5,5,0,0,1-.22-3.49,5.63,5.63,0,0,1-3.42,1.15H31.18v88.55h422V118.88H395.44Zm-210.22,71.3a19.95,19.95,0,1,1-39.9,0V168a5.71,5.71,0,0,1,.26-1.71,20,20,0,0,1,39.38,0,5.66,5.66,0,0,1,.26,1.71Zm181.26-13.31a33.6,33.6,0,1,1-33.6,33.6A33.63,33.63,0,0,1,366.48,176.87Zm9.31,153.06a33.6,33.6,0,1,1,33.61-33.6A33.64,33.64,0,0,1,375.79,329.93Z"/><path class="cls-1" d="M375.79,274.07a22.26,22.26,0,1,0,22.27,22.26A22.29,22.29,0,0,0,375.79,274.07Z"/><path class="cls-2" d="M117.32,327.38v-15.2h-5.49a5.68,5.68,0,0,1-1.65-.24A54.38,54.38,0,0,0,116,325.21Z"/><path class="cls-2" d="M117.32,274v-12H107.5a154.5,154.5,0,0,0-1.11,16.1,5.68,5.68,0,0,1,5.44-4.08Z"/><path class="cls-2" d="M152,358.48q-.66-2.49-1.49-4.92a109,109,0,0,0-8.54-18.5l-4.95,18.69L137,354l-.07-.26-5.06-19.09H123a5.13,5.13,0,0,1-1.12-.12A144.64,144.64,0,0,1,132.57,354c.7,1.63,1.34,3.28,1.9,4.94a52.83,52.83,0,0,1,1.47,5.11,35.65,35.65,0,0,1-1.11,21.36,18.71,18.71,0,0,1-3.72,5.78c-.68.77-1.4,1.54-2.18,2.36-1.49,1.58-3.07,3.26-4.6,5.2-4.65,5.89-8.9,14.28-9,30a8.51,8.51,0,0,0,8.43,8.58h.08a8.5,8.5,0,0,0,8.5-8.43c.13-14.31,4.05-18.47,9-23.72,3.28-3.47,7-7.4,9.41-13.73a51.38,51.38,0,0,0,2.21-29.29C152.67,361,152.37,359.73,152,358.48Z"/><path class="cls-2" d="M118,118.88h-4.67a8.61,8.61,0,0,0,2.32.33,8.29,8.29,0,0,0,2.3-.32Z"/><path class="cls-2" d="M265.21,65.18h-36a5.87,5.87,0,0,1-1.59-.23v5.58a8.09,8.09,0,0,0-1.09.22L113.34,102.52a8.45,8.45,0,0,0-5.59,5h50.62l69.21-19.43v1.64a5.51,5.51,0,0,1,1.59-.23h36a5.87,5.87,0,0,1,1.52.21V65A5.48,5.48,0,0,1,265.21,65.18Z"/><path class="cls-3" d="M376.3,65.18h-36a6,6,0,0,1-1.59-.23v24.8a5.61,5.61,0,0,1,1.59-.23h36a5.81,5.81,0,0,1,1.52.21V65A5.42,5.42,0,0,1,376.3,65.18Z"/><path class="cls-4" d="M424.49,65.18H395.44a6,6,0,0,1-1.6-.23v24.8a5.63,5.63,0,0,1,1.6-.23h36a6,6,0,0,1,1.53.21V65a5.55,5.55,0,0,1-1.53.22Z"/><path class="cls-5" d="M468.73,0H15.59A15.59,15.59,0,0,0,0,15.59V477.53a15.59,15.59,0,0,0,15.59,15.59H468.73a15.59,15.59,0,0,0,15.59-15.59V15.59A15.59,15.59,0,0,0,468.73,0Zm-15.6,107.54h-16V95.19A5.67,5.67,0,0,0,433,89.73a6,6,0,0,0-1.53-.21h-36a5.67,5.67,0,0,0-5.67,5.67v12.35H382V95.19a5.68,5.68,0,0,0-4.15-5.46,5.81,5.81,0,0,0-1.52-.21h-36a5.61,5.61,0,0,0-1.59.23,5.67,5.67,0,0,0-4.08,5.44v12.35h-7.86V95.19a5.67,5.67,0,0,0-4.14-5.46,6,6,0,0,0-1.53-.21H285a5.61,5.61,0,0,0-1.59.23,5.67,5.67,0,0,0-4.07,5.44v12.35h-8.48V95.19a5.68,5.68,0,0,0-4.15-5.46,5.87,5.87,0,0,0-1.52-.21h-36a5.51,5.51,0,0,0-1.59.23,5.67,5.67,0,0,0-4.08,5.44v12.35H106.83c-8.61,0-20.52,4.29-28.4,24.76-4.85,12.59-7.53,30-7.53,49.14,0,32.35,8.54,80.49,32.07,80.49h14.35v12h-5.49a5.68,5.68,0,0,0-5.44,4.08,6,6,0,0,0-.23,1.59v26.89a5.65,5.65,0,0,0,5.67,5.67h5.49V329a5.66,5.66,0,0,0,4.55,5.55,5.13,5.13,0,0,0,1.12.12h8.87l5.06,19.09.07.26.07-.27L142,335.06l.1-.39H151a5.67,5.67,0,0,0,5.67-5.67V312.18h5.48a5.67,5.67,0,0,0,5.67-5.67V279.62a5.67,5.67,0,0,0-5.67-5.67h-5.48v-12h16.13c10.58,0,14.48-10.58,17.61-19.08,3.84-10.41,6.69-16.73,13.93-16.73h38.42c4.92,0,10.75,7.6,16,20.86,5,12.63,9.54,30.37,13.54,52.72,5.23,29.21,8.12,58.75,9.21,71.41l-15.79-.82h-.3a5.67,5.67,0,0,0-.29,11.33l22.26,1.16h.3a5.67,5.67,0,0,0,5.65-6.08c0-.39-2.88-39.91-9.86-78.92-10.13-56.63-23.07-83-40.71-83H204.33c-15.67,0-20.81,14-24.56,24.15-2.52,6.82-4.49,11.66-7,11.66H103c-4.65,0-10-7.54-13.9-19.68-4.34-13.39-6.83-31.43-6.83-49.47,0-17.73,2.41-33.74,6.77-45.07,4.47-11.61,10.47-17.49,17.82-17.49h346.3V461.94H31.18V373.39H60.54A5.63,5.63,0,0,0,64,372.24a5,5,0,0,0,.22,3.49A5.57,5.57,0,0,0,67,378.5h0a4.8,4.8,0,0,0,4,0,5.3,5.3,0,0,0,2.78-3,63.72,63.72,0,0,1,2.67-6.58,7.78,7.78,0,0,1,3-3.5A4.73,4.73,0,0,0,81,363.29a7.31,7.31,0,0,0,.75-3.8h0a4.11,4.11,0,0,0-2.21-3.33,5.51,5.51,0,0,0-5.16.26A15.49,15.49,0,0,0,70,360a21.49,21.49,0,0,0-2.81,4.22c-.41.82-.77,1.61-1.11,2.4a5.67,5.67,0,0,0-5.56-4.56H31.18V31.18h422Zm-27.32-6.68v6.68H401.1v-6.68Zm-55.18,0v6.68h-24.7v-6.68Zm-55.23,0v6.68H290.69v-6.68Zm-55.86,0v6.68h-24.7v-6.68ZM151,285.29h5.48v15.55h-39V285.29H151ZM128.66,274v-12h16.66v12Zm16.66,38.23v11.15H128.66V312.18Z"/><path class="cls-5" d="M108,448.64h0a5.14,5.14,0,0,0,5.06,5.23l15.48.21a5.14,5.14,0,0,0,5.19-5.1h0a5.14,5.14,0,0,0-5.08-5.19l-15.42-.21A5.15,5.15,0,0,0,108,448.64Z"/><path class="cls-5" d="M145.07,454.21l15.48,0a5.15,5.15,0,0,0,5.13-5.17h0a5.14,5.14,0,0,0-5.14-5.13l-15.42,0a5.16,5.16,0,0,0-5.18,5.12h0A5.14,5.14,0,0,0,145.07,454.21Z"/><path class="cls-5" d="M171.87,449h0a5.14,5.14,0,0,0,5.2,5.1c5.17-.05,10.34-.12,15.51-.24a5.13,5.13,0,0,0,5-5.27h0a5.15,5.15,0,0,0-5.24-5c-5.13.11-10.26.18-15.39.24A5.14,5.14,0,0,0,171.87,449Z"/><path class="cls-5" d="M203.79,448.45h0a5.13,5.13,0,0,0,5.35,5c5.19-.21,10.38-.47,15.61-.85a5.1,5.1,0,0,0,4.73-5.56h0a5.18,5.18,0,0,0-5.49-4.7c-5.05.37-10.15.63-15.26.83A5.16,5.16,0,0,0,203.79,448.45Z"/><path class="cls-5" d="M249.8,440.58q-.11-.22-.27-.51c-.11-.18-.2-.35-.33-.54l-1.08-1.23a1.22,1.22,0,0,0-.38-.29l-.45-.3-.9-.58c-1.25-.77-2.25-1.58-3.37-2.38l-.41-.3a3.81,3.81,0,0,1-.33-.25l-.34-.34-.7-.68a3.16,3.16,0,0,0-.39-.35,2.69,2.69,0,0,0-.32-.27,3.79,3.79,0,0,0-.74-.41,6.49,6.49,0,0,0-1.71-.42,6.14,6.14,0,0,0-3.81.9h0a4.47,4.47,0,0,0-2.08,3.36,4.65,4.65,0,0,0,.27,2.17,6.41,6.41,0,0,0,.51,1.06,5.54,5.54,0,0,0,.33.51,4.55,4.55,0,0,0,.35.4l1.07,1.08a1.57,1.57,0,0,1,.32.36,3,3,0,0,1,.39,1.06c.21.92-.06,2.25.21,3.65h0a4,4,0,0,0,3.18,3.18,10.89,10.89,0,0,0,3.5.39,9.72,9.72,0,0,0,3.65-.81,7.41,7.41,0,0,0,3.7-3.35,5.31,5.31,0,0,0,.44-1.15,6,6,0,0,0,.2-1.34,5.74,5.74,0,0,0-.22-1.82C250,441.12,249.9,440.85,249.8,440.58Z"/><path class="cls-5" d="M234.57,424.59a5.35,5.35,0,0,0,.67-1.63,3.67,3.67,0,0,0,.08-1.74,34.39,34.39,0,0,1,.59-13.31,4.72,4.72,0,0,0-.67-3.62,5.34,5.34,0,0,0-3.05-2.47h0a5,5,0,0,0-3.93.41,5.47,5.47,0,0,0-2.4,3.44,44.35,44.35,0,0,0-.68,17.34,6.38,6.38,0,0,0,.84,2.2,4.93,4.93,0,0,0,1.59,1.5,4.41,4.41,0,0,0,3.92.38h0A6.1,6.1,0,0,0,234.57,424.59Z"/><path class="cls-5" d="M234.17,396h0a5.22,5.22,0,0,0,6.63-2.84c1.89-4.61,4.07-9.11,6.29-13.86a5,5,0,0,0-2.6-6.87h0a5.26,5.26,0,0,0-6.74,2.53c-2.14,4.58-4.46,9.35-6.47,14.28A5.08,5.08,0,0,0,234.17,396Z"/><path class="cls-5" d="M229.36,363.47l3.68.3c.6.05,1.26.07,1.81.16l1.62.25c.54.08,1.1.14,1.61.24s1,.24,1.37.39a5.21,5.21,0,0,1,1.55.74,1.75,1.75,0,0,1,1.49-.14,17.34,17.34,0,0,0,3.64,1h0a4,4,0,0,0,2-.35,3.29,3.29,0,0,0,1.56-1.62,4.94,4.94,0,0,0,.25-3.11,6.7,6.7,0,0,0-2-3.39,14.15,14.15,0,0,0-5.2-2.91,24,24,0,0,0-2.34-.67c-.75-.16-1.47-.25-2.2-.37l-2.2-.33c-.73-.11-1.36-.12-2-.19l-4-.32a5.16,5.16,0,0,0-5.44,4.9v0A5.14,5.14,0,0,0,229.36,363.47Z"/><path class="cls-5" d="M197.77,362.91h7.69l7.68.07a5.16,5.16,0,0,0,5.21-5.05v0a5.14,5.14,0,0,0-5.07-5.23l-7.78-.07h-7.76a5.12,5.12,0,0,0-5.12,5.17h0A5.17,5.17,0,0,0,197.77,362.91Z"/><path class="cls-5" d="M165.93,363.31l15.42-.26a5.16,5.16,0,0,0,5.08-5.21h0a5.14,5.14,0,0,0-5.22-5.08l-15.49.27a5.12,5.12,0,0,0-5,5.25h0A5.13,5.13,0,0,0,165.93,363.31Z"/><path class="cls-5" d="M119.79,360.4l.06.5.09.47.06.23.06.22.06.22.07.2.08.21.08.19.08.19.09.18.09.17.1.16.1.15.11.15.11.13.11.13.12.11.11.1.1.08,0,0,.12.08.13.07.13.05.13,0,.14,0,.13,0h1.1l.07.16.08.19,0,.06h0l0,.05,0,.05.06.1.07.08.08.09.1.08.1.07.11.07.12.06.13.06.14.05.15,0,.16.05.17,0,.17,0,.37,0,.4,0h.85l.47,0,.47-.06.49-.09.5-.11.5-.15h0l.49-.17.24-.09.24-.1.23-.1.22-.11.21-.12.21-.12.2-.12.19-.13.18-.13.18-.14L132,364l.15-.15,0,0a5.18,5.18,0,0,0,1.43.28,3.71,3.71,0,0,0,.47,0l1.87-.05a52.83,52.83,0,0,0-1.47-5.11c-.56-1.66-1.2-3.31-1.9-4.94a5,5,0,0,0-2.48,1.53l-.07-.09-.49-.71-.28-.41,0-.05-.06-.08h-6.87l-.13,0-.14,0-.13,0-.13.06-.13.07-.12.08-.13.09-.11.11-.12.11L121,355l-.11.13-.11.14-.1.16-.1.16-.09.17-.09.18-.08.18-.08.2-.08.2-.07.21-.06.22-.06.22-.06.23-.09.47-.06.49,0,.51c0,.18,0,.35,0,.53h0c0,.18,0,.35,0,.52Zm3.33,3.54h0l0,0,.22-.11.87-.42.1,0-.47.91-.14-.06h0v.31h0l-.65-.57Z"/><path class="cls-5" d="M152.92,362.25a5.18,5.18,0,0,0,1.59-3.83h0a5.14,5.14,0,0,0-4-4.86q.82,2.43,1.49,4.92C152.37,359.73,152.67,361,152.92,362.25Z"/><path class="cls-5" d="M120.09,397.6h0a4.71,4.71,0,0,0,3.74,1.29,3,3,0,0,0,.5-.1c1.53-1.94,3.11-3.62,4.6-5.2.78-.82,1.5-1.59,2.18-2.36A36.94,36.94,0,0,0,135,380.86a5.45,5.45,0,0,0-.91-4.37,4.49,4.49,0,0,0-3.55-1.78h0a6.14,6.14,0,0,0-3.71,1.22,4.78,4.78,0,0,0-1.92,2.85,29.44,29.44,0,0,1-5.61,11.8,5,5,0,0,0-.91,3.5A5.61,5.61,0,0,0,120.09,397.6Z"/><path class="cls-5" d="M113.35,404.11a4.65,4.65,0,0,0-1-.78,5.1,5.1,0,0,0-6.41,1.1c-.9,1.09-1.83,2.12-2.69,3.27L102,409.47l-.63.89c-.2.31-.38.64-.58,1l-1.13,1.94c-.36.65-.65,1.38-1,2.07a32.73,32.73,0,0,0-1.59,4.35,5.45,5.45,0,0,0,.68,4.44,4.49,4.49,0,0,0,3.42,2h0a6,6,0,0,0,3.79-1,4.66,4.66,0,0,0,2.05-2.69,22.63,22.63,0,0,1,2-4.74,36,36,0,0,1,4.64-6.4,5.28,5.28,0,0,0-.31-7.14Z"/><path class="cls-5" d="M77.87,443.08l-15.45-.19a5.15,5.15,0,0,0-5.2,5.09h0a5.15,5.15,0,0,0,5.07,5.21l15.46.19A5.16,5.16,0,0,0,83,448.29h0A5.16,5.16,0,0,0,77.87,443.08Z"/><path class="cls-5" d="M38.55,431.58h0a5.31,5.31,0,0,0,4.83-5.27A41.65,41.65,0,0,1,45,412.75a4.57,4.57,0,0,0-.3-3.48,5.85,5.85,0,0,0-2.64-2.83h0a4.68,4.68,0,0,0-4-.14,5.66,5.66,0,0,0-2.87,3.32,51.74,51.74,0,0,0-2.07,17A5,5,0,0,0,38.55,431.58Z"/><path class="cls-5" d="M59.41,395.88c.63-.42,1.22-.88,1.81-1.36a30.6,30.6,0,0,0,3.37-3.07,5.41,5.41,0,0,0,1.54-4.18,4.56,4.56,0,0,0-2.08-3.39h0a6,6,0,0,0-3.79-.92,4.82,4.82,0,0,0-3.12,1.38,21.51,21.51,0,0,1-2.34,2.13,13.69,13.69,0,0,1-1.28.95l-1.49,1c-1.15.83-2.35,1.56-3.46,2.48l-1.67,1.38-.84.69c-.27.24-.52.51-.79.76a5.26,5.26,0,0,0-1.73,4,4.6,4.6,0,0,0,1.78,3.53h0a6,6,0,0,0,3.72,1.22,4.92,4.92,0,0,0,3.3-1.26c.19-.2.38-.4.59-.59l.66-.53,1.31-1.08c.86-.73,1.88-1.34,2.81-2Z"/><path class="cls-5" d="M93,364.52h15.45a5.15,5.15,0,0,0,5.14-5.15h0a5.15,5.15,0,0,0-5.14-5.15H93a5.15,5.15,0,0,0-5.15,5.15h0A5.15,5.15,0,0,0,93,364.52Z"/><path class="cls-5" d="M107,448.63l-.07-4.2v-.08l-.14-2.87-.06-1.25v-.1l0-.27,0-.27-.06-.25-.08-.26-.08-.24-.1-.25-.1-.23-.12-.23-.13-.22-.13-.21-.15-.21-.16-.2-.16-.18-.17-.18-.18-.17-.19-.16-.17-.12,0,0-.2-.14-.21-.14-.22-.12-.22-.11-.23-.1-.24-.09-.23-.08-.25-.07-.25-.06-.25,0-.25,0-.26,0h-.54l-.25,0-.26,0-.26.05-.25.06-.24.07-.24.09-.24.1-.22.1-.22.12-.22.13-.21.14-.2.15-.19.16-.18.16-.18.18-.17.18-.16.2-.15.2-.14.21-.13.21-.12.22-.11.22-.1.23-.09.24-.08.24-.07.24,0,.25,0,.26,0,.25v1.09l0,.34.05.95,0,.46v.3l-2.51,0h-.27l-.27,0-.26,0-.26,0-.25.06-.25.06-.24.08-.24.09-.23.1-.23.11-.22.12-.21.13-.21.15-.2.15-.19.16-.18.17-.18.17-.16.19-.16.19-.15.2-.14.21-.13.21-.11.22-.11.23-.1.23-.08.24-.07.24-.07.25,0,.25,0,.26,0,.26v.26h0v.26l0,.26,0,.26,0,.25,0,.25.07.25.08.24.09.23.1.23.11.23.13.21.13.21.14.21.16.19.16.19.17.18.18.18.18.16.2.16.2.14.21.14.22.13.22.11.23.11.24.09.24.09.25.07.25.06.26.05.26,0,.26,0h.27l7.86.09,3.93.05H107v-5.1ZM96.62,443.5h-.07l0-.05.08-.14.17.18Z"/><path class="cls-5" d="M51.42,447.38l0-.26,0-.25,0-.25,0-.25-.06-.24-.07-.23-.08-.23-.09-.22-.09-.22-.11-.21-.11-.2-.12-.2-.13-.19-.13-.18-.14-.17-.15-.16-.15-.16-.16-.15-.17-.13-.17-.13-.17-.11-.19-.11L48.8,443l-.19-.09-.2-.07-.2-.06-.2-.05-.21,0-.21,0H45.38l0-.09,0-.18h0l-.08-.36v0l0-.11,0-.07,0-.17,0-.25-.1-.62,0-.2-.06-.19-.06-.19L44.8,440l-.09-.18-.1-.17-.11-.17-.12-.16-.13-.16-.14-.15L44,438.9l-.16-.14-.17-.13-.18-.13-.18-.12-.19-.11-.2-.1-.21-.1-.21-.08-.22-.08-.22-.07-.23-.07-.24,0-.23-.05-.25,0-.24,0-.25,0h-.51l-.26,0-.26,0-.26,0h0l-.26.05-.26.05-.25.07-.24.07L38,438l-.24.09-.22.1-.22.11-.21.12-.21.12-.2.14-.18.13-.18.15-.18.15-.16.16-.15.17-.15.17-.13.17-.13.19-.11.18-.1.19-.1.2-.08.2-.07.2-.06.2-.05.21,0,.21,0,.21v.43l0,.22,0,.22.13.78,0,.21.06.33.14.72.22,1.08,0,.1.7,3.52.06.26.48,2.25.16.76,0,.19v.05h0v0h.55l1.5,0,2.06,0,6.19.07h.21l.21,0,.21,0,.2,0,.2-.06.2-.06.19-.08.19-.09.18-.1.18-.11.17-.13.17-.13.17-.14.15-.15.15-.16.15-.17.14-.18.13-.18.12-.2.12-.2.11-.2.1-.22.1-.22.08-.23.08-.23.06-.24.06-.24.05-.25,0-.25,0-.26,0-.26v-.26h0v-.26Zm-6-4.6h-.08l-.09,0,0-.05h.07v-.08h0l.06.08h0Z"/><path class="cls-5" d="M366.48,244.07a33.6,33.6,0,1,0-33.6-33.6A33.63,33.63,0,0,0,366.48,244.07Zm0-55.86a22.26,22.26,0,1,1-22.26,22.26A22.29,22.29,0,0,1,366.48,188.21Z"/><path class="cls-5" d="M375.79,262.73a33.6,33.6,0,1,0,33.61,33.6A33.64,33.64,0,0,0,375.79,262.73Zm0,55.86a22.26,22.26,0,1,1,22.27-22.26A22.28,22.28,0,0,1,375.79,318.59Z"/><path class="cls-5" d="M227.58,65a5.87,5.87,0,0,0,1.59.23h36a5.48,5.48,0,0,0,1.52-.22,5.66,5.66,0,0,0,4.15-5.45v-18a5.67,5.67,0,0,0-5.67-5.67h-36a5.67,5.67,0,0,0-5.67,5.67v18A5.67,5.67,0,0,0,227.58,65Zm7.26-17.79h24.7v6.68h-24.7Z"/><path class="cls-5" d="M283.43,65a6,6,0,0,0,1.59.23h36a5.55,5.55,0,0,0,1.53-.22,5.65,5.65,0,0,0,4.14-5.45v-18a5.67,5.67,0,0,0-5.67-5.67H285a5.66,5.66,0,0,0-5.66,5.67v18A5.67,5.67,0,0,0,283.43,65Zm7.26-17.79H315.4v6.68H290.69Z"/><path class="cls-5" d="M338.67,65a6,6,0,0,0,1.59.23h36a5.42,5.42,0,0,0,1.52-.22A5.66,5.66,0,0,0,382,59.51v-18a5.67,5.67,0,0,0-5.67-5.67h-36a5.67,5.67,0,0,0-5.67,5.67v18A5.67,5.67,0,0,0,338.67,65Zm7.26-17.79h24.7v6.68h-24.7Z"/><path class="cls-5" d="M393.84,65a6,6,0,0,0,1.6.23h36A5.55,5.55,0,0,0,433,65a5.65,5.65,0,0,0,4.14-5.45v-18a5.67,5.67,0,0,0-5.67-5.67h-36a5.67,5.67,0,0,0-5.67,5.67v18A5.67,5.67,0,0,0,393.84,65Zm7.26-17.79h24.71v6.68H401.1Z"/><path class="cls-5" d="M165.27,149.57a19.9,19.9,0,0,0-19.69,16.72,5.71,5.71,0,0,0-.26,1.71v22.18a20,20,0,1,0,39.9,0V168a5.66,5.66,0,0,0-.26-1.71A19.9,19.9,0,0,0,165.27,149.57Zm0,49.22a8.61,8.61,0,1,1,8.61-8.61A8.62,8.62,0,0,1,165.27,198.79Zm8.61-26.58a19.71,19.71,0,0,0-17.22,0V169c0-.12,0-.24.05-.36a8.61,8.61,0,0,1,17.12,0c0,.12,0,.24,0,.37Z"/><path class="cls-6" d="M314.08,65.18H285a6,6,0,0,1-1.59-.23v24.8a5.61,5.61,0,0,1,1.59-.23h36a6,6,0,0,1,1.53.21V65a5.55,5.55,0,0,1-1.53.22Z"/></g></svg>