<svg xmlns="http://www.w3.org/2000/svg" viewBox="0 0 484.32 493.12"><defs><style>.cls-1{fill:none;}.cls-2{fill:#0ef;}.cls-3{fill:#2a1536;}</style></defs><g id="EXPANDED"><path class="cls-1" d="M221.77,252.8l8.81-11.42c-.58-10.33,2.23-18.85,8-24.16l.11-.09h0l0,0a22,22,0,0,1,2-1.61c.37-.27.75-.52,1.12-.77H181c-7.41,6.37-17.2,10.61-25.89,14.36-11.1,4.79-21.58,9.32-23.94,16.12-1.27,3.67-.32,8.36,2.92,14.36,7.92,14.69,36.8,22.15,72.69,24l9.22-9.14C214.82,265.32,216.85,257.59,221.77,252.8Z"/><rect class="cls-1" x="81.2" y="176.74" width="11.19" height="8.63"/><rect class="cls-1" x="81.2" y="156.77" width="11.19" height="8.63"/><path class="cls-1" d="M340.51,223.8c-8,9.49-14.44,16.66-17.73,19.78-8.14,7.7-9.59,15.72-11.12,24.21-.49,2.74-1,5.59-1.78,8.47,51.57-9.34,81.41-24.1,83.86-34.63,1-4.43-4-8.89-8.44-11.86C373.73,222,369.75,206,373.38,181.94c-10.73,14.65-22.09,29-31.53,40.26A5.61,5.61,0,0,1,340.51,223.8Z"/><polygon class="cls-1" points="281.9 121.78 277.62 129.19 286.18 129.19 281.9 121.78"/><rect class="cls-1" x="122.97" y="116.11" width="117.82" height="53.42"/><path class="cls-1" d="M187,184.51a5.67,5.67,0,0,1,5.67,5.67,30.68,30.68,0,0,1-2.81,13.18h84.35a44.59,44.59,0,0,0,10.81-10.92,171.5,171.5,0,0,1,14.63-16.6,5.36,5.36,0,0,1,1.1-1.13c3.75-3.81,7.91-7.89,12.35-12.07V96H60.93v107.4H176.46a19.16,19.16,0,0,0,4.9-13.18A5.67,5.67,0,0,1,187,184.51ZM262.89,132,277,107.6a5.67,5.67,0,0,1,9.82,0L300.91,132a5.67,5.67,0,0,1-4.91,8.5H267.8a5.67,5.67,0,0,1-4.91-8.5Zm0,14.8A5.67,5.67,0,0,1,267.8,144H296a5.68,5.68,0,0,1,4.91,8.51l-14.1,24.42a5.67,5.67,0,0,1-9.82,0l-14.1-24.42A5.68,5.68,0,0,1,262.89,146.83ZM103.72,171.07v20a5.65,5.65,0,0,1-5.66,5.66H75.53A5.66,5.66,0,0,1,69.86,191V151.1a5.67,5.67,0,0,1,5.67-5.67H98.06a5.66,5.66,0,0,1,5.66,5.67Zm7.92,4.13V110.44a5.66,5.66,0,0,1,5.66-5.67H246.46a5.67,5.67,0,0,1,5.67,5.67V175.2a5.67,5.67,0,0,1-5.67,5.67H117.3A5.66,5.66,0,0,1,111.64,175.2Z"/><polygon class="cls-1" points="99.98 57 69.84 84.62 304.22 84.62 274.08 57 99.98 57"/><path class="cls-1" d="M31.18,461.94h422V31.18h-422ZM49.59,90.29c0-.06,0-.11,0-.17a.86.86,0,0,1,0-.16,5,5,0,0,1,.13-.94l0-.12a5,5,0,0,1,.32-.92.37.37,0,0,1,0-.11,6.47,6.47,0,0,1,.49-.85l.09-.11a5.28,5.28,0,0,1,.67-.75l0,0,42.51-39a5.72,5.72,0,0,1,3.83-1.48H276.28a5.68,5.68,0,0,1,3.83,1.48l42.52,39,0,0a5.28,5.28,0,0,1,.67.75.76.76,0,0,1,.08.11,5.57,5.57,0,0,1,.5.85L324,88a5.89,5.89,0,0,1,.32.92l0,.12a5.91,5.91,0,0,1,.13.94c0,.05,0,.11,0,.16s0,.11,0,.17v62c25.83-23,56.68-46.17,72.15-48.18a14.46,14.46,0,0,1,6.91.6,6,6,0,0,1,1.66.5,5.58,5.58,0,0,1,2.48,2.32,10.73,10.73,0,0,1,2.48,6.84c.34,8.61-7.71,24.39-19.11,42.08-.53,1.73-1.05,3.46-1.54,5.21-8.8,31.06-8.05,51.92,2.12,58.74,13.38,9,14.55,17.92,13.17,23.84C402.26,255,389,264.93,365.23,273.59c-16.55,6-37.79,11.3-60.93,15.13a36.74,36.74,0,0,1-7.62,8l0,0a21.25,21.25,0,0,1-14.28,5.2,28.55,28.55,0,0,1-5.7-.62l-5.88,7.62a18,18,0,0,1-3.43,4.3,17.14,17.14,0,0,1-11.83,4.47,23.92,23.92,0,0,1-7.31-1.22l-76.06,75.32a11.54,11.54,0,0,1-9,3.93,17.94,17.94,0,0,1-6.51-1.34l-20.61,15.24-.06,0a6.86,6.86,0,0,1-.6.38c-.2.11-5,2.74-10.08,5.14-1.39.66-2.78,1.32-4.16,1.92A66.26,66.26,0,0,0,138,420.61c26.15,2,53.54-10.68,77.14-35.7,28.35-30.07,88.8-36,111.18-37.14V337.1c-7.59-3.05-11.32-7-11.32-12V310.64a6.14,6.14,0,0,1,.09-1,9.11,9.11,0,0,1-.09-1.29c0-6.68,6.76-11.53,20.68-14.82,10.93-2.58,25.38-4,40.68-4s29.75,1.42,40.69,4c13.91,3.29,20.67,8.14,20.67,14.82a9.11,9.11,0,0,1-.09,1.29,5.15,5.15,0,0,1,.09,1v14.51c0,5-3.72,8.9-11.31,12v61.5c7.59,3,11.31,7,11.31,11.95a9,9,0,0,1-.09,1.28,5.33,5.33,0,0,1,.09,1v14.51c0,6.69-6.76,11.53-20.67,14.82-10.94,2.59-25.39,4-40.69,4s-29.75-1.42-40.68-4C321.77,438.85,315,434,315,427.32V412.81a6.38,6.38,0,0,1,.09-1,9,9,0,0,1-.09-1.28c0-5,3.73-8.9,11.32-11.95V364.83a291.26,291.26,0,0,0-34.87,4.1c-29.91,5.44-52,15-63.94,27.64-25.25,26.79-54.87,41.25-84.09,41.25q-3.36,0-6.72-.25c-27.12-2.08-50.7-16.61-68.18-42a8.5,8.5,0,0,1,14-9.64,86.51,86.51,0,0,0,24.38,24.21c1.16-3.82,4.33-10.31,11.66-22.34,0,0,0,0,0,0s.1-.14.15-.22l.18-.26,0,0,15.19-19.44c-1.45-5.76-.78-10.74,2-14.22a10.86,10.86,0,0,1,1.53-1.58L196,294.23q-3.85-.32-7.55-.74c-34.59-4-56.24-13.57-64.33-28.57-4.83-9-6-16.62-3.65-23.46,4-11.52,16.7-17,30.15-22.81,3.13-1.35,6.07-2.65,8.81-4H55.26A5.67,5.67,0,0,1,49.59,209Z"/><polygon class="cls-1" points="286.18 155.33 277.62 155.33 281.9 162.74 286.18 155.33"/><path class="cls-2" d="M417.91,339.76l-.85.22a154.28,154.28,0,0,1-23.31,3.36c-5.55.42-11.4.64-17.38.64s-11.82-.22-17.38-.64a154,154,0,0,1-23.3-3.36l-.86-.22a64.23,64.23,0,0,1-8.5-2.66v10.67c-22.38,1.16-82.83,7.07-111.18,37.14-23.6,25-51,37.7-77.14,35.7a66.26,66.26,0,0,1-16.83-3.52c-3,1.31-5.89,2.32-8.37,2.32a6,6,0,0,1-5.55-3.15c-.73-1.27-1.43-2.51-.34-6.13a86.51,86.51,0,0,1-24.38-24.21,8.5,8.5,0,0,0-14,9.64c17.48,25.4,41.06,39.93,68.18,42q3.36.26,6.72.25c29.22,0,58.84-14.46,84.09-41.25,11.93-12.64,34-22.2,63.94-27.64a291.26,291.26,0,0,1,34.87-4.1v41.76c0,.19,0,.37,0,.55a9.69,9.69,0,0,0,2.12,5.67c2.23,2.82,5.9,4.55,9.47,5.67a60.86,60.86,0,0,0,7.56,1.73,207.42,207.42,0,0,0,61.74,0,60.46,60.46,0,0,0,7.56-1.73c3.57-1.12,7.24-2.85,9.48-5.67a9.68,9.68,0,0,0,2.11-5.67c0-.18,0-.36,0-.55V337.1A64.88,64.88,0,0,1,417.91,339.76Z"/><path class="cls-3" d="M468.73,0H15.59A15.59,15.59,0,0,0,0,15.59V477.53a15.59,15.59,0,0,0,15.59,15.59H468.73a15.59,15.59,0,0,0,15.59-15.59V15.59A15.59,15.59,0,0,0,468.73,0ZM453.14,461.94h-422V31.18h422Z"/><path class="cls-3" d="M252.13,175.2V110.44a5.67,5.67,0,0,0-5.67-5.67H117.3a5.66,5.66,0,0,0-5.66,5.67V175.2a5.66,5.66,0,0,0,5.66,5.67H246.46A5.67,5.67,0,0,0,252.13,175.2Zm-11.34-5.67H123V116.11H240.79Z"/><path class="cls-3" d="M55.26,214.7H159.43c-2.74,1.3-5.68,2.6-8.81,4-13.45,5.81-26.15,11.29-30.15,22.81-2.38,6.84-1.18,14.51,3.65,23.46,8.09,15,29.74,24.61,64.33,28.57q3.69.42,7.55.74L137.65,352a10.86,10.86,0,0,0-1.53,1.58c-2.76,3.48-3.43,8.46-2,14.22L119,387.25l0,0c-.07.08-.12.18-.18.26s-.11.15-.15.22,0,0,0,0c-7.33,12-10.5,18.52-11.66,22.34-1.09,3.62-.39,4.86.34,6.13a6,6,0,0,0,5.55,3.15c2.48,0,5.37-1,8.37-2.32,1.38-.6,2.77-1.26,4.16-1.92,5.07-2.4,9.88-5,10.08-5.14a6.86,6.86,0,0,0,.6-.38l.06,0,20.61-15.24a17.94,17.94,0,0,0,6.51,1.34,11.54,11.54,0,0,0,9-3.93l76.06-75.32a23.92,23.92,0,0,0,7.31,1.22,17.14,17.14,0,0,0,11.83-4.47,18,18,0,0,0,3.43-4.3l5.88-7.62a28.55,28.55,0,0,0,5.7.62,21.25,21.25,0,0,0,14.28-5.2l0,0a36.74,36.74,0,0,0,7.62-8c23.14-3.83,44.38-9.09,60.93-15.13,23.72-8.66,37-18.55,39.56-29.39,1.38-5.92.21-14.87-13.17-23.84-10.17-6.82-10.92-27.68-2.12-58.74.49-1.75,1-3.48,1.54-5.21,11.4-17.69,19.45-33.47,19.11-42.08a10.73,10.73,0,0,0-2.48-6.84,5.58,5.58,0,0,0-2.48-2.32,6,6,0,0,0-1.66-.5,14.46,14.46,0,0,0-6.91-.6c-15.47,2-46.32,25.17-72.15,48.18v-62c0-.06,0-.11,0-.17s0-.11,0-.16a6.07,6.07,0,0,0-.13-.94l0-.12A6.27,6.27,0,0,0,324,88l-.05-.11a5.57,5.57,0,0,0-.5-.85.76.76,0,0,0-.08-.11,5.9,5.9,0,0,0-.67-.75l0,0-42.52-39a5.68,5.68,0,0,0-3.83-1.48H97.77a5.72,5.72,0,0,0-3.83,1.48l-42.51,39,0,0a5.22,5.22,0,0,0-.67.75l-.09.11a5.51,5.51,0,0,0-.49.85.37.37,0,0,0,0,.11,5.29,5.29,0,0,0-.32.92l0,.12a5.06,5.06,0,0,0-.13.94.86.86,0,0,0,0,.16c0,.06,0,.11,0,.17V209A5.67,5.67,0,0,0,55.26,214.7Zm78.84,44.84c-3.24-6-4.19-10.69-2.92-14.36,2.36-6.8,12.84-11.33,23.94-16.12,8.69-3.75,18.48-8,25.89-14.36h60.93c-.37.25-.75.5-1.12.77a22,22,0,0,0-2,1.61l0,0h0l-.11.09c-5.81,5.31-8.62,13.83-8,24.16l-8.81,11.42c-4.92,4.79-7,12.52-5.76,21.61l-9.22,9.14C170.9,281.69,142,274.23,134.1,259.54Zm-7.85,142.52c-1.34.7-2.69,1.38-4,2,.78-1.43,1.63-2.92,2.49-4.42.7-1.22,1.4-2.43,2.11-3.63l2.76,4.25C128.52,400.87,127.4,401.47,126.25,402.06Zm26.42-18.82-16.92,12.51a27.84,27.84,0,0,0-4.5-5.83l13.63-17.45,3.92-5a16.8,16.8,0,0,1,4.85,4.42h0a17.51,17.51,0,0,1,3.74,7.87Zm101-88.75a1.86,1.86,0,0,1-.26.94l-.48.42-10.06,10-74.15,73.43c0-.13,0-.26,0-.39,0-.38-.08-.75-.14-1.13,0-.2-.06-.4-.1-.61-.07-.38-.16-.77-.26-1.16,0-.18-.08-.37-.14-.56-.13-.47-.28-.95-.44-1.43,0-.09-.06-.19-.1-.28-.2-.58-.43-1.15-.68-1.73-.06-.14-.13-.27-.2-.41-.19-.43-.4-.86-.61-1.28l-.3-.56c-.2-.38-.41-.75-.63-1.13l-.33-.55c-.24-.39-.48-.76-.73-1.14l-.31-.45c-.35-.52-.72-1-1.1-1.52l-.2-.24-.57-.71-.31-.35-.49-.57-.33-.35-.48-.52-.34-.34-.49-.48L159,361l-.5-.45-.35-.3-.52-.43-.33-.27c-.18-.14-.36-.28-.55-.41l-.31-.23c-.2-.15-.4-.28-.6-.41l-.27-.19-.74-.45-.13-.08c-.3-.17-.59-.33-.89-.48l-.12-.06c-.25-.13-.5-.24-.74-.35l-.28-.12-.59-.24-.32-.11-.54-.18-.34-.1-.51-.13-.35-.07-.24-.05,61.35-60.76L222.44,284l3.63-3.59,8.3-8.22a5.22,5.22,0,0,0,.39-.43C236,271.4,241,273,246.44,279a35.55,35.55,0,0,1,3.28,4.29C252.91,288.26,253.81,292.56,253.66,294.49ZM277.9,281a7.44,7.44,0,0,1-1.75,2.6,5.64,5.64,0,0,0-.66.72L270,291.4l-1.49,1.92L264.12,299s0-.08,0-.11a15.39,15.39,0,0,0,.57-2.43l0-.21c.06-.42.1-.84.13-1.28a1.85,1.85,0,0,0,0-.24c0-.35,0-.71,0-1.07v-.31h0c0-.47,0-1-.08-1.43,0-.09,0-.17,0-.26q-.07-.71-.18-1.44a2.33,2.33,0,0,1,0-.28c-.09-.5-.19-1-.31-1.54h0c-.12-.52-.26-1-.42-1.58l-.09-.29c-.15-.51-.33-1-.52-1.56,0-.1-.08-.2-.11-.3-.21-.55-.43-1.1-.67-1.66h0c-.08-.18-.17-.35-.25-.53-.17-.38-.36-.77-.55-1.16l-.15-.3q-.42-.82-.9-1.65l-.18-.31c-.68-1.15-1.43-2.31-2.27-3.47a3.71,3.71,0,0,0-.23-.32c-.41-.56-.84-1.13-1.29-1.69-.08-.11-.17-.21-.26-.32-.48-.58-1-1.17-1.49-1.76-.39-.43-.78-.86-1.18-1.28l-.74-.74-.47-.47c-.33-.32-.67-.63-1-.94l-.21-.19c-.4-.36-.81-.72-1.22-1.05h0a28.2,28.2,0,0,0-11.32-6h0l-1.1-.21-.17,0c-.31-.05-.62-.08-.93-.11l-.32,0-.76,0-.32,0h-.39a12.13,12.13,0,0,0-1.49.14l-.44.07c-.34.06-.68.14-1,.23l-.44.13a10.12,10.12,0,0,0-1.09.4l-.24.09a13.15,13.15,0,0,0-1.23.66l-.09.05a6.09,6.09,0,0,1,1.12-1.37,5.64,5.64,0,0,0,.66-.72l13.92-18a5.54,5.54,0,0,0,.5-.76,6.55,6.55,0,0,1,1.36-1.78,6.37,6.37,0,0,1,5.26-1.42,14.26,14.26,0,0,1,3.49.84c5.23,1.91,11,6.72,15.6,13.1,5,7,7.61,14.23,8.23,20.16A17.81,17.81,0,0,1,277.9,281Zm15.7-2a15,15,0,0,1-3.76,8.64c-.15.16-.31.33-.47.48a9.33,9.33,0,0,1-3.9,2.13c.07-.08.13-.17.19-.25l.35-.45.38-.54c.11-.15.21-.31.31-.47l.36-.57.27-.48.33-.62.24-.49.3-.67c0-.07.07-.15.1-.23s.07-.17.11-.25l.27-.72c.06-.16.12-.32.17-.48s.17-.53.25-.79.09-.3.13-.46.15-.58.22-.87c0-.14.07-.27.1-.41.08-.33.14-.66.2-1l.06-.33c0-.21.07-.44.1-.66s.07-.41.09-.62c0,0,0-.05,0-.08.12-.93.19-1.89.22-2.87v-.1c0-.45,0-.9,0-1.36,0-.11,0-.22,0-.33,0-.38,0-.76,0-1.15l0-.44c0-.36-.05-.71-.08-1.06,0-.17,0-.35-.05-.52,0-.33-.07-.67-.12-1,0-.19-.05-.37-.08-.56s-.09-.65-.15-1-.07-.4-.1-.6-.12-.64-.19-1-.09-.42-.13-.63-.14-.63-.22-1-.1-.43-.16-.65l-.24-.94c-.06-.22-.13-.44-.19-.66s-.18-.62-.28-.93-.14-.45-.22-.68-.2-.61-.31-.92l-.24-.69c-.11-.31-.22-.61-.34-.92l-.27-.7-.37-.9-.3-.71c-.13-.3-.27-.6-.41-.9s-.21-.47-.32-.71-.29-.6-.44-.9-.23-.47-.35-.71-.31-.6-.47-.9-.24-.46-.37-.69l-.51-.92-.39-.67-.57-.94-.39-.64c-.21-.34-.44-.68-.67-1l-.34-.53-1.07-1.54c-7.66-10.68-17.8-17.64-27.13-18.62-.62-.07-1.24-.1-1.84-.11h-.41c-.56,0-1.1,0-1.64.07l-.48.06c-.42,0-.84.1-1.25.17l-.54.11h-.07c-.37.08-.74.18-1.1.28l-.56.16-.23.07a11.08,11.08,0,0,1,1.23-1.54l.44-.46,0,0a9.27,9.27,0,0,1,1-.78,11,11,0,0,1,7.67-1.66c8.74.92,19.16,8.45,27.2,19.67C289.93,253.69,295,268.54,293.6,278.92Zm8.6-21.42a77.58,77.58,0,0,0-10.85-21.29,67.76,67.76,0,0,0-19.83-18.83,41.16,41.16,0,0,0,5.91-2.68,48.67,48.67,0,0,0,13.43-11.34c1.11-1.3,2.22-2.7,3.33-4.22a153.24,153.24,0,0,1,12.21-14c1.06.15,2.09.32,3.09.53a35.16,35.16,0,0,1,3.64,1,25,25,0,0,1,11.34,7.26c.17.19.34.38.5.58,4.7,5.76,6.06,13.07,6.38,18.15a42.2,42.2,0,0,1,0,4.58c-7,8.3-12.83,14.77-16.4,18.16A43.48,43.48,0,0,0,302.2,257.5Zm83.1-27.73c4.42,3,9.48,7.43,8.44,11.86-2.45,10.53-32.29,25.29-83.86,34.63.77-2.88,1.29-5.73,1.78-8.47,1.53-8.49,3-16.51,11.12-24.21,3.29-3.12,9.75-10.29,17.73-19.78a5.61,5.61,0,0,0,1.34-1.6c9.44-11.3,20.8-25.61,31.53-40.26C369.75,206,373.73,222,385.3,229.77Zm8.45-113.3a15.91,15.91,0,0,1,5.09-1.26c-.07,2-1.25,8.06-10,23.14a35.94,35.94,0,0,0-2.24-4,31.34,31.34,0,0,0-9-9.18A92.3,92.3,0,0,1,393.75,116.47Zm-69.28,51c7.85-7.25,16.38-14.67,24.79-21.51,6.6-5.36,12.43-9.82,17.58-13.54a18,18,0,0,1,7.45,4.51,20.48,20.48,0,0,1,2.44,2.95,27.86,27.86,0,0,1,4.21,10.77l.06.31-.31.47c-4,6.2-9,13.37-15,21.71-7.87,10.88-16.24,21.77-24,31.44a40.11,40.11,0,0,0-7.87-17.25,34.59,34.59,0,0,0-9.36-8.05,39.6,39.6,0,0,0-8.56-3.74C318.64,173,321.5,170.24,324.47,167.51ZM100,57h174.1l30.14,27.62H69.84ZM60.93,96h252.2v66.68c-4.44,4.18-8.6,8.26-12.35,12.07a5.36,5.36,0,0,0-1.1,1.13,171.5,171.5,0,0,0-14.63,16.6,44.59,44.59,0,0,1-10.81,10.92H189.89a30.68,30.68,0,0,0,2.81-13.18,5.67,5.67,0,1,0-11.34,0,19.16,19.16,0,0,1-4.9,13.18H60.93Z"/><path class="cls-3" d="M98.06,145.43H75.53a5.67,5.67,0,0,0-5.67,5.67V191a5.66,5.66,0,0,0,5.67,5.66H98.06a5.65,5.65,0,0,0,5.66-5.66V151.1A5.66,5.66,0,0,0,98.06,145.43Zm-5.67,39.94H81.2v-8.63H92.39Zm0-20H81.2v-8.63H92.39Z"/><path class="cls-3" d="M267.8,140.53H296a5.67,5.67,0,0,0,4.91-8.5l-14.1-24.43a5.67,5.67,0,0,0-9.82,0L262.89,132a5.67,5.67,0,0,0,4.91,8.5Zm14.1-18.75,4.28,7.41h-8.56Z"/><path class="cls-3" d="M277,176.92a5.67,5.67,0,0,0,9.82,0l14.1-24.42A5.68,5.68,0,0,0,296,144H267.8a5.68,5.68,0,0,0-4.91,8.51Zm9.19-21.59-4.28,7.41-4.28-7.41Z"/><path class="cls-3" d="M426.42,398.6v8c0,.19,0,.37,0,.55a9.68,9.68,0,0,1-2.11,5.67c-2.24,2.82-5.91,4.55-9.48,5.67a60.46,60.46,0,0,1-7.56,1.73,207.42,207.42,0,0,1-61.74,0,60.86,60.86,0,0,1-7.56-1.73c-3.57-1.12-7.24-2.85-9.47-5.67a9.69,9.69,0,0,1-2.12-5.67c0-.18,0-.36,0-.55v-8c-7.59,3-11.32,7-11.32,11.95a9,9,0,0,0,.09,1.28,6.38,6.38,0,0,0-.09,1v14.51c0,6.69,6.76,11.53,20.68,14.82,10.93,2.59,25.38,4,40.68,4s29.75-1.42,40.69-4c13.91-3.29,20.67-8.13,20.67-14.82V412.81a5.33,5.33,0,0,0-.09-1,9,9,0,0,0,.09-1.28C437.73,405.59,434,401.65,426.42,398.6Zm0,27.94c-3.09,3-20.39,8.27-50,8.27s-46.94-5.29-50-8.27v-4a66.22,66.22,0,0,0,9.34,2.86c10.93,2.59,25.38,4,40.68,4s29.75-1.42,40.69-4a66.63,66.63,0,0,0,9.34-2.86Z"/><path class="cls-3" d="M335.69,293.56C321.77,296.85,315,301.7,315,308.38a9.11,9.11,0,0,0,.09,1.29,6.14,6.14,0,0,0-.09,1v14.51c0,5,3.73,8.9,11.32,12a64.23,64.23,0,0,0,8.5,2.66l.86.22a154,154,0,0,0,23.3,3.36c5.56.42,11.4.64,17.38.64s11.83-.22,17.38-.64A154.28,154.28,0,0,0,417.06,340l.85-.22a64.88,64.88,0,0,0,8.51-2.66c7.59-3.05,11.31-7,11.31-12V310.64a5.15,5.15,0,0,0-.09-1,9.11,9.11,0,0,0,.09-1.29c0-6.68-6.76-11.53-20.67-14.82-10.94-2.58-25.39-4-40.69-4S346.62,291,335.69,293.56Zm90.71,30.82a16.08,16.08,0,0,1-5.18,2.62c-7.63,2.72-22.83,5.64-44.85,5.64s-37.21-2.92-44.84-5.64a15.85,15.85,0,0,1-5.18-2.62v-4a66.14,66.14,0,0,0,9.34,2.87,148.22,148.22,0,0,0,20.42,3.12c6.41.58,13.24.88,20.26.88s13.86-.3,20.26-.88a148.14,148.14,0,0,0,20.43-3.12,66.55,66.55,0,0,0,9.34-2.87Zm-1.06-16a26.41,26.41,0,0,1-5.33,2.26c-8,2.6-22.73,5.23-43.64,5.23s-35.67-2.63-43.64-5.23a26.67,26.67,0,0,1-5.33-2.26,37.6,37.6,0,0,1,9.33-3.41c8.5-2.17,21.84-4.07,39.64-4.07S407.52,302.8,416,305A37.44,37.44,0,0,1,425.34,308.38Z"/></g></svg>