<svg xmlns="http://www.w3.org/2000/svg" viewBox="0 0 484.32 493.12"><defs><style>.cls-1{fill:none;}.cls-2{fill:#2a1536;}.cls-3{fill:#813cff;}</style></defs><g id="EXPANDED"><polygon class="cls-1" points="96.4 81.36 383.85 81.36 351.76 31.18 128.49 31.18 96.4 81.36"/><path class="cls-1" d="M50.46,179.45a5.64,5.64,0,0,1,.09-.93,20.89,20.89,0,1,1,11.17,0,5.64,5.64,0,0,1,.08.93v45.11L80,196.19V88.88a5.63,5.63,0,0,1,.45-2.21,5.63,5.63,0,0,1,.87-2.7L115,31.18H31.18V272.44l19.28-30.15Z"/><path class="cls-1" d="M399.79,87.94a5.87,5.87,0,0,1,.09.94V195.52l53.26,83.27V31.18H365.22L399,84A5.7,5.7,0,0,1,399.79,87.94Z"/><path class="cls-1" d="M310,197.18a5.67,5.67,0,0,1,5.67-5.67h72.83v-97H91.28v97h74.38a5.67,5.67,0,0,1,0,11.34H89.15l-57.69,90.2H448.79l-57.69-90.2H315.71A5.67,5.67,0,0,1,310,197.18Zm-142.8-43.87V122.37c0-.22,0-.44,0-.65a.77.77,0,0,0,0-.15,5.41,5.41,0,0,1,.12-.58.94.94,0,0,1,0-.16,5.52,5.52,0,0,1,.56-1.32l.09-.15a5.79,5.79,0,0,1,.42-.59h0l10.8-13.14a5.67,5.67,0,0,1,10,3.61v7.47h101v-7.47a5.67,5.67,0,0,1,10.05-3.61l10.81,13.14h0a5.68,5.68,0,0,1,.41.59l.09.15a6,6,0,0,1,.57,1.32.94.94,0,0,0,0,.16,5.4,5.4,0,0,1,.11.58.77.77,0,0,1,0,.15,4.63,4.63,0,0,1,0,.65v30.94a5.66,5.66,0,0,1-5.66,5.67h-134A5.67,5.67,0,0,1,167.24,153.31Zm214.14,66.54,32.32,50.53a8.51,8.51,0,0,1-7.16,13.09H73.29a8.51,8.51,0,0,1-7.17-13.09l32.32-50.53a8.53,8.53,0,0,1,7.17-3.92h62.11a5.36,5.36,0,0,1,.43-1.32,124.29,124.29,0,0,1,8.11-13.92,5.23,5.23,0,0,1,3.42-2.24,5,5,0,0,1,3.85.94,5.31,5.31,0,0,1,1.8,2.48l.36-.55q1.91-2.87,3.93-5.46a5.51,5.51,0,0,1-2.37-1.15,5,5,0,0,1-.26-7.36,78.79,78.79,0,0,1,12.52-10.7,5.13,5.13,0,0,1,4.07-.84,4.83,4.83,0,0,1,3.19,2.31,5.63,5.63,0,0,1,.52,1.34q2.66-1.69,5.4-3.09a5.69,5.69,0,0,1-.62-1,4.84,4.84,0,0,1-.09-3.94,5,5,0,0,1,3-2.86c1.32-.45,2.61-1,4-1.35l4-1.1c1.35-.32,2.73-.54,4.09-.82a40.86,40.86,0,0,1,4.12-.59,5,5,0,0,1,5.72,4.72,4.73,4.73,0,0,1,0,.65c1,0,2-.08,3-.08s2,0,3,.08a4.73,4.73,0,0,1,0-.65,5,5,0,0,1,5.71-4.72,71.86,71.86,0,0,1,8.21,1.41l4,1.1c1.34.36,2.63.9,3.95,1.35a5,5,0,0,1,3,2.86,4.8,4.8,0,0,1-.08,3.94,5.73,5.73,0,0,1-.63,1,60.52,60.52,0,0,1,5.4,3.09,5.27,5.27,0,0,1,.53-1.34,4.81,4.81,0,0,1,3.18-2.31,5.13,5.13,0,0,1,4.06.83,78.73,78.73,0,0,1,12.52,10.69,5,5,0,0,1-.25,7.38,5.51,5.51,0,0,1-2.37,1.15q2,2.59,3.93,5.46l.36.55a5.34,5.34,0,0,1,1.81-2.48,5,5,0,0,1,3.84-.94,5.18,5.18,0,0,1,3.41,2.23,122.85,122.85,0,0,1,8.12,13.92,5.43,5.43,0,0,1,.43,1.33h62.12A8.5,8.5,0,0,1,381.38,219.85Z"/><path class="cls-1" d="M65.68,158.41A9.55,9.55,0,1,0,56.13,168,9.56,9.56,0,0,0,65.68,158.41Z"/><rect class="cls-1" x="67.15" y="338.53" width="49.09" height="11.97"/><path class="cls-1" d="M31.18,461.94h422V304.39h-422Zm79.35-56.68v28.05a5.67,5.67,0,0,1-5.67,5.67H78.53a5.67,5.67,0,0,1-5.67-5.67v-56.1a5.67,5.67,0,0,1,5.67-5.67h26.33a5.67,5.67,0,0,1,5.67,5.67Zm223.45,14a14.88,14.88,0,1,1,14.88-14.88A14.89,14.89,0,0,1,334,419.28Zm69.44,12.1a27,27,0,1,1,27-27A27,27,0,0,1,403.42,431.38ZM315.71,330.59h109a5.67,5.67,0,0,1,0,11.34h-109a5.67,5.67,0,1,1,0-11.34Zm-70,7.68a51.2,51.2,0,1,1-51.2,51.19A51.24,51.24,0,0,1,245.73,338.27ZM61.48,327.19h60.43a5.67,5.67,0,0,1,5.67,5.67v23.31a5.67,5.67,0,0,1-5.67,5.67H61.48a5.67,5.67,0,0,1-5.67-5.67V332.86A5.67,5.67,0,0,1,61.48,327.19Z"/><polygon class="cls-1" points="183.72 128.04 178.58 128.04 178.58 147.64 301.25 147.64 301.25 128.04 296.1 128.04 183.72 128.04"/><rect class="cls-1" x="84.2" y="382.88" width="15" height="16.71"/><path class="cls-1" d="M334,400.86a3.54,3.54,0,1,0,3.54,3.54A3.55,3.55,0,0,0,334,400.86Z"/><rect class="cls-1" x="84.2" y="410.93" width="15" height="16.71"/><path class="cls-1" d="M403.42,388.75a15.65,15.65,0,1,0,15.64,15.65A15.67,15.67,0,0,0,403.42,388.75Z"/><circle class="cls-1" cx="245.73" cy="389.46" r="39.86"/><path class="cls-2" d="M468.73,0H15.59A15.59,15.59,0,0,0,0,15.59V477.53a15.59,15.59,0,0,0,15.59,15.59H468.73a15.59,15.59,0,0,0,15.59-15.59V15.59A15.59,15.59,0,0,0,468.73,0Zm-117,31.18,32.09,50.18H96.4l32.09-50.18ZM315.71,202.85H391.1l57.69,90.2H31.46l57.69-90.2h76.51a5.67,5.67,0,0,0,0-11.34H91.28v-97H388.54v97H315.71a5.67,5.67,0,1,0,0,11.34ZM31.18,31.18H115L81.27,84a5.63,5.63,0,0,0-.87,2.7A5.63,5.63,0,0,0,80,88.88V196.19L61.8,224.56V179.45a5.64,5.64,0,0,0-.08-.93,20.9,20.9,0,1,0-11.17,0,5.64,5.64,0,0,0-.09.93v62.84L31.18,272.44ZM56.13,168a9.55,9.55,0,1,1,9.55-9.55A9.56,9.56,0,0,1,56.13,168Zm397,294h-422V304.39h422Zm0-183.15-53.26-83.27V88.88a5.87,5.87,0,0,0-.09-.94,5.7,5.7,0,0,0-.8-4L365.22,31.18h87.92Z"/><path class="cls-2" d="M312.58,122.37a4.63,4.63,0,0,0,0-.65.77.77,0,0,0,0-.15c0-.19-.06-.39-.11-.58a.94.94,0,0,1,0-.16c-.07-.23-.15-.45-.24-.68s-.21-.43-.33-.64l-.09-.15a5.68,5.68,0,0,0-.41-.59h0l-10.81-13.14a5.67,5.67,0,0,0-10.05,3.61v7.47h-101v-7.47a5.67,5.67,0,0,0-10-3.61l-10.8,13.14h0a5.79,5.79,0,0,0-.42.59l-.09.15a5.46,5.46,0,0,0-.32.64,4.6,4.6,0,0,0-.24.68.94.94,0,0,0,0,.16c0,.19-.09.39-.12.58a.77.77,0,0,1,0,.15c0,.21,0,.43,0,.65v30.94a5.67,5.67,0,0,0,5.67,5.67h134a5.66,5.66,0,0,0,5.66-5.67Zm-11.33,25.27H178.58V128H301.25Z"/><path class="cls-2" d="M300.14,198.45a5,5,0,0,0-3.84.94,5.34,5.34,0,0,0-1.81,2.48,5.2,5.2,0,0,0-.23.86,5,5,0,0,0,.76,3.72c2.06,3.05,4,6.22,5.73,9.48.59,1.08,1.15,2.17,1.71,3.28a4.83,4.83,0,0,0,2,2.11,5.39,5.39,0,0,0,.88.4,5.29,5.29,0,0,0,3.92-.16,5,5,0,0,0,2.68-2.91,5.2,5.2,0,0,0,.15-2.72,5.43,5.43,0,0,0-.43-1.33,122.85,122.85,0,0,0-8.12-13.92A5.18,5.18,0,0,0,300.14,198.45Z"/><path class="cls-2" d="M274.46,185.12a68.84,68.84,0,0,1,10.94,9.35,5.09,5.09,0,0,0,4.8,1.39,5.51,5.51,0,0,0,2.37-1.15,5,5,0,0,0,.25-7.38,78.73,78.73,0,0,0-12.52-10.69,5.13,5.13,0,0,0-4.06-.83,4.81,4.81,0,0,0-3.18,2.31,5.27,5.27,0,0,0-.53,1.34,5.52,5.52,0,0,0-.1,2.55A5.08,5.08,0,0,0,274.46,185.12Z"/><path class="cls-2" d="M264.8,168.56c-1.32-.45-2.61-1-3.95-1.35l-4-1.1a71.86,71.86,0,0,0-8.21-1.41,5,5,0,0,0-5.71,4.72,4.73,4.73,0,0,0,0,.65,5.33,5.33,0,0,0,4.48,4.86,31.72,31.72,0,0,1,3.52.5c1.16.24,2.34.43,3.49.7l3.43.93c1.14.31,2.23.78,3.35,1.15a5.26,5.26,0,0,0,3.71-.12,5.64,5.64,0,0,0,2.21-1.72,5.73,5.73,0,0,0,.63-1,4.8,4.8,0,0,0,.08-3.94A5,5,0,0,0,264.8,168.56Z"/><path class="cls-2" d="M212.69,176.37a5.64,5.64,0,0,0,2.21,1.72,5.29,5.29,0,0,0,3.7.13c1.12-.38,2.21-.84,3.35-1.15l3.43-.94c1.15-.27,2.33-.46,3.49-.69a29.54,29.54,0,0,1,3.52-.51,5.33,5.33,0,0,0,4.49-4.86,4.73,4.73,0,0,0,0-.65,5,5,0,0,0-5.72-4.72,40.86,40.86,0,0,0-4.12.59c-1.36.28-2.74.5-4.09.82l-4,1.1c-1.34.37-2.63.9-4,1.35a5,5,0,0,0-3,2.86,4.84,4.84,0,0,0,.09,3.94A5.69,5.69,0,0,0,212.69,176.37Z"/><path class="cls-2" d="M206.77,178.12a4.83,4.83,0,0,0-3.19-2.31,5.13,5.13,0,0,0-4.07.84A78.79,78.79,0,0,0,187,187.35a5,5,0,0,0,.26,7.36,5.51,5.51,0,0,0,2.37,1.15,5.11,5.11,0,0,0,4.8-1.38,68.77,68.77,0,0,1,10.93-9.35,5.12,5.12,0,0,0,2-3.11,5.56,5.56,0,0,0-.1-2.56A5.63,5.63,0,0,0,206.77,178.12Z"/><path class="cls-2" d="M185.56,202.74a5.42,5.42,0,0,0-2-3.35,5,5,0,0,0-3.85-.94,5.23,5.23,0,0,0-3.42,2.24,124.29,124.29,0,0,0-8.11,13.92,5.36,5.36,0,0,0-.43,1.32,5.2,5.2,0,0,0,.15,2.72,5.06,5.06,0,0,0,2.69,2.91,5.26,5.26,0,0,0,3.91.16,5.45,5.45,0,0,0,.89-.39,4.92,4.92,0,0,0,2-2.11c.55-1.11,1.13-2.2,1.71-3.29q2.64-4.89,5.72-9.47A5,5,0,0,0,185.56,202.74Z"/><path class="cls-2" d="M173.14,237.91l-.29-.13-1.4-.62-1.2-.57h0l.05-.15.37-1.11q.29-.87.6-1.74a5.5,5.5,0,0,0,.15-.65,5.24,5.24,0,0,0-3.2-5.88,5.07,5.07,0,0,0-6.67,3.11c-.23.63-.44,1.27-.65,1.9l-.29.87,0,.09-.5,1.61c-.34,1-.67,2.29-1,3.52l-.94,3.66c2.21,1.23,4.41,2.45,6.7,3.61l2.3,1.09,1.85.82a5.06,5.06,0,0,0,6.81-2.74,5.3,5.3,0,0,0,0-3.76A5,5,0,0,0,173.14,237.91Z"/><path class="cls-2" d="M201.88,247c-4.87-1.07-9.72-2.28-14.47-3.81a5.23,5.23,0,0,0-4.76,1,5.35,5.35,0,0,0-1.67,2.34,5.07,5.07,0,0,0,3.34,6.54c5.07,1.62,10.23,2.91,15.41,4.05A5.15,5.15,0,0,0,201.88,247Z"/><path class="cls-2" d="M235.44,252.09a5.05,5.05,0,0,0-3.52-1.59l-3.74-.08c-1.25,0-2.49-.17-3.73-.25l-3.74-.26-3.72-.42a5,5,0,0,0-3.71,1.09,5.13,5.13,0,0,0-1.68,2.25,5.29,5.29,0,0,0-.3,1.12,5.06,5.06,0,0,0,1,3.84,5.15,5.15,0,0,0,3.52,1.93l4,.45,4,.28c1.33.08,2.65.2,4,.26l4,.09a5,5,0,0,0,5.25-5.1c0-.23,0-.44-.08-.66A5.08,5.08,0,0,0,235.44,252.09Z"/><path class="cls-2" d="M267.77,251.82a5.22,5.22,0,0,0-5.56-3.34l-3.73.54c-1.25.18-2.5.28-3.74.42l-3.75.41c-1.24.12-2.49.17-3.74.27a5.2,5.2,0,0,0-4.74,4.79,4.78,4.78,0,0,0,0,.66,5,5,0,0,0,5.5,4.82c1.32-.1,2.64-.16,4-.29l3.94-.42c1.31-.15,2.63-.26,3.93-.45l3.92-.57a5.06,5.06,0,0,0,4.31-5.9A5.65,5.65,0,0,0,267.77,251.82Z"/><path class="cls-2" d="M297.36,243.58a5.17,5.17,0,0,0-5.31-1.63c-2.41.73-4.86,1.33-7.29,2s-4.9,1.2-7.36,1.74a5.15,5.15,0,0,0-4,5,4.83,4.83,0,0,0,.09,1.13,5.12,5.12,0,0,0,6.15,4c2.57-.56,5.12-1.2,7.67-1.82s5.1-1.31,7.61-2.07a5.09,5.09,0,0,0,3.5-6.42A5.17,5.17,0,0,0,297.36,243.58Z"/><path class="cls-2" d="M308.4,232.94a4.94,4.94,0,0,0,.15.64l.9,2.62-2.07.77-.62.23a5.13,5.13,0,0,0-3.26,3.92,5.08,5.08,0,0,0,6.78,5.76l1.85-.68.92-.35c.51-.19,1.16-.43,1.73-.67,2.36-1,4.7-1.92,7-2.92-.63-2.46-1.2-4.88-2-7.36l-.57-1.85,0-.11-.28-.87c-.21-.64-.43-1.28-.66-1.91a5.07,5.07,0,0,0-6.67-3.1A5.25,5.25,0,0,0,308.4,232.94Z"/><path class="cls-2" d="M104.86,371.54H78.53a5.67,5.67,0,0,0-5.67,5.67v56.1A5.67,5.67,0,0,0,78.53,439h26.33a5.67,5.67,0,0,0,5.67-5.67v-56.1A5.67,5.67,0,0,0,104.86,371.54Zm-5.67,56.1h-15V410.93h15Zm0-28.05h-15V382.88h15Z"/><path class="cls-2" d="M61.48,361.84h60.43a5.67,5.67,0,0,0,5.67-5.67V332.86a5.67,5.67,0,0,0-5.67-5.67H61.48a5.67,5.67,0,0,0-5.67,5.67v23.31A5.67,5.67,0,0,0,61.48,361.84Zm5.67-23.31h49.09v12H67.15Z"/><path class="cls-2" d="M334,389.52a14.88,14.88,0,1,0,14.88,14.88A14.89,14.89,0,0,0,334,389.52Zm0,18.42a3.54,3.54,0,1,1,3.54-3.54A3.55,3.55,0,0,1,334,407.94Z"/><path class="cls-2" d="M403.42,377.42a27,27,0,1,0,27,27A27,27,0,0,0,403.42,377.42Zm0,42.63a15.65,15.65,0,1,1,15.64-15.65A15.67,15.67,0,0,1,403.42,420.05Z"/><path class="cls-2" d="M245.73,440.66a51.2,51.2,0,1,0-51.2-51.2A51.25,51.25,0,0,0,245.73,440.66Zm0-91.06a39.87,39.87,0,1,1-39.87,39.86A39.91,39.91,0,0,1,245.73,349.6Z"/><path class="cls-2" d="M315.71,341.93h109a5.67,5.67,0,0,0,0-11.34h-109a5.67,5.67,0,1,0,0,11.34Z"/><path class="cls-3" d="M381.38,219.85a8.5,8.5,0,0,0-7.16-3.92H312.1a5.2,5.2,0,0,1-.15,2.72,5,5,0,0,1-2.68,2.91,5.29,5.29,0,0,1-3.92.16,5.39,5.39,0,0,1-.88-.4,4.83,4.83,0,0,1-2-2.11c-.56-1.11-1.12-2.2-1.71-3.28-1.76-3.26-3.67-6.43-5.73-9.48a5,5,0,0,1-.76-3.72,5.2,5.2,0,0,1,.23-.86l-.36-.55q-1.9-2.87-3.93-5.46a5.09,5.09,0,0,1-4.8-1.39,68.84,68.84,0,0,0-10.94-9.35,5.08,5.08,0,0,1-2-3.11,5.52,5.52,0,0,1,.1-2.55,60.52,60.52,0,0,0-5.4-3.09,5.64,5.64,0,0,1-2.21,1.72,5.26,5.26,0,0,1-3.71.12c-1.12-.37-2.21-.84-3.35-1.15l-3.43-.93c-1.15-.27-2.33-.46-3.49-.7a31.72,31.72,0,0,0-3.52-.5,5.33,5.33,0,0,1-4.48-4.86c-1,0-2-.08-3-.08s-2,0-3,.08a5.33,5.33,0,0,1-4.49,4.86,29.54,29.54,0,0,0-3.52.51c-1.16.23-2.34.42-3.49.69l-3.43.94c-1.14.31-2.23.77-3.35,1.15a5.29,5.29,0,0,1-3.7-.13,5.64,5.64,0,0,1-2.21-1.72q-2.74,1.4-5.4,3.09a5.56,5.56,0,0,1,.1,2.56,5.12,5.12,0,0,1-2,3.11,68.77,68.77,0,0,0-10.93,9.35,5.11,5.11,0,0,1-4.8,1.38q-2,2.59-3.93,5.46l-.36.55a5.31,5.31,0,0,1,.23.87,5,5,0,0,1-.77,3.72q-3.09,4.57-5.72,9.47c-.58,1.09-1.16,2.18-1.71,3.29a4.92,4.92,0,0,1-2,2.11,5.45,5.45,0,0,1-.89.39,5.26,5.26,0,0,1-3.91-.16,5.06,5.06,0,0,1-2.69-2.91,5.2,5.2,0,0,1-.15-2.72H105.61a8.53,8.53,0,0,0-7.17,3.92L66.12,270.38a8.51,8.51,0,0,0,7.17,13.09H406.54a8.51,8.51,0,0,0,7.16-13.09ZM175.8,244.6a5.06,5.06,0,0,1-6.81,2.74l-1.85-.82-2.3-1.09c-2.29-1.16-4.49-2.38-6.7-3.61l.94-3.66c.33-1.23.66-2.49,1-3.52l.5-1.61,0-.09.29-.87c.21-.63.42-1.27.65-1.9a5.07,5.07,0,0,1,6.67-3.11,5.24,5.24,0,0,1,3.2,5.88,5.5,5.5,0,0,1-.15.65q-.32.87-.6,1.74l-.37,1.11-.05.15h0l1.2.57,1.4.62.29.13a5,5,0,0,1,2.69,2.93A5.3,5.3,0,0,1,175.8,244.6Zm30,8.47a5.09,5.09,0,0,1-6.11,4c-5.18-1.14-10.34-2.43-15.41-4.05a5.07,5.07,0,0,1-3.34-6.54,5.35,5.35,0,0,1,1.67-2.34,5.23,5.23,0,0,1,4.76-1c4.75,1.53,9.6,2.74,14.47,3.81a5.34,5.34,0,0,1,4,6Zm29.61,6.3a5.2,5.2,0,0,1-3.75,1.43l-4-.09c-1.33-.06-2.65-.18-4-.26l-4-.28-4-.45a5.15,5.15,0,0,1-3.52-1.93,5.06,5.06,0,0,1-1-3.84,5.29,5.29,0,0,1,.3-1.12,5.13,5.13,0,0,1,1.68-2.25,5,5,0,0,1,3.71-1.09l3.72.42,3.74.26c1.24.08,2.48.2,3.73.25l3.74.08a5.24,5.24,0,0,1,5,4.54c0,.22.07.43.08.66A5.17,5.17,0,0,1,235.45,259.37Zm28.27-.71-3.92.57c-1.3.19-2.62.3-3.93.45l-3.94.42c-1.32.13-2.64.19-4,.29a5,5,0,0,1-5.5-4.82,4.78,4.78,0,0,1,0-.66,5.2,5.2,0,0,1,4.74-4.79c1.25-.1,2.5-.15,3.74-.27l3.75-.41c1.24-.14,2.49-.24,3.74-.42l3.73-.54a5.22,5.22,0,0,1,5.56,3.34,5.65,5.65,0,0,1,.26.94A5.06,5.06,0,0,1,263.72,258.66Zm31.18-6.81c-2.51.76-5.07,1.38-7.61,2.07s-5.1,1.26-7.67,1.82a5.12,5.12,0,0,1-6.15-4,4.83,4.83,0,0,1-.09-1.13,5.15,5.15,0,0,1,4-5c2.46-.54,4.91-1.15,7.36-1.74s4.88-1.26,7.29-2a5.25,5.25,0,0,1,6.35,3.48A5.09,5.09,0,0,1,294.9,251.85Zm19.88-6.67c-.57.24-1.22.48-1.73.67l-.92.35-1.85.68a5.15,5.15,0,0,1-3.52-9.68l.62-.23,2.07-.77-.9-2.62a4.94,4.94,0,0,1-.15-.64,5.25,5.25,0,0,1,3.2-5.88,5.07,5.07,0,0,1,6.67,3.1c.23.63.45,1.27.66,1.91l.28.87,0,.11.57,1.85c.77,2.48,1.34,4.9,2,7.36C319.48,243.26,317.14,244.22,314.78,245.18Z"/></g></svg>