<svg xmlns="http://www.w3.org/2000/svg" viewBox="0 0 484.32 493.12"><defs><style>.cls-1{fill:none;}.cls-2{fill:#ffce00;}.cls-3{fill:#2a1536;}</style></defs><g id="EXPANDED"><path class="cls-1" d="M405.09,426.37h-8.68v5.15C396.41,428.68,400.29,426.37,405.09,426.37Z"/><path class="cls-1" d="M409.45,426.37h0l-2.09-3.81c-2.32-4.22-2.15-8.73.34-10.1s6.37.93,8.69,5.15l10.46,19.06h0L412.21,410l-9,5Z"/><polygon class="cls-1" points="384.43 153.36 384.43 162.98 384.43 254.19 453.14 254.19 453.14 153.36 384.43 153.36"/><path class="cls-1" d="M396.41,431.52v5.15h8.68C400.29,436.67,396.41,434.36,396.41,431.52Z"/><path class="cls-1" d="M384.43,283.86a5.67,5.67,0,0,1-5.67,5.67h-93v32.2c0,6.71-5.08,12.18-11.31,12.18H210.94a5.67,5.67,0,0,1-5.67-5.67V289.53H183.84v35.74a5.69,5.69,0,0,1-2.88,4.94,51.14,51.14,0,0,1-17.85,5.38v10q5.16-.43,10.6-.44c36.74,0,64.44,15.05,64.44,35s-27.7,35-64.44,35-64.44-15.05-64.44-35c0-16.29,18.46-29.3,45.21-33.54V335.79a43.64,43.64,0,0,1-18.56-5.58,5.69,5.69,0,0,1-2.88-4.94V289.53h-18.8a5.67,5.67,0,0,1-5.67-5.67V274.5a18.34,18.34,0,0,1-7.53-9H31.18V461.94h422V265.53H384.43ZM116,340.51,123.45,327a5.15,5.15,0,0,1,9,5l-7.43,13.55a5.15,5.15,0,1,1-9-4.95Zm-16,29.17,7.44-13.55a5.15,5.15,0,0,1,9,5L109,374.64a5.15,5.15,0,0,1-9-5ZM93.7,431.52v5.15H63.26l4.63-8.44L77.9,410l9,5-6.27,11.43h13ZM93,403.81a5.15,5.15,0,1,1-9-4.95l7.44-13.55a5.15,5.15,0,0,1,9,4.95Zm28.36,32.86H105.94a5.15,5.15,0,0,1,0-10.3h15.45a5.15,5.15,0,0,1,0,10.3Zm32.85,0H138.78a5.15,5.15,0,0,1,0-10.3h15.46a5.15,5.15,0,0,1,0,10.3Zm32.84,0H171.63a5.15,5.15,0,0,1,0-10.3h15.45a5.15,5.15,0,0,1,0,10.3Zm32.85,0H204.47a5.15,5.15,0,0,1,0-10.3h15.46a5.15,5.15,0,0,1,0,10.3ZM369.41,332l7.43,13.55a5.15,5.15,0,0,1-9,5l-7.43-13.55a5.15,5.15,0,1,1,9-4.95Zm-21-13.66v-5.15h10.66l3.67,6.69,1.46,2.66-9,5-1.46-2.67-.74-1.34h-4.56Zm-40-5.15H323.9a5.15,5.15,0,0,1,0,10.3H308.45a5.15,5.15,0,1,1,0-10.3Zm-55.68,123.5H237.32a5.15,5.15,0,0,1,0-10.3h15.45a5.15,5.15,0,0,1,0,10.3Zm-1.7-56.51c0-20,27.7-35,64.44-35s64.43,15.05,64.43,35-27.7,35-64.43,35S251.07,400.11,251.07,380.16Zm34.55,56.51H270.17a5.15,5.15,0,0,1,0-10.3h15.45a5.15,5.15,0,0,1,0,10.3Zm32.84,0H303a5.15,5.15,0,0,1,0-10.3h15.45a5.15,5.15,0,1,1,0,10.3Zm32.85,0H335.86a5.15,5.15,0,0,1,0-10.3h15.45a5.15,5.15,0,1,1,0,10.3Zm32.84,0H368.7a5.15,5.15,0,0,1,0-10.3h15.45a5.15,5.15,0,1,1,0,10.3Zm42.7,0H396.41v-10.3h13l-6.27-11.43,9-5ZM399.59,387,407,400.54a5.15,5.15,0,0,1-9,5L390.56,392a5.15,5.15,0,0,1,9-5Zm-9.7-7a5.13,5.13,0,0,1-7-2l-7.44-13.55a5.15,5.15,0,1,1,9-4.95L391.94,373A5.15,5.15,0,0,1,389.89,380Z"/><path class="cls-1" d="M144.38,321.78c11.71,5.18,23,2,28.12-.12V289.53H144.38Z"/><path class="cls-1" d="M176.48,186.72c-13.71-4.54-24.61-2-29.63-.2v41.57h29.63Z"/><path class="cls-1" d="M274.22,322.57a1.48,1.48,0,0,0,.23-.84v-32.2H216.61v33Z"/><path class="cls-1" d="M141.18,239.43H119.91v1.25a18.3,18.3,0,0,1,0,36.41v1.1h76.16V239.43H141.18Z"/><polygon class="cls-1" points="346.08 136.13 346.08 157.31 373.09 157.31 373.09 147.69 373.09 136.13 346.08 136.13"/><path class="cls-1" d="M126.28,380.16c0,3.45,4.41,7.68,11.52,11,9.31,4.41,22.4,6.94,35.91,6.94s26.6-2.53,35.91-6.94c7.11-3.37,11.52-7.6,11.52-11s-4.41-7.69-11.52-11.06c-9.31-4.41-22.4-6.94-35.91-6.94s-26.6,2.53-35.91,6.94C130.69,372.47,126.28,376.71,126.28,380.16Z"/><path class="cls-1" d="M207.41,136.13V278.19H334.74V136.13Zm103.07,46.14a20.6,20.6,0,1,1,20.6-20.6A20.62,20.62,0,0,1,310.48,182.27Z"/><polygon class="cls-1" points="373.09 278.19 373.09 259.86 373.09 168.65 346.08 168.65 346.08 278.19 373.09 278.19"/><path class="cls-1" d="M310.48,152.41a9.26,9.26,0,1,0,9.26,9.26A9.27,9.27,0,0,0,310.48,152.41Z"/><path class="cls-1" d="M108.57,243.28v-9.52a5.67,5.67,0,0,1,5.67-5.67h21.27V182.78a5.67,5.67,0,0,1,3-5c.81-.44,20.25-10.74,45.82-.27a5.68,5.68,0,0,1,3.52,5.25v45.31h8.26V153.36H31.18V254.19H100.4A18.35,18.35,0,0,1,108.57,243.28Z"/><path class="cls-1" d="M351.47,313.17h-3v5.15C348.43,315.48,349.78,313.17,351.47,313.17Z"/><path class="cls-1" d="M93.7,431.52v-5.15H85C89.82,426.37,93.7,428.68,93.7,431.52Z"/><path class="cls-1" d="M359.71,325c-2.49,1.36-5.17,1.29-6-.19l1.46,2.67,9-5-1.46-2.66C363.57,321.33,362.2,323.63,359.71,325Z"/><path class="cls-1" d="M348.43,318.32v5.15h3C349.78,323.47,348.43,321.16,348.43,318.32Z"/><path class="cls-1" d="M351.42,391.21c7.1-3.37,11.52-7.6,11.52-11s-4.42-7.69-11.52-11.06c-9.32-4.41-22.41-6.94-35.91-6.94s-26.6,2.53-35.92,6.94c-7.1,3.37-11.51,7.61-11.51,11.06s4.41,7.68,11.51,11c9.32,4.41,22.41,6.94,35.92,6.94S342.1,395.62,351.42,391.21Z"/><path class="cls-1" d="M196.07,130.46a5.67,5.67,0,0,1,5.67-5.67h177a5.67,5.67,0,0,1,5.67,5.67V142h68.71V31.18h-422V142H196.07Z"/><path class="cls-1" d="M73.73,417.59c2.3-4.2,6.2-6.49,8.68-5.13s2.65,5.88.35,10.08l-2.1,3.83h0l6.27-11.43-9-5-10,18.25Z"/><path class="cls-1" d="M85,436.67h8.7v-5.15C93.7,434.36,89.82,436.67,85,436.67Z"/><path class="cls-2" d="M173.71,345.15q-5.44,0-10.6.44v11.9l-8.63-10.38v-.49c-26.75,4.24-45.21,17.25-45.21,33.54,0,19.95,27.7,35,64.44,35s64.44-15.05,64.44-35S210.45,345.15,173.71,345.15Zm35.91,46.06c-9.31,4.41-22.4,6.94-35.91,6.94s-26.6-2.53-35.91-6.94c-7.11-3.37-11.52-7.6-11.52-11s4.41-7.69,11.52-11.06c9.31-4.41,22.4-6.94,35.91-6.94s26.6,2.53,35.91,6.94c7.11,3.37,11.52,7.61,11.52,11.06S216.73,387.84,209.62,391.21Z"/><path class="cls-2" d="M315.51,345.15c-36.74,0-64.44,15.05-64.44,35s27.7,35,64.44,35,64.43-15.05,64.43-35S352.24,345.15,315.51,345.15Zm35.91,46.06c-9.32,4.41-22.41,6.94-35.91,6.94s-26.6-2.53-35.92-6.94c-7.1-3.37-11.51-7.6-11.51-11s4.41-7.69,11.51-11.06c9.32-4.41,22.41-6.94,35.92-6.94s26.59,2.53,35.91,6.94c7.1,3.37,11.52,7.61,11.52,11.06S358.52,387.84,351.42,391.21Z"/><path class="cls-3" d="M468.73,0H15.59A15.59,15.59,0,0,0,0,15.59V477.53a15.59,15.59,0,0,0,15.59,15.59H468.73a15.59,15.59,0,0,0,15.59-15.59V15.59A15.59,15.59,0,0,0,468.73,0ZM31.18,153.36H196.07v74.73h-8.26V182.78a5.68,5.68,0,0,0-3.52-5.25c-25.57-10.47-45-.17-45.82.27a5.67,5.67,0,0,0-3,5v45.31H114.24a5.67,5.67,0,0,0-5.67,5.67v9.52a18.35,18.35,0,0,0-8.17,10.91H31.18ZM138.71,278.19h-18.8v-1.1a18.3,18.3,0,0,0,0-36.41v-1.25h76.16v38.76H138.71Zm33.79,11.34v32.13c-5.15,2.08-16.41,5.3-28.12.12V289.53Zm-61.39-30.79a7,7,0,1,1,.11,1.33c0-.07,0-.14,0-.21A5.19,5.19,0,0,0,111.11,258.74Zm35.74-30.65V186.52c5-1.79,15.92-4.34,29.63.2v41.37ZM453.14,461.94h-422V265.53H101a18.34,18.34,0,0,0,7.53,9v9.36a5.67,5.67,0,0,0,5.67,5.67H133v35.74a5.69,5.69,0,0,0,2.88,4.94,43.64,43.64,0,0,0,18.56,5.58v11.32l8.63,10.38v-21.9A51.14,51.14,0,0,0,181,330.21a5.69,5.69,0,0,0,2.88-4.94V289.53h21.43v38.71a5.67,5.67,0,0,0,5.67,5.67h63.54c6.23,0,11.31-5.47,11.31-12.18v-32.2h93a5.67,5.67,0,0,0,5.67-5.67V265.53h68.71ZM207.41,278.19V136.13H334.74V278.19Zm67,11.34v32.2a1.48,1.48,0,0,1-.23.84H216.61v-33Zm98.64-120.88V278.19h-27V168.65Zm-27-11.33V136.13h27v21.19Zm107.06,96.87H384.43V153.36h68.71Zm0-112.17H384.43V130.46a5.67,5.67,0,0,0-5.67-5.67h-177a5.67,5.67,0,0,0-5.67,5.67V142H31.18V31.18h422Z"/><path class="cls-3" d="M310.48,141.07a20.6,20.6,0,1,0,20.6,20.6A20.62,20.62,0,0,0,310.48,141.07Zm0,29.86a9.26,9.26,0,1,1,9.26-9.26A9.27,9.27,0,0,1,310.48,170.93Z"/><path class="cls-3" d="M323.9,313.17H308.45a5.15,5.15,0,1,0,0,10.3H323.9a5.15,5.15,0,0,0,0-10.3Z"/><path class="cls-3" d="M374.8,352.51a5.14,5.14,0,0,0,2-7L369.41,332a5.15,5.15,0,1,0-9,4.95l7.43,13.55A5.16,5.16,0,0,0,374.8,352.51Z"/><path class="cls-3" d="M377.51,357.45a5.15,5.15,0,0,0-2,7L382.91,378a5.15,5.15,0,0,0,9-5l-7.44-13.54A5.14,5.14,0,0,0,377.51,357.45Z"/><path class="cls-3" d="M390.56,392,398,405.5a5.15,5.15,0,0,0,9-5L399.59,387a5.15,5.15,0,0,0-9,5Z"/><path class="cls-3" d="M384.15,426.37H368.7a5.15,5.15,0,0,0,0,10.3h15.45a5.15,5.15,0,1,0,0-10.3Z"/><path class="cls-3" d="M351.31,426.37H335.86a5.15,5.15,0,0,0,0,10.3h15.45a5.15,5.15,0,1,0,0-10.3Z"/><path class="cls-3" d="M318.46,426.37H303a5.15,5.15,0,0,0,0,10.3h15.45a5.15,5.15,0,1,0,0-10.3Z"/><path class="cls-3" d="M285.62,426.37H270.17a5.15,5.15,0,0,0,0,10.3h15.45a5.15,5.15,0,0,0,0-10.3Z"/><path class="cls-3" d="M252.77,426.37H237.32a5.15,5.15,0,0,0,0,10.3h15.45a5.15,5.15,0,0,0,0-10.3Z"/><path class="cls-3" d="M219.93,426.37H204.47a5.15,5.15,0,0,0,0,10.3h15.46a5.15,5.15,0,0,0,0-10.3Z"/><path class="cls-3" d="M187.08,426.37H171.63a5.15,5.15,0,0,0,0,10.3h15.45a5.15,5.15,0,0,0,0-10.3Z"/><path class="cls-3" d="M154.24,426.37H138.78a5.15,5.15,0,0,0,0,10.3h15.46a5.15,5.15,0,0,0,0-10.3Z"/><path class="cls-3" d="M121.39,426.37H105.94a5.15,5.15,0,0,0,0,10.3h15.45a5.15,5.15,0,0,0,0-10.3Z"/><path class="cls-3" d="M98.42,383.29a5.13,5.13,0,0,0-7,2L84,398.86a5.15,5.15,0,1,0,9,4.95l7.44-13.55A5.14,5.14,0,0,0,98.42,383.29Z"/><path class="cls-3" d="M102.05,376.67a5.14,5.14,0,0,0,7-2l7.44-13.55a5.15,5.15,0,0,0-9-5L100,369.68A5.15,5.15,0,0,0,102.05,376.67Z"/><path class="cls-3" d="M130.44,324.93a5.16,5.16,0,0,0-7,2L116,340.51a5.15,5.15,0,1,0,9,4.95l7.43-13.55A5.15,5.15,0,0,0,130.44,324.93Z"/><path class="cls-3" d="M362.76,319.86l-3.67-6.69h-7.62c-1.69,0-3,2.31-3,5.15s1.35,5.15,3,5.15H353l.74,1.34c.81,1.48,3.49,1.55,6,.19S363.57,321.33,362.76,319.86Z"/><path class="cls-3" d="M407.36,422.56l2.09,3.81h-4.36c-4.8,0-8.68,2.31-8.68,5.15s3.88,5.15,8.68,5.15h21.76l-10.46-19.06c-2.32-4.22-6.21-6.51-8.69-5.15S405,418.34,407.36,422.56Z"/><path class="cls-3" d="M85,426.37H80.66l2.1-3.83c2.3-4.2,2.14-8.71-.35-10.08s-6.38.93-8.68,5.13l-5.84,10.64-4.63,8.44H85c4.82,0,8.7-2.31,8.7-5.15S89.82,426.37,85,426.37Z"/></g></svg>